<svg width="64" height="64" viewBox="0 0 64 64" fill="none" xmlns="http://www.w3.org/2000/svg">
<path fill-rule="evenodd" clip-rule="evenodd" d="M19.3469 18.0762C17.5288 18.0762 16.0552 19.5316 16.0552 21.3273L16.0552 45.1687C16.0552 46.9644 17.5288 48.4198 19.3469 48.4198H26.953C26.8828 51.9873 24.3756 55.8702 22.992 57.7439C22.6858 58.1568 23.1269 58.6922 23.6635 58.573C32.9023 56.502 36.1205 51.2937 37.2156 48.4198L56.6533 48.4198C58.4714 48.4198 59.945 46.9644 59.945 45.1687L59.945 21.3273C59.945 19.5316 58.4714 18.0762 56.6533 18.0762L19.3469 18.0762Z" fill="url(#paint0_linear_4422_65928)"/>
<path d="M40.0552 28.0762V34.7428C40.0552 38.0565 37.3689 40.7428 34.0552 40.7428H26.0552" stroke="#BEC6CC" stroke-width="2"/>
<path fill-rule="evenodd" clip-rule="evenodd" d="M18.5496 6.70372C20.6121 5.84939 22.8227 5.40967 25.0552 5.40967C27.2876 5.40967 29.4983 5.84939 31.5608 6.70372C33.6233 7.55805 35.4974 8.81026 37.076 10.3889C38.6546 11.9674 39.9068 13.8415 40.7611 15.904C41.6155 17.9666 42.0552 20.1772 42.0552 22.4097H39.3885C39.3885 20.5274 39.0178 18.6635 38.2975 16.9245C37.5771 15.1855 36.5213 13.6054 35.1904 12.2745C33.8594 10.9435 32.2793 9.88771 30.5403 9.16739C28.8013 8.44708 26.9375 8.07633 25.0552 8.07633C23.1729 8.07633 21.309 8.44708 19.57 9.1674C17.831 9.88771 16.251 10.9435 14.92 12.2745C13.589 13.6054 12.5332 15.1855 11.8129 16.9245C11.0926 18.6635 10.7218 20.5274 10.7218 22.4097H8.05518C8.05518 20.1772 8.49489 17.9666 9.34922 15.9041C10.2036 13.8415 11.4558 11.9674 13.0344 10.3889C14.613 8.81026 16.487 7.55805 18.5496 6.70372Z" fill="url(#paint1_linear_4422_65928)"/>
<path d="M40.7217 26.0763C40.7217 24.6036 41.9156 23.4097 43.3883 23.4097C44.8611 23.4097 46.055 24.6036 46.055 26.0763V28.743C46.055 30.2158 44.8611 31.4097 43.3883 31.4097C41.9156 31.4097 40.7217 30.2158 40.7217 28.743V26.0763Z" fill="url(#paint2_linear_4422_65928)"/>
<path d="M9.38851 26.0763C9.38851 24.6036 8.1946 23.4097 6.72184 23.4097C5.24908 23.4097 4.05518 24.6036 4.05518 26.0763V28.743C4.05518 30.2158 5.24908 31.4097 6.72184 31.4097C8.1946 31.4097 9.38851 30.2158 9.38851 28.743V26.0763Z" fill="url(#paint3_linear_4422_65928)"/>
<path d="M38.0552 24.0763C38.0552 22.6036 39.2491 21.4097 40.7218 21.4097C42.1946 21.4097 43.3885 22.6036 43.3885 24.0763V30.0763C43.3885 31.5491 42.1946 32.743 40.7218 32.743C39.2491 32.743 38.0552 31.5491 38.0552 30.0763V24.0763Z" fill="url(#paint4_linear_4422_65928)"/>
<path d="M12.055 24.0763C12.055 22.6036 10.8611 21.4097 9.38835 21.4097C7.91559 21.4097 6.72168 22.6036 6.72168 24.0763V30.0763C6.72168 31.5491 7.91559 32.743 9.38835 32.743C10.8611 32.743 12.055 31.5491 12.055 30.0763V24.0763Z" fill="url(#paint5_linear_4422_65928)"/>
<path d="M27.055 38.0762C28.3437 38.0762 29.3883 39.1208 29.3883 40.4095C29.3883 41.6982 28.3437 42.7428 27.055 42.7428H25.055C23.7663 42.7428 22.7217 41.6982 22.7217 40.4095C22.7217 39.1208 23.7663 38.0762 25.055 38.0762L27.055 38.0762Z" fill="url(#paint6_linear_4422_65928)"/>
<defs>
<linearGradient id="paint0_linear_4422_65928" x1="-4.5" y1="1" x2="73" y2="65" gradientUnits="userSpaceOnUse">
<stop stop-color="white"/>
<stop offset="1" stop-color="#CAD1D6"/>
</linearGradient>
<linearGradient id="paint1_linear_4422_65928" x1="2.05518" y1="5.40967" x2="24.0552" y2="27.0763" gradientUnits="userSpaceOnUse">
<stop stop-color="#F1F3F5"/>
<stop offset="1" stop-color="#C8CDD0"/>
</linearGradient>
<linearGradient id="paint2_linear_4422_65928" x1="42.055" y1="26.743" x2="39.3883" y2="31.4097" gradientUnits="userSpaceOnUse">
<stop stop-color="#FFD36D"/>
<stop offset="1" stop-color="#FFB300"/>
</linearGradient>
<linearGradient id="paint3_linear_4422_65928" x1="8.05518" y1="26.743" x2="10.7218" y2="31.4097" gradientUnits="userSpaceOnUse">
<stop stop-color="#FFD36D"/>
<stop offset="1" stop-color="#FFB300"/>
</linearGradient>
<linearGradient id="paint4_linear_4422_65928" x1="38.0552" y1="21.4097" x2="42.3885" y2="29.743" gradientUnits="userSpaceOnUse">
<stop stop-color="#FEDE94"/>
<stop offset="1" stop-color="#FFB300"/>
</linearGradient>
<linearGradient id="paint5_linear_4422_65928" x1="12.055" y1="21.4097" x2="7.72168" y2="29.743" gradientUnits="userSpaceOnUse">
<stop stop-color="#FEDE94"/>
<stop offset="1" stop-color="#FFB300"/>
</linearGradient>
<linearGradient id="paint6_linear_4422_65928" x1="22.7217" y1="38.0762" x2="22.7217" y2="42.7428" gradientUnits="userSpaceOnUse">
<stop stop-color="#FFD36D"/>
<stop offset="1" stop-color="#FFB300"/>
</linearGradient>
</defs>
</svg>
