<svg width="64" height="65" viewBox="0 0 64 65" fill="none" xmlns="http://www.w3.org/2000/svg">
<path d="M40.4664 34.47L38.568 44.616L31.1755 48.4463L33.2963 37.7843C33.8862 34.8188 36.7348 32.8659 39.7135 33.385C40.2229 33.4738 40.5615 33.9617 40.4664 34.47Z" fill="url(#paint0_linear_4422_65934)"/>
<path d="M50.0825 35.3755L44.9697 44.3423L36.731 45.5438L42.2227 36.1621C43.7501 33.5527 47.0808 32.639 49.7259 34.1039C50.1783 34.3544 50.3386 34.9263 50.0825 35.3755Z" fill="url(#paint1_linear_4422_65934)"/>
<path d="M40.6671 40.2976C41.5515 41.1789 42.1084 42.3257 42.2596 43.55L44.9555 43.394L50.3257 39.1121C51.4734 38.1975 52.9293 37.756 54.3937 37.8785C55.8581 38.001 57.2197 38.6781 58.1984 39.7706L58.381 39.967C58.5776 40.1864 58.6797 40.4742 58.665 40.768C58.6503 41.0618 58.52 41.338 58.3025 41.5368L48.8125 50.1897C48.6751 50.3155 48.5201 50.4209 48.3525 50.5026L35.8452 56.6417C35.0806 57.0169 34.2009 57.0865 33.3864 56.8363L18.362 52.227H12.9292V38.6689H17.296C20.6984 36.7517 24.3984 36.8499 28.1659 38.6689H36.7213C38.2013 38.6689 39.6206 39.2547 40.6671 40.2976Z" fill="url(#paint2_linear_4422_65934)"/>
<path d="M11.7145 32.2568H9.33301C7.12387 32.2568 5.33301 34.0477 5.33301 36.2568V50.3174C5.33301 52.5266 7.12387 54.3174 9.33301 54.3174H11.7145C13.9236 54.3174 15.7145 52.5266 15.7145 50.3174V36.2568C15.7145 34.0477 13.9236 32.2568 11.7145 32.2568Z" fill="url(#paint3_linear_4422_65934)"/>
<circle cx="12.2609" cy="50.3815" r="1.59488" fill="white"/>
<circle cx="32.0304" cy="17.9841" r="10.1667" stroke="url(#paint4_linear_4422_65934)" stroke-width="3"/>
<circle cx="32.0301" cy="17.9842" r="8.33333" fill="url(#paint5_linear_4422_65934)"/>
<path fill-rule="evenodd" clip-rule="evenodd" d="M32.0303 11.6509C32.3617 11.6509 32.6303 11.9442 32.6303 12.3061V13.2942C33.4692 13.4476 34.3085 13.8672 34.8545 14.4635C35.0889 14.7193 35.0889 15.1342 34.8545 15.39C34.6202 15.6459 34.2403 15.6459 34.006 15.39C33.5835 14.9287 32.7736 14.5637 32.0141 14.5413C31.569 14.528 31.2198 14.6351 30.9966 14.8198C30.7985 14.9837 30.6303 15.2642 30.6303 15.8003C30.6303 16.0227 30.6756 16.1705 30.7346 16.2784C30.7956 16.39 30.8917 16.4959 31.0399 16.5989C31.3603 16.8215 31.8127 16.9624 32.3882 17.1337C32.4032 17.1382 32.4184 17.1427 32.4337 17.1473C32.9499 17.3008 33.5748 17.4867 34.0649 17.8273C34.3292 18.0109 34.5768 18.2532 34.7564 18.5817C34.9381 18.914 35.0303 19.2986 35.0303 19.7313C35.0303 20.6939 34.6409 21.4278 34.0352 21.8909C33.6234 22.2058 33.1324 22.3814 32.6303 22.4472V23.6624C32.6303 24.0242 32.3617 24.3175 32.0303 24.3175C31.6989 24.3175 31.4303 24.0242 31.4303 23.6624V22.4088C30.5562 22.2433 29.6854 21.7783 29.15 20.9976C28.9514 20.708 29.0054 20.2974 29.2707 20.0805C29.5359 19.8636 29.9119 19.9226 30.1106 20.2122C30.4868 20.7608 31.2503 21.1343 32.0515 21.1653C32.5747 21.1857 33.0356 21.0556 33.3469 20.8175C33.6341 20.598 33.8303 20.2635 33.8303 19.7313C33.8303 19.5089 33.785 19.3612 33.726 19.2533C33.665 19.1416 33.5689 19.0358 33.4207 18.9328C33.1003 18.7102 32.6478 18.5693 32.0724 18.3979C32.0573 18.3934 32.0421 18.3889 32.0269 18.3844C31.5107 18.2308 30.8858 18.0449 30.3957 17.7043C30.1314 17.5207 29.8837 17.2785 29.7042 16.95C29.5225 16.6177 29.4303 16.233 29.4303 15.8003C29.4303 14.9125 29.7341 14.2203 30.272 13.7753C30.6142 13.4922 31.018 13.3366 31.4303 13.2698V12.3061C31.4303 11.9442 31.6989 11.6509 32.0303 11.6509ZM32.0088 22.4748C32.0087 22.4748 32.0089 22.4748 32.0088 22.4748V22.4748Z" fill="white"/>
<path fill-rule="evenodd" clip-rule="evenodd" d="M28.0449 46.4014H41.1169C41.6692 46.4014 42.1169 45.9537 42.1169 45.4014V44.4073C42.1169 44.1139 42.094 43.8229 42.0491 43.5366H42.5612H44.0561C44.619 45.0432 45.1437 47.7851 41.6746 48.4464H41.5017L28.0449 46.4014Z" fill="#C7CED5"/>
<defs>
<linearGradient id="paint0_linear_4422_65934" x1="35.4021" y1="43.57" x2="42.9959" y2="31.1265" gradientUnits="userSpaceOnUse">
<stop stop-color="#DBE0E3"/>
<stop offset="0.0001" stop-color="#CDD2D5"/>
<stop offset="1" stop-color="#F1F3F4"/>
</linearGradient>
<linearGradient id="paint1_linear_4422_65934" x1="44" y1="44" x2="52.8648" y2="34.13" gradientUnits="userSpaceOnUse">
<stop stop-color="#D4D9DC"/>
<stop offset="1" stop-color="#F1F3F5"/>
</linearGradient>
<linearGradient id="paint2_linear_4422_65934" x1="112.5" y1="30.5" x2="48.4924" y2="-33.8453" gradientUnits="userSpaceOnUse">
<stop stop-color="white"/>
<stop offset="1" stop-color="#CAD1D6"/>
</linearGradient>
<linearGradient id="paint3_linear_4422_65934" x1="10.5237" y1="32.2568" x2="10.5237" y2="54.3174" gradientUnits="userSpaceOnUse">
<stop stop-color="#FFD36D"/>
<stop offset="1" stop-color="#FFB300"/>
</linearGradient>
<linearGradient id="paint4_linear_4422_65934" x1="14.3282" y1="0.276515" x2="54.6979" y2="31.5304" gradientUnits="userSpaceOnUse">
<stop stop-color="white"/>
<stop offset="1" stop-color="#CAD1D6"/>
</linearGradient>
<linearGradient id="paint5_linear_4422_65934" x1="32.0301" y1="9.65088" x2="32.0301" y2="26.3175" gradientUnits="userSpaceOnUse">
<stop stop-color="#FFD36D"/>
<stop offset="1" stop-color="#FFB300"/>
</linearGradient>
</defs>
</svg>
