<svg width="72" height="72" viewBox="0 0 72 72" fill="none" xmlns="http://www.w3.org/2000/svg">
<path d="M62.0141 36.0002C62.0141 50.3999 50.3408 62.0732 35.9411 62.0732C21.5414 62.0732 9.86816 50.3999 9.86816 36.0002C9.86816 21.6005 21.5414 9.92725 35.9411 9.92725C50.3408 9.92725 62.0141 21.6005 62.0141 36.0002Z" fill="url(#paint0_linear_4422_65940)"/>
<path d="M56.5665 51.8235C55.9129 52.0442 55.307 52.4006 54.6057 52.4911C53.9657 52.5747 53.3489 52.5487 52.7622 52.2526C52.2328 51.9853 51.9817 51.5247 52.125 50.9462C52.549 49.2017 52.6741 47.3975 52.4948 45.6108C52.3679 44.2208 52.5425 42.8116 52.271 41.4229C51.9026 39.5366 51.0879 38.8279 49.1681 38.7731C48.0451 38.7415 46.8989 38.8032 45.8223 38.4564C45.1522 38.2503 44.5389 37.8908 44.0306 37.4063C43.5223 36.9218 43.1327 36.3254 42.8926 35.664C42.5679 34.8223 42.8162 34.0053 43.2174 33.2499C43.5613 32.6029 43.9693 31.9901 44.3336 31.3527C44.6979 30.7152 45.065 30.0284 44.7579 29.2265C44.6911 29.0551 44.7743 28.8879 44.8548 28.7385C45.0885 28.2988 45.4144 27.9153 45.81 27.6144C45.9701 27.4883 46.158 27.4025 46.3578 27.3641C46.5577 27.3257 46.7637 27.3359 46.9589 27.3937C49.3318 27.9763 51.7497 27.9749 54.1704 27.9078C54.2727 27.9026 54.3735 27.8814 54.4692 27.8447C55.1119 27.6075 55.73 26.2902 55.6072 25.4293C55.4844 24.5684 54.9113 24.0735 53.9957 24.0036C53.0801 23.9337 52.1946 24.0913 51.2953 24.1612C50.2256 24.2449 49.1585 24.3545 48.0833 24.3203C47.2646 24.2942 47.1936 24.2435 47.0121 23.4607C46.7967 22.6334 46.7329 21.7736 46.8238 20.9233C46.9466 19.9829 47.3573 19.2468 48.1378 18.7121C49.2063 17.9787 50.4289 17.5949 51.6215 17.1425C52.1277 16.952 52.6749 16.8546 53.1142 16.5078C53.2261 16.585 53.334 16.6678 53.4376 16.7559C57.6977 20.7465 60.4062 25.5992 61.4801 31.3527C61.6479 32.252 61.753 33.1622 61.8813 34.067V38.3728C61.7011 38.6949 61.7544 39.0582 61.7121 39.4064C61.1953 43.5767 59.6817 47.5595 57.3006 51.0147C57.1641 51.2258 57.0277 51.4506 56.7834 51.563L56.6688 51.7083C56.6088 51.7083 56.5624 51.7317 56.5692 51.8057L56.5665 51.8235Z" fill="url(#paint1_linear_4422_65940)"/>
<path d="M12.2158 25.4179C12.4164 24.6831 12.8243 24.0445 13.1952 23.395C15.2168 19.7998 18.0655 16.7375 21.5056 14.4614L25.0551 15.6741C26.2914 16.0971 27.4974 15.7469 28.7062 15.5216C29.7337 15.3307 30.7474 15.0629 31.8023 15.052C32.6265 15.0437 33.3806 15.2483 33.9933 15.7949C35.0193 16.7246 36.3223 17.2915 37.7021 17.4086C37.923 17.4332 38.1411 17.4792 38.3531 17.5459C39.2103 17.8096 39.5592 18.2683 39.5619 19.1692C39.5496 20.1448 39.4326 21.1163 39.213 22.0669C39.0523 22.8291 38.5688 23.2892 37.7955 23.4403C37.257 23.5474 36.7268 23.6943 36.1856 23.7754C34.3738 24.05 32.8216 24.918 31.2927 25.8354C30.831 26.1052 30.4326 26.4711 30.1245 26.9083C29.8164 27.3454 29.6058 27.8436 29.507 28.3692C29.3326 29.2302 28.8037 29.7013 28.0139 29.9622C27.0523 30.2836 26.0304 30.3399 25.0414 30.5432C23.4507 30.8686 23.0729 31.5951 23.8051 33.0289C24.3051 34.0053 24.9342 34.9049 25.5386 35.8209C26.143 36.7369 27.0015 36.9044 27.9328 36.6929C30.4054 36.1299 32.6471 36.8715 34.8847 37.7312C36.2474 38.2544 37.5702 38.8642 38.7694 39.7102C38.9781 39.8585 39.1814 40.0246 39.3765 40.1853C40.4177 41.0189 40.7391 42.0613 40.4603 43.3783C40.0922 45.1252 39.2529 46.6015 38.1251 47.9488L36.8064 49.5254C35.6749 50.8715 34.9789 52.5295 34.8106 54.2798C34.6962 55.4314 34.3249 56.5427 33.724 57.5319C33.5744 57.7812 33.3955 58.0117 33.1911 58.2186C32.5619 58.8352 31.8669 58.8215 31.2515 58.187C30.665 57.5827 30.3532 56.8205 30.0716 56.0446C29.5221 54.5257 29.2941 52.9285 28.9479 51.3588C28.7341 50.3181 28.3922 49.3078 27.9301 48.3512C27.4768 47.4434 26.8861 46.6249 25.9988 46.1305C24.1526 45.1032 23.5908 43.4333 23.4947 41.4886C23.4548 40.6852 23.4576 39.8763 23.3573 39.0812C23.1224 37.3439 21.9795 36.2562 20.5784 35.3979C19.437 34.6989 18.2914 34.0163 17.2653 33.1484C14.8532 31.1062 13.2969 28.5079 12.2708 25.5634C12.2488 25.514 12.2323 25.4659 12.2158 25.4179Z" fill="url(#paint2_linear_4422_65940)"/>
<defs>
<linearGradient id="paint0_linear_4422_65940" x1="20.2499" y1="62.2504" x2="37.8749" y2="27.3754" gradientUnits="userSpaceOnUse">
<stop stop-color="#D6DCE0"/>
<stop offset="1" stop-color="white"/>
</linearGradient>
<linearGradient id="paint1_linear_4422_65940" x1="42.7432" y1="16.5078" x2="42.7432" y2="52.5325" gradientUnits="userSpaceOnUse">
<stop stop-color="#FFD36D"/>
<stop offset="1" stop-color="#FFB300"/>
</linearGradient>
<linearGradient id="paint2_linear_4422_65940" x1="12.2158" y1="14.4614" x2="12.2158" y2="58.6721" gradientUnits="userSpaceOnUse">
<stop stop-color="#FFD36D"/>
<stop offset="1" stop-color="#FFB300"/>
</linearGradient>
</defs>
</svg>
