<svg width="96" height="96" viewBox="0 0 96 96" fill="none" xmlns="http://www.w3.org/2000/svg">
<ellipse cx="48.3844" cy="83.6456" rx="26.0807" ry="1.2257" fill="url(#paint0_radial_4204_65775)"/>
<ellipse cx="48.3844" cy="83.6456" rx="26.0807" ry="1.2257" fill="url(#paint1_radial_4204_65775)"/>
<ellipse cx="48.3844" cy="85.5655" rx="26.0807" ry="1.2257" fill="url(#paint2_radial_4204_65775)"/>
<path d="M22.3096 85.5678V83.6479C22.3096 83.6479 23.9314 84.8866 48.5241 84.8866C73.1167 84.8866 74.4548 83.694 74.4548 83.694V85.5603C74.4548 85.5603 73.8842 86.8217 48.5241 86.791C23.1639 86.7603 22.3096 85.5678 22.3096 85.5678Z" fill="url(#paint3_linear_4204_65775)"/>
<g filter="url(#filter0_ii_4204_65775)">
<path d="M34.3214 12.1935C32.2007 12.1935 30.4814 10.0728 30.4814 12.1935V30.8272C30.4814 34.3926 32.1323 37.757 34.9521 39.9386L45.3538 46.734C46.2736 47.3349 46.2834 48.6792 45.3724 49.2934L35.3361 56.0607C32.5163 58.2424 30.8654 61.6068 30.8654 65.1721L30.5057 82.6301C30.4924 83.2754 31.0119 83.8058 31.6574 83.8058H65.1223C65.7659 83.8058 66.2847 83.2808 66.2736 82.6373C66.2175 79.3693 66.0517 70.056 65.9037 65.1713C65.9037 61.6065 64.2533 58.2424 61.434 56.0607L51.3995 49.2934C50.4887 48.6791 50.4984 47.335 51.4181 46.7341L61.818 39.9386C64.6373 37.7569 66.2877 34.3929 66.2877 30.828V12.1935C66.2877 10.0728 64.5684 12.1935 62.4477 12.1935H34.3214Z" fill="url(#paint4_linear_4204_65775)"/>
</g>
<path d="M50.2272 24.5004C48.7818 24.8132 47.3023 24.4374 45.9913 23.7532L44.3227 22.8825C40.18 20.9012 31.708 19.4139 31.708 26.7001V30.757C31.708 33.5834 33.1215 36.9906 35.4741 38.557L44.1943 44.4535C46.0436 45.704 47.2186 46.5804 47.3835 48.8068L47.9726 57.917C47.9804 58.0222 47.9217 58.4267 47.8564 58.5095C47.7663 58.6239 47.7125 58.7683 47.7125 58.9252C47.7125 59.2964 48.0135 59.5974 48.3847 59.5974C48.756 59.5974 49.0569 59.2964 49.0569 58.9252C49.0569 58.7452 48.9861 58.5816 48.8708 58.461C48.802 58.3889 48.7295 58.0213 48.7381 57.922L49.4392 48.7303C49.6295 46.5477 50.7906 45.7181 52.6017 44.4851L60.3977 39.1775C63.3125 37.2225 65.0614 33.1756 65.0614 29.6659V27.8175C65.0614 24.669 63.4099 21.9356 59.3606 22.1167C57.5408 22.1167 55.7613 22.7379 53.9125 23.3833C52.7225 23.7987 51.5038 24.2241 50.2272 24.5004Z" fill="url(#paint5_linear_4204_65775)"/>
<ellipse cx="54.6477" cy="28.7078" rx="10.3964" ry="5.27253" transform="rotate(-30 54.6477 28.7078)" fill="url(#paint6_radial_4204_65775)"/>
<ellipse cx="42.694" cy="28.4013" rx="11.1971" ry="5.67858" transform="rotate(26.4438 42.694 28.4013)" fill="url(#paint7_radial_4204_65775)"/>
<path d="M34.7591 68.5123C37.3981 69.2993 40.3719 67.961 42.4705 66.178C43.6833 65.1475 45.0777 64.2307 46.3701 63.6531C48.2539 62.8111 50.1458 63.9248 51.5868 65.4017C52.4793 66.3164 53.161 66.9594 53.6815 67.4503C53.8289 67.5893 53.9634 67.7161 54.086 67.8335C55.2964 68.9914 56.7632 70.3985 58.4324 70.2586C59.327 70.1836 60.1953 69.9187 60.9793 69.4815C62.8161 68.4572 65.0772 69.7851 65.0772 71.8882V80.416C65.0772 81.5226 64.1801 82.4197 63.0735 82.4197H34.4292C32.9447 82.4197 31.7412 81.2162 31.7412 79.7317V70.7616C31.7412 69.1909 33.254 68.0634 34.7591 68.5123Z" fill="url(#paint8_linear_4204_65775)"/>
<path d="M34.7591 68.5123C37.3981 69.2993 40.3719 67.961 42.4705 66.178C43.6833 65.1475 45.0777 64.2307 46.3701 63.6531C48.2539 62.8111 50.1458 63.9248 51.5868 65.4017C52.4793 66.3164 53.161 66.9594 53.6815 67.4503C53.8289 67.5893 53.9634 67.7161 54.086 67.8335C55.2964 68.9914 56.7632 70.3985 58.4324 70.2586C59.327 70.1836 60.1953 69.9187 60.9793 69.4815C62.8161 68.4572 65.0772 69.7851 65.0772 71.8882V80.416C65.0772 81.5226 64.1801 82.4197 63.0735 82.4197H34.4292C32.9447 82.4197 31.7412 81.2162 31.7412 79.7317V70.7616C31.7412 69.1909 33.254 68.0634 34.7591 68.5123Z" fill="url(#paint9_radial_4204_65775)"/>
<path d="M52.1482 82.0278C43.1241 74.7124 41.5883 67.58 44.4963 64.672C46.4024 63.0631 48.4551 62.8177 50.6977 64.672C51.8881 65.564 53.8273 68.0113 56.942 69.993C59.2237 71.4447 62.3877 67.3993 64.2186 70.3745C64.9902 73.6114 62.3774 81.7437 61.8074 82.3137C59.0806 82.498 52.1482 82.0278 52.1482 82.0278Z" fill="url(#paint10_linear_4204_65775)"/>
<path fill-rule="evenodd" clip-rule="evenodd" d="M72.2424 12.3936C72.2424 12.087 71.9938 11.8384 71.6871 11.8384C71.3805 11.8384 71.1319 12.087 71.1319 12.3936V37.0433C71.1319 38.0927 70.7129 39.1459 70.7129 40.1953C70.7129 40.2757 70.7155 40.3549 70.7207 40.4326C70.7797 41.3259 71.1319 42.2146 71.1319 43.1099C71.1319 43.4985 71.0716 43.884 70.9956 44.2652C70.8208 45.1416 70.7129 46.3485 70.7129 47.6809C70.7129 49.0133 70.8208 50.2202 70.9956 51.0967C71.0716 51.4778 71.1319 51.8633 71.1319 52.2519C71.1319 53.1472 70.7797 54.0359 70.7207 54.9292C70.7155 55.0069 70.7129 55.0861 70.7129 55.1665C70.7129 56.2159 71.1319 57.2691 71.1319 58.3185V82.968C71.1319 83.2747 71.3805 83.5233 71.6871 83.5233C71.9938 83.5233 72.2424 83.2747 72.2424 82.968V58.3185C72.2424 57.2691 72.6614 56.2159 72.6614 55.1665C72.6614 55.0861 72.6587 55.0069 72.6536 54.9292C72.5945 54.0359 72.2424 53.1472 72.2424 52.2519C72.2424 51.8632 72.3027 51.4777 72.3787 51.0966C72.5534 50.2201 72.6614 49.0132 72.6614 47.6809C72.6614 46.3486 72.5534 45.1417 72.3787 44.2652C72.3027 43.8841 72.2424 43.4986 72.2424 43.1099C72.2424 42.2146 72.5946 41.3259 72.6536 40.4325C72.6587 40.3548 72.6614 40.2756 72.6614 40.1953C72.6614 39.1459 72.2424 38.0927 72.2424 37.0433V12.3936Z" fill="url(#paint11_linear_4204_65775)"/>
<g filter="url(#filter1_i_4204_65775)">
<path d="M71.1267 13.6931C70.9778 13.6403 70.8711 13.4981 70.8711 13.3311V12.3996C70.8711 12.1875 71.043 12.0156 71.2551 12.0156H72.1182C72.3303 12.0156 72.5022 12.1875 72.5022 12.3996V13.3311C72.5022 13.4981 72.3955 13.6403 72.2466 13.6931C72.1516 13.5602 71.9366 13.4675 71.6866 13.4675C71.4367 13.4675 71.2217 13.5602 71.1267 13.6931Z" fill="url(#paint12_linear_4204_65775)"/>
</g>
<g filter="url(#filter2_i_4204_65775)">
<path d="M71.1347 82.2383C70.9852 82.2908 70.8779 82.4332 70.8779 82.6007V83.575C70.8779 83.5962 70.8951 83.6134 70.9163 83.6134H72.4584C72.4796 83.6134 72.4968 83.5962 72.4968 83.575V82.6007C72.4968 82.4332 72.3895 82.2908 72.24 82.2383C72.1442 82.3456 71.9328 82.4202 71.6874 82.4202C71.442 82.4202 71.2306 82.3456 71.1347 82.2383Z" fill="url(#paint13_linear_4204_65775)"/>
</g>
<path fill-rule="evenodd" clip-rule="evenodd" d="M25.2947 12.3933C25.2947 12.0868 25.0463 11.8384 24.7399 11.8384C24.4334 11.8384 24.185 12.0868 24.185 12.3933V37.0421C24.185 38.0918 23.7656 39.1455 23.7656 40.1952C23.7656 40.2763 23.7683 40.3561 23.7735 40.4345C23.833 41.3269 24.185 42.2146 24.185 43.109C24.185 43.4973 24.1247 43.8825 24.0487 44.2633C23.8737 45.14 23.7656 46.3476 23.7656 47.6809C23.7656 49.0141 23.8737 50.2217 24.0487 51.0984C24.1247 51.4792 24.185 51.8644 24.185 52.2527C24.185 53.1471 23.833 54.0349 23.7735 54.9273C23.7683 55.0056 23.7656 55.0854 23.7656 55.1665C23.7656 56.2162 24.185 57.2699 24.185 58.3196V82.9684C24.185 83.2749 24.4334 83.5233 24.7399 83.5233C25.0463 83.5233 25.2947 83.2749 25.2947 82.9684V58.3197C25.2947 57.2699 25.7141 56.2162 25.7141 55.1665C25.7141 55.0854 25.7114 55.0055 25.7062 54.9272C25.6467 54.0348 25.2947 53.1471 25.2947 52.2528C25.2947 51.8644 25.355 51.4793 25.431 51.0984C25.606 50.2218 25.7141 49.0142 25.7141 47.6809C25.7141 46.3475 25.606 45.1399 25.431 44.2633C25.355 43.8825 25.2947 43.4973 25.2947 43.109C25.2947 42.2146 25.6467 41.3269 25.7062 40.4346C25.7114 40.3562 25.7141 40.2763 25.7141 40.1952C25.7141 39.1455 25.2947 38.0918 25.2947 37.042V12.3933Z" fill="url(#paint14_linear_4204_65775)"/>
<g filter="url(#filter3_i_4204_65775)">
<path d="M24.1715 13.6941C24.0211 13.6421 23.9131 13.4992 23.9131 13.3311V12.3996C23.9131 12.1875 24.085 12.0156 24.2971 12.0156H25.1824C25.3945 12.0156 25.5664 12.1875 25.5664 12.3996V13.3311C25.5664 13.4992 25.4584 13.6421 25.308 13.6941C25.2121 13.5607 24.9937 13.4675 24.7398 13.4675C24.4858 13.4675 24.2674 13.5607 24.1715 13.6941Z" fill="url(#paint15_linear_4204_65775)"/>
</g>
<g filter="url(#filter4_i_4204_65775)">
<path d="M24.1882 82.2383C24.0388 82.2908 23.9316 82.4332 23.9316 82.6006V83.575C23.9316 83.5962 23.9488 83.6134 23.97 83.6134H25.5102C25.5314 83.6134 25.5486 83.5962 25.5486 83.575V82.6006C25.5486 82.4332 25.4414 82.2908 25.292 82.2383C25.1963 82.3456 24.9851 82.4201 24.7401 82.4201C24.4951 82.4201 24.284 82.3456 24.1882 82.2383Z" fill="url(#paint16_linear_4204_65775)"/>
</g>
<ellipse cx="48.3844" cy="10.5462" rx="26.0807" ry="0.997334" fill="url(#paint17_radial_4204_65775)"/>
<ellipse cx="48.3844" cy="10.5462" rx="26.0807" ry="0.997334" fill="url(#paint18_radial_4204_65775)"/>
<ellipse cx="48.3844" cy="12.1087" rx="26.0807" ry="0.997333" fill="url(#paint19_radial_4204_65775)"/>
<path d="M22.3096 12.1105V10.5483C22.3096 10.5483 23.9314 11.5562 48.5241 11.5562C73.1167 11.5562 74.4548 10.5858 74.4548 10.5858V12.1044C74.4548 12.1044 73.8842 13.1308 48.5241 13.1058C23.1639 13.0808 22.3096 12.1105 22.3096 12.1105Z" fill="url(#paint20_linear_4204_65775)"/>
<ellipse cx="48.3843" cy="10.1966" rx="2.8013" ry="0.351357" fill="url(#paint21_linear_4204_65775)"/>
<path d="M47.9584 8.79639C47.8524 8.79639 47.7664 8.88235 47.7664 8.98839C47.7664 9.47042 47.3824 9.85988 46.9021 9.90081C46.3416 9.94859 45.9814 10.0228 45.9814 10.1062C45.9814 10.2504 47.0572 10.3672 48.3843 10.3672C49.7113 10.3672 50.7871 10.2504 50.7871 10.1062C50.7871 10.0228 50.427 9.94858 49.8664 9.90081C49.3861 9.85987 49.0021 9.47042 49.0021 8.98839C49.0021 8.88235 48.9162 8.79639 48.8101 8.79639H47.9584Z" fill="url(#paint22_radial_4204_65775)"/>
<defs>
<filter id="filter0_ii_4204_65775" x="30.4814" y="11.251" width="40.8066" height="77.5547" filterUnits="userSpaceOnUse" color-interpolation-filters="sRGB">
<feFlood flood-opacity="0" result="BackgroundImageFix"/>
<feBlend mode="normal" in="SourceGraphic" in2="BackgroundImageFix" result="shape"/>
<feColorMatrix in="SourceAlpha" type="matrix" values="0 0 0 0 0 0 0 0 0 0 0 0 0 0 0 0 0 0 127 0" result="hardAlpha"/>
<feOffset dx="6"/>
<feGaussianBlur stdDeviation="1.5"/>
<feComposite in2="hardAlpha" operator="arithmetic" k2="-1" k3="1"/>
<feColorMatrix type="matrix" values="0 0 0 0 1 0 0 0 0 1 0 0 0 0 1 0 0 0 0.4 0"/>
<feBlend mode="normal" in2="shape" result="effect1_innerShadow_4204_65775"/>
<feColorMatrix in="SourceAlpha" type="matrix" values="0 0 0 0 0 0 0 0 0 0 0 0 0 0 0 0 0 0 127 0" result="hardAlpha"/>
<feOffset dx="19" dy="13"/>
<feGaussianBlur stdDeviation="2.5"/>
<feComposite in2="hardAlpha" operator="arithmetic" k2="-1" k3="1"/>
<feColorMatrix type="matrix" values="0 0 0 0 1 0 0 0 0 1 0 0 0 0 1 0 0 0 0.25 0"/>
<feBlend mode="normal" in2="effect1_innerShadow_4204_65775" result="effect2_innerShadow_4204_65775"/>
</filter>
<filter id="filter1_i_4204_65775" x="70.8711" y="12.0156" width="1.63086" height="1.77725" filterUnits="userSpaceOnUse" color-interpolation-filters="sRGB">
<feFlood flood-opacity="0" result="BackgroundImageFix"/>
<feBlend mode="normal" in="SourceGraphic" in2="BackgroundImageFix" result="shape"/>
<feColorMatrix in="SourceAlpha" type="matrix" values="0 0 0 0 0 0 0 0 0 0 0 0 0 0 0 0 0 0 127 0" result="hardAlpha"/>
<feOffset dy="0.2"/>
<feGaussianBlur stdDeviation="0.05"/>
<feComposite in2="hardAlpha" operator="arithmetic" k2="-1" k3="1"/>
<feColorMatrix type="matrix" values="0 0 0 0 0 0 0 0 0 0 0 0 0 0 0 0 0 0 0.25 0"/>
<feBlend mode="normal" in2="shape" result="effect1_innerShadow_4204_65775"/>
</filter>
<filter id="filter2_i_4204_65775" x="70.8779" y="82.2383" width="1.61914" height="1.575" filterUnits="userSpaceOnUse" color-interpolation-filters="sRGB">
<feFlood flood-opacity="0" result="BackgroundImageFix"/>
<feBlend mode="normal" in="SourceGraphic" in2="BackgroundImageFix" result="shape"/>
<feColorMatrix in="SourceAlpha" type="matrix" values="0 0 0 0 0 0 0 0 0 0 0 0 0 0 0 0 0 0 127 0" result="hardAlpha"/>
<feOffset dy="0.2"/>
<feGaussianBlur stdDeviation="0.25"/>
<feComposite in2="hardAlpha" operator="arithmetic" k2="-1" k3="1"/>
<feColorMatrix type="matrix" values="0 0 0 0 0 0 0 0 0 0 0 0 0 0 0 0 0 0 0.25 0"/>
<feBlend mode="normal" in2="shape" result="effect1_innerShadow_4204_65775"/>
</filter>
<filter id="filter3_i_4204_65775" x="23.9131" y="12.0156" width="1.65332" height="1.77822" filterUnits="userSpaceOnUse" color-interpolation-filters="sRGB">
<feFlood flood-opacity="0" result="BackgroundImageFix"/>
<feBlend mode="normal" in="SourceGraphic" in2="BackgroundImageFix" result="shape"/>
<feColorMatrix in="SourceAlpha" type="matrix" values="0 0 0 0 0 0 0 0 0 0 0 0 0 0 0 0 0 0 127 0" result="hardAlpha"/>
<feOffset dy="0.2"/>
<feGaussianBlur stdDeviation="0.05"/>
<feComposite in2="hardAlpha" operator="arithmetic" k2="-1" k3="1"/>
<feColorMatrix type="matrix" values="0 0 0 0 0 0 0 0 0 0 0 0 0 0 0 0 0 0 0.25 0"/>
<feBlend mode="normal" in2="shape" result="effect1_innerShadow_4204_65775"/>
</filter>
<filter id="filter4_i_4204_65775" x="23.9316" y="82.2383" width="1.61719" height="1.575" filterUnits="userSpaceOnUse" color-interpolation-filters="sRGB">
<feFlood flood-opacity="0" result="BackgroundImageFix"/>
<feBlend mode="normal" in="SourceGraphic" in2="BackgroundImageFix" result="shape"/>
<feColorMatrix in="SourceAlpha" type="matrix" values="0 0 0 0 0 0 0 0 0 0 0 0 0 0 0 0 0 0 127 0" result="hardAlpha"/>
<feOffset dy="0.2"/>
<feGaussianBlur stdDeviation="0.25"/>
<feComposite in2="hardAlpha" operator="arithmetic" k2="-1" k3="1"/>
<feColorMatrix type="matrix" values="0 0 0 0 0 0 0 0 0 0 0 0 0 0 0 0 0 0 0.25 0"/>
<feBlend mode="normal" in2="shape" result="effect1_innerShadow_4204_65775"/>
</filter>
<radialGradient id="paint0_radial_4204_65775" cx="0" cy="0" r="1" gradientUnits="userSpaceOnUse" gradientTransform="translate(48.3844 83.6456) rotate(90) scale(1.2257 26.0807)">
<stop stop-color="#C4C4C4"/>
<stop offset="1" stop-color="#C4C4C4" stop-opacity="0"/>
</radialGradient>
<radialGradient id="paint1_radial_4204_65775" cx="0" cy="0" r="1" gradientUnits="userSpaceOnUse" gradientTransform="translate(48.3844 87.827) rotate(-90) scale(6.4596 137.449)">
<stop stop-color="#F0F1F2"/>
<stop offset="1" stop-color="#DADEE1"/>
</radialGradient>
<radialGradient id="paint2_radial_4204_65775" cx="0" cy="0" r="1" gradientUnits="userSpaceOnUse" gradientTransform="translate(48.3844 89.747) rotate(-90) scale(6.45962 137.449)">
<stop stop-color="#C4C4C4"/>
<stop offset="1" stop-color="#C4C4C4" stop-opacity="0"/>
</radialGradient>
<linearGradient id="paint3_linear_4204_65775" x1="74.4548" y1="85.6911" x2="25.0149" y2="85.2198" gradientUnits="userSpaceOnUse">
<stop stop-color="#C9D0D5"/>
<stop offset="0.494792" stop-color="#F5F5F5"/>
<stop offset="1" stop-color="#EFF1F3"/>
</linearGradient>
<linearGradient id="paint4_linear_4204_65775" x1="63.5005" y1="96" x2="30.0005" y2="8.5" gradientUnits="userSpaceOnUse">
<stop stop-color="#F3F5F6"/>
<stop offset="1" stop-color="#C9D0D5"/>
</linearGradient>
<linearGradient id="paint5_linear_4204_65775" x1="60.4018" y1="42.4841" x2="20.326" y2="21.2588" gradientUnits="userSpaceOnUse">
<stop stop-color="#FFEFCA"/>
<stop offset="1" stop-color="#FEB814"/>
</linearGradient>
<radialGradient id="paint6_radial_4204_65775" cx="0" cy="0" r="1" gradientUnits="userSpaceOnUse" gradientTransform="translate(63.7156 28.4376) rotate(174.213) scale(19.4711 38.3935)">
<stop stop-color="#FFC744"/>
<stop offset="1" stop-color="#FFEEC5" stop-opacity="0"/>
</radialGradient>
<radialGradient id="paint7_radial_4204_65775" cx="0" cy="0" r="1" gradientUnits="userSpaceOnUse" gradientTransform="translate(33.6642 24.9101) rotate(23.5951) scale(18.3583 101.965)">
<stop stop-color="#FFEABA"/>
<stop offset="1" stop-color="#FFCA4E"/>
</radialGradient>
<linearGradient id="paint8_linear_4204_65775" x1="63.3974" y1="85.9616" x2="20.7097" y2="65.6596" gradientUnits="userSpaceOnUse">
<stop stop-color="#FFEEC6"/>
<stop offset="1" stop-color="#FEB814"/>
</linearGradient>
<radialGradient id="paint9_radial_4204_65775" cx="0" cy="0" r="1" gradientUnits="userSpaceOnUse" gradientTransform="translate(34.2143 64.7657) rotate(29.5424) scale(34.7945 60.8657)">
<stop stop-color="#FFEEC6" stop-opacity="0"/>
<stop offset="1" stop-color="#FEB814"/>
</radialGradient>
<linearGradient id="paint10_linear_4204_65775" x1="43.2333" y1="74.1668" x2="76.3394" y2="76.2153" gradientUnits="userSpaceOnUse">
<stop stop-color="#FEB814"/>
<stop offset="0.536458" stop-color="#FFD472" stop-opacity="0"/>
<stop offset="1" stop-color="#FFEDC3" stop-opacity="0"/>
</linearGradient>
<linearGradient id="paint11_linear_4204_65775" x1="68.1462" y1="51.4309" x2="75.2171" y2="51.4818" gradientUnits="userSpaceOnUse">
<stop stop-color="#FFB940"/>
<stop offset="0.526042" stop-color="#FFE38E"/>
<stop offset="1" stop-color="#FFB940"/>
</linearGradient>
<linearGradient id="paint12_linear_4204_65775" x1="72.5022" y1="12.8752" x2="70.8711" y2="12.8752" gradientUnits="userSpaceOnUse">
<stop offset="0.15625" stop-color="#DCE0E4"/>
<stop offset="0.520833" stop-color="#F5F5F6"/>
<stop offset="1" stop-color="#CCD3D8"/>
</linearGradient>
<linearGradient id="paint13_linear_4204_65775" x1="72.4968" y1="82.9088" x2="70.8779" y2="82.9088" gradientUnits="userSpaceOnUse">
<stop offset="0.15625" stop-color="#DCE0E4"/>
<stop offset="0.520833" stop-color="#F5F5F6"/>
<stop offset="1" stop-color="#CCD3D8"/>
</linearGradient>
<linearGradient id="paint14_linear_4204_65775" x1="21.1989" y1="51.4309" x2="28.2699" y2="51.4818" gradientUnits="userSpaceOnUse">
<stop stop-color="#FFB940"/>
<stop offset="0.526042" stop-color="#FFE38E"/>
<stop offset="1" stop-color="#FFB940"/>
</linearGradient>
<linearGradient id="paint15_linear_4204_65775" x1="25.5665" y1="12.8757" x2="23.9132" y2="12.8757" gradientUnits="userSpaceOnUse">
<stop offset="0.15625" stop-color="#DCE0E4"/>
<stop offset="0.520833" stop-color="#F5F5F6"/>
<stop offset="1" stop-color="#CCD3D8"/>
</linearGradient>
<linearGradient id="paint16_linear_4204_65775" x1="25.5486" y1="82.9088" x2="23.9317" y2="82.9088" gradientUnits="userSpaceOnUse">
<stop offset="0.15625" stop-color="#DCE0E4"/>
<stop offset="0.520833" stop-color="#F5F5F6"/>
<stop offset="1" stop-color="#CCD3D8"/>
</linearGradient>
<radialGradient id="paint17_radial_4204_65775" cx="0" cy="0" r="1" gradientUnits="userSpaceOnUse" gradientTransform="translate(48.3844 10.5462) rotate(90) scale(0.997334 26.0807)">
<stop stop-color="#C4C4C4"/>
<stop offset="1" stop-color="#C4C4C4" stop-opacity="0"/>
</radialGradient>
<radialGradient id="paint18_radial_4204_65775" cx="0" cy="0" r="1" gradientUnits="userSpaceOnUse" gradientTransform="translate(48.3844 13.9485) rotate(-90) scale(5.2561 137.449)">
<stop stop-color="#F0F1F2"/>
<stop offset="1" stop-color="#DADEE1"/>
</radialGradient>
<radialGradient id="paint19_radial_4204_65775" cx="0" cy="0" r="1" gradientUnits="userSpaceOnUse" gradientTransform="translate(48.3844 15.511) rotate(-90) scale(5.25609 137.449)">
<stop stop-color="#C4C4C4"/>
<stop offset="1" stop-color="#C4C4C4" stop-opacity="0"/>
</radialGradient>
<linearGradient id="paint20_linear_4204_65775" x1="74.4548" y1="12.2108" x2="25.0172" y2="11.6316" gradientUnits="userSpaceOnUse">
<stop stop-color="#C9D0D5"/>
<stop offset="0.494792" stop-color="#F5F5F5"/>
<stop offset="1" stop-color="#EFF1F3"/>
</linearGradient>
<linearGradient id="paint21_linear_4204_65775" x1="48.3843" y1="11.2865" x2="48.3843" y2="9.66434" gradientUnits="userSpaceOnUse">
<stop stop-color="#FFB940"/>
<stop offset="1" stop-color="#FFE48F"/>
</linearGradient>
<radialGradient id="paint22_radial_4204_65775" cx="0" cy="0" r="1" gradientUnits="userSpaceOnUse" gradientTransform="translate(48.3843 8.86642) rotate(90.0002) scale(1.50078 2.07852)">
<stop stop-color="#FFDA70"/>
<stop offset="1" stop-color="#FFB83F"/>
</radialGradient>
</defs>
</svg>
