<svg width="96" height="96" viewBox="0 0 96 96" fill="none" xmlns="http://www.w3.org/2000/svg">
<g clip-path="url(#clip0_4204_65780)">
<path d="M70.6435 19.9999C73.2459 20.3057 75.6934 21.415 77.6562 23.1784C79.619 24.9418 81.0026 27.2744 81.6207 29.8618C81.7644 30.4553 81.874 31.058 81.9998 31.657V49.3262C81.8561 49.4395 81.8866 49.613 81.8489 49.7646C81.3386 51.8392 80.1544 53.3733 78.2246 54.2389C77.7574 54.449 77.6675 54.6992 77.6693 55.1521C77.6801 61.5185 77.655 67.8849 77.6945 74.2513C77.6945 75.5681 77.301 76.4995 76.0773 76.9907H62.1893C60.971 76.4721 60.5936 75.5187 60.6134 74.2166C60.6673 70.7266 60.6386 67.2347 60.6242 63.7447C60.6147 63.5443 60.6504 63.3444 60.7286 63.1602C60.8068 62.976 60.9253 62.8124 61.0752 62.6818C63.1757 60.6583 64.3293 58.1709 64.3617 55.2178C64.3976 51.8648 64.5 48.5026 64.3203 45.1605C64.0185 39.5447 61.4453 35.1415 56.9082 31.9346C56.5057 31.6515 56.3692 31.4013 56.4572 30.8845C57.5353 24.9582 61.8227 20.7833 67.7057 19.9907" fill="url(#paint0_linear_4204_65780)"/>
<path d="M48.4363 33.1055C53.7263 33.7684 57.5105 36.5243 59.5374 41.6397C60.0857 43.0653 60.3566 44.5854 60.3352 46.1159C60.3352 49.0379 60.3568 51.96 60.3352 54.882C60.3082 57.7201 58.9732 59.7344 56.4468 60.9087C56.0443 61.0914 56.0083 61.3361 56.0083 61.6977C56.0083 65.9182 55.9832 70.1406 56.0299 74.3611C56.0443 75.6724 55.6076 76.5527 54.3786 77.0001H40.6325C39.4052 76.5581 38.9218 75.676 38.9847 74.3629C39.0494 72.9731 39.0081 71.5797 38.9847 70.1862C38.9768 70.0302 39.0052 69.8744 39.0677 69.7316C39.1301 69.5888 39.2248 69.463 39.3441 69.3644C40.3602 68.4414 41.183 67.3199 41.7633 66.0667C42.3437 64.8135 42.6698 63.4543 42.7222 62.0703C42.9181 58.3337 42.5695 54.6903 40.76 51.3208C39.4501 48.836 37.5618 46.7149 35.2598 45.1425C34.8843 44.885 34.7207 44.6713 34.798 44.1654C35.6084 38.3578 40.6253 33.573 46.395 33.1657C46.4957 33.1657 46.5981 33.1456 46.7706 33.1292" fill="url(#paint1_linear_4204_65780)"/>
<path d="M26.7538 46.2839C27.5192 46.4264 28.1553 46.5122 28.7752 46.662C34.5252 48.0536 38.4784 53.0156 38.6904 59.1026C38.7317 60.3098 38.8144 61.5315 38.5844 62.7241C38.1639 64.9047 36.9564 66.5063 34.9583 67.4322C34.4947 67.6459 34.3491 67.8961 34.3563 68.402C34.3869 70.3415 34.3222 72.2847 34.3851 74.2223C34.4264 75.5263 34.0257 76.4833 32.811 77.0001H18.9302C17.6993 76.5107 17.2645 75.5829 17.313 74.2607C17.3759 72.2518 17.313 70.2429 17.3363 68.2431C17.3363 67.8523 17.2465 67.6386 16.8566 67.487C16.0643 67.1602 15.3517 66.6616 14.7686 66.026C13.8073 65.0325 13.3311 63.7961 13.0059 62.4794V57.9612C13.137 57.3676 13.2574 56.7704 13.3994 56.1787C14.0267 53.6391 15.3928 51.3508 17.3193 49.6124C19.2458 47.8739 21.6432 46.7662 24.1986 46.4337C24.4058 46.4077 24.6092 46.3562 24.8041 46.2803" fill="url(#paint2_linear_4204_65780)"/>
<circle cx="47" cy="26" r="6" fill="url(#paint3_linear_4204_65780)"/>
<circle cx="25" cy="39" r="6" fill="url(#paint4_linear_4204_65780)"/>
</g>
<circle cx="69" cy="12" r="6" fill="url(#paint5_linear_4204_65780)"/>
<defs>
<linearGradient id="paint0_linear_4204_65780" x1="69.2157" y1="19.9907" x2="69.2157" y2="76.9907" gradientUnits="userSpaceOnUse">
<stop stop-color="#D3D8DC"/>
<stop offset="1" stop-color="#F2F3F5"/>
</linearGradient>
<linearGradient id="paint1_linear_4204_65780" x1="47.562" y1="33.1055" x2="47.562" y2="77.0001" gradientUnits="userSpaceOnUse">
<stop stop-color="#D3D8DC"/>
<stop offset="1" stop-color="#F2F3F5"/>
</linearGradient>
<linearGradient id="paint2_linear_4204_65780" x1="25.8726" y1="46.2803" x2="25.8726" y2="77.0001" gradientUnits="userSpaceOnUse">
<stop stop-color="#D3D8DC"/>
<stop offset="1" stop-color="#F2F3F5"/>
</linearGradient>
<linearGradient id="paint3_linear_4204_65780" x1="47" y1="20" x2="47" y2="32" gradientUnits="userSpaceOnUse">
<stop stop-color="#FFD36D"/>
<stop offset="1" stop-color="#FFB300"/>
</linearGradient>
<linearGradient id="paint4_linear_4204_65780" x1="25" y1="33" x2="25" y2="45" gradientUnits="userSpaceOnUse">
<stop stop-color="#FFD36D"/>
<stop offset="1" stop-color="#FFB300"/>
</linearGradient>
<linearGradient id="paint5_linear_4204_65780" x1="69" y1="6" x2="69" y2="18" gradientUnits="userSpaceOnUse">
<stop stop-color="#FFD36D"/>
<stop offset="1" stop-color="#FFB300"/>
</linearGradient>
<clipPath id="clip0_4204_65780">
<rect width="69" height="57" fill="white" transform="translate(13 20)"/>
</clipPath>
</defs>
</svg>
