<?xml version="1.0" standalone="no"?>
<!DOCTYPE svg PUBLIC "-//W3C//DTD SVG 1.1//EN" "http://www.w3.org/Graphics/SVG/1.1/DTD/svg11.dtd" >
<svg xmlns="http://www.w3.org/2000/svg" xmlns:xlink="http://www.w3.org/1999/xlink" version="1.1">
<metadata>
Created by FontForge 20201107 at Tue Mar  8 04:35:03 2022
 By 
Copyright (c) 2022 by Kamyab Jafari. All rights reserved.
</metadata>
<defs>
<font id="RokhFaNum-Regular" horiz-adv-x="0" >
  <font-face 
    font-family="RokhFaNum Normal"
    font-weight="400"
    font-stretch="normal"
    units-per-em="1000"
    panose-1="0 0 5 0 0 0 0 0 0 0"
    ascent="800"
    descent="-200"
    x-height="410"
    cap-height="566"
    bbox="-165 -516 1624 2333"
    underline-thickness="95"
    underline-position="-479"
    unicode-range="U+0020-FEFF"
  />
<missing-glyph horiz-adv-x="290" 
 />
    <glyph glyph-name="uniFC43" unicode="&#xfedf;&#xfef0;" horiz-adv-x="845" arabic-form="isolated" 
d="M152 163l-24 -107q-9 -37 -9 -70q0 -71 42 -108t122 -37h48q68 0 111 23t61 66l-8 70h-201l6 54h279q61 0 98.5 22t51.5 62l-4 433l44 12v-423q0 -45 -22.5 -81.5t-65 -57.5t-100.5 -21h-41q1 -6 2 -14.5t1 -13.5q1 -6 1 -18q0 -41 -22.5 -79t-70 -63t-119.5 -25h-47
q-100 0 -154.5 50.5t-54.5 140.5q0 41 10 84l24 101h42z" />
    <glyph glyph-name="uniFC86" unicode="&#xfee0;&#xfef0;" horiz-adv-x="933" arabic-form="final" 
d="M152 163l-24 -107q-9 -37 -9 -70q0 -71 42 -108t122 -37h48q68 0 111 23t61 66l-8 70h-201l6 54h279q61 0 98.5 22t51.5 62l-4 433l44 12v-406q0 -55 32 -89t90 -34h43q9 0 15 -8t6 -19t-6 -19t-15 -8h-42q-53 0 -88.5 26t-48.5 72q-18 -45 -63 -71.5t-111 -26.5h-41
q1 -6 2 -14.5t1 -13.5q1 -6 1 -18q0 -41 -22.5 -79t-70 -63t-119.5 -25h-47q-100 0 -154.5 50.5t-54.5 140.5q0 41 10 84l24 101h42z" />
    <glyph glyph-name="uniFC88" unicode="&#xfee4;&#xfe8e;" horiz-adv-x="826" arabic-form="final" 
d="M120 42q-44 42 -44 121v408l43 12v-404q0 -125 121 -125h46q48 0 79.5 23t32.5 66l-1 207q0 35 14 60l22 36l159 -15q76 -7 117.5 -54.5t41.5 -121.5q0 -25 -4 -46l-27 -155h106q9 0 15.5 -8t6.5 -19t-6.5 -19t-15.5 -8h-292q-41 0 -72 18t-47 51q-7 -17 -21 -31
q-38 -38 -108 -38h-46q-76 0 -120 42zM702 209q4 21 4 43q0 118 -137 130l-125 12l-1 -16q-2 -12 -2 -36v-195q0 -45 26 -69t68 -24h142z" />
    <glyph glyph-name="uniFDF2" unicode="&#x627;&#xfedf;&#xfee0;&#xfeea;" horiz-adv-x="1387" arabic-form="isolated" 
d="M1260 571l43 12v-580l-43 -12v580zM728 845l29 6v-157h-29v151zM680 520h-20q-18 0 -30.5 12.5t-12.5 30.5v85l26 6v-101h40q22 0 34.5 14t12.5 35v34h27v-37q0 -12 -6 -30l75 -20l-23 122l27 14l20 -111q1 -4 1 -10q0 -15 -11 -29l-17 -19l-88 25q-24 -21 -55 -21z
M119 34l-26 29l-13 93q-4 24 -4 51q0 152 159 192l132 32v62l45 12v-337q0 -56 30 -85t82 -29h44q61 0 98 22t52 62l-4 303l44 12v-288q0 -52 31 -81.5t82 -29.5h42q61 0 98.5 22t51.5 62l-4 433l44 12v-423q0 -45 -22.5 -81.5t-65 -57.5t-100.5 -21h-43q-48 0 -83.5 23.5
t-49.5 65.5q-19 -41 -63 -65t-106 -24h-46q-70 0 -115 43l-17 -31h-225q-29 0 -48 22zM368 154v223l-127 -31q-58 -15 -89.5 -48.5t-31.5 -96.5q0 -18 3 -39l13 -96h255q-23 38 -23 88z" />
    <glyph glyph-name="uniFEF5" unicode="&#xfedf;&#xfe82;" horiz-adv-x="439" arabic-form="isolated" 
d="M76 57v433l43 12v-392v-42v-41l64 14q49 11 78.5 25.5t46.5 36.5q9 12 15 24l-4 447l44 12v-431q0 -66 -38 -106t-123 -59l-72 -16l-24 19q-30 23 -30 64zM-27 574q0 26 15.5 41.5t41.5 15.5h194l-14 -44h-194v-47l-43 16v18z" />
    <glyph glyph-name="uniFEF6" unicode="&#xfee0;&#xfe82;" horiz-adv-x="529" arabic-form="final" 
d="M119 502v-397v-41v-37l64 14q57 12 90 31t50 55l-4 447l44 12v-409q0 -55 32 -89t90 -34h42q11 0 17.5 -7.5t6.5 -19.5q0 -11 -7 -19t-17 -8h-41q-52 0 -87.5 24.5t-48.5 67.5q-15 -38 -50.5 -63t-97.5 -39l-72 -16l-24 19q-30 23 -30 64v433zM-27 574q0 26 15.5 41.5
t41.5 15.5h194l-14 -44h-194v-47l-43 16v18z" />
    <glyph glyph-name="uniFEF7" unicode="&#xfedf;&#xfe84;" horiz-adv-x="439" arabic-form="isolated" 
d="M76 57v433l43 12v-392v-42v-41l64 14q49 11 78.5 25.5t46.5 36.5q9 12 15 24l-4 447l44 12v-431q0 -66 -38 -106t-123 -59l-72 -16l-24 19q-30 23 -30 64zM217 611v-40h-216v40h64l-9 47q-2 8 -2 24q0 40 24.5 66t67.5 30l32 5l5 -39l-26 -4q-34 -5 -50 -18.5t-16 -39.5
q0 -5 2 -21l9 -50h115z" />
    <glyph glyph-name="uniFEF8" unicode="&#xfee0;&#xfe84;" horiz-adv-x="529" arabic-form="final" 
d="M119 502v-397v-41v-37l64 14q57 12 90 31t50 55l-4 447l44 12v-409q0 -55 32 -89t90 -34h42q11 0 17.5 -7.5t6.5 -19.5q0 -11 -7 -19t-17 -8h-41q-52 0 -87.5 24.5t-48.5 67.5q-15 -38 -50.5 -63t-97.5 -39l-72 -16l-24 19q-30 23 -30 64v433zM217 611v-40h-216v40h64
l-9 47q-2 8 -2 24q0 40 24.5 66t67.5 30l32 5l5 -39l-26 -4q-34 -5 -50 -18.5t-16 -39.5q0 -5 2 -21l9 -50h115z" />
    <glyph glyph-name="uniFEF9" unicode="&#xfedf;&#xfe88;" horiz-adv-x="439" arabic-form="isolated" 
d="M76 57v433l43 12v-392v-42v-41l64 14q49 11 78.5 25.5t46.5 36.5q9 12 15 24l-4 447l44 12v-431q0 -66 -38 -106t-123 -59l-72 -16l-24 19q-30 23 -30 64zM270 -241v-40h-216v40h64l-9 47q-2 8 -2 24q0 40 24.5 66t67.5 30l32 5l5 -39l-26 -4q-34 -5 -50 -18.5t-16 -39.5
q0 -5 2 -21l9 -50h115z" />
    <glyph glyph-name="uniFEFA" unicode="&#xfee0;&#xfe88;" horiz-adv-x="529" arabic-form="final" 
d="M119 502v-397v-41v-37l64 14q57 12 90 31t50 55l-4 447l44 12v-409q0 -55 32 -89t90 -34h42q11 0 17.5 -7.5t6.5 -19.5q0 -11 -7 -19t-17 -8h-41q-52 0 -87.5 24.5t-48.5 67.5q-15 -38 -50.5 -63t-97.5 -39l-72 -16l-24 19q-30 23 -30 64v433zM270 -241v-40h-216v40h64
l-9 47q-2 8 -2 24q0 40 24.5 66t67.5 30l32 5l5 -39l-26 -4q-34 -5 -50 -18.5t-16 -39.5q0 -5 2 -21l9 -50h115z" />
    <glyph glyph-name="uniFEFB" unicode="&#xfedf;&#xfe8e;" horiz-adv-x="439" arabic-form="isolated" 
d="M76 57v433l43 12v-392v-42v-41l64 14q49 11 78.5 25.5t46.5 36.5q9 12 15 24l-4 447l44 12v-431q0 -66 -38 -106t-123 -59l-72 -16l-24 19q-30 23 -30 64z" />
    <glyph glyph-name="uniFEFC" unicode="&#xfee0;&#xfe8e;" horiz-adv-x="529" arabic-form="final" 
d="M119 502v-397v-41v-37l64 14q57 12 90 31t50 55l-4 447l44 12v-409q0 -55 32 -89t90 -34h42q11 0 17.5 -7.5t6.5 -19.5q0 -11 -7 -19t-17 -8h-41q-52 0 -87.5 24.5t-48.5 67.5q-15 -38 -50.5 -63t-97.5 -39l-72 -16l-24 19q-30 23 -30 64v433z" />
    <glyph glyph-name="uniFEDFFB51" unicode="&#xfedf;&#xfb51;" horiz-adv-x="439" 
d="M76 57v433l43 12v-392v-42v-41l64 14q49 11 78.5 25.5t46.5 36.5q9 12 15 24l-4 447l44 12v-431q0 -66 -38 -106t-123 -59l-72 -16l-24 19q-30 23 -30 64zM58 801l28 7v-32l121 29q4 1 10 1q15 0 26 -9t13 -25l10 -67q1 -6 1 -18q0 -43 -30 -70t-82 -26l-85 1l-12 -40
l-26 11l27 83zM244 671l-17 105l-141 -34v-70q0 -28 -5 -47h80q62 0 83 46z" />
    <glyph glyph-name="uniFEE0FB51" unicode="&#xfee0;&#xfb51;" horiz-adv-x="529" 
d="M119 502v-397v-41v-37l64 14q57 12 90 31t50 55l-4 447l44 12v-409q0 -55 32 -89t90 -34h42q11 0 17.5 -7.5t6.5 -19.5q0 -11 -7 -19t-17 -8h-41q-52 0 -87.5 24.5t-48.5 67.5q-15 -38 -50.5 -63t-97.5 -39l-72 -16l-24 19q-30 23 -30 64v433zM58 801l28 7v-32l121 29
q4 1 10 1q15 0 26 -9t13 -25l10 -67q1 -6 1 -18q0 -43 -30 -70t-82 -26l-85 1l-12 -40l-26 11l27 83zM244 671l-17 105l-141 -34v-70q0 -28 -5 -47h80q62 0 83 46z" />
    <glyph glyph-name="uniFE91FE8E" unicode="&#xfe91;&#xfe8e;" horiz-adv-x="592" 
d="M120 42q-44 42 -44 121v408l43 12v-404q0 -125 121 -125h86q59 0 96.5 22t52.5 63l-58 288l46 20l48 -243q5 -27 5 -45q0 -72 -49.5 -115.5t-138.5 -43.5h-88q-76 0 -120 42zM252 -135h77v-72h-77v72z" />
    <glyph glyph-name="uniFE92FE8E" unicode="&#xfe92;&#xfe8e;" horiz-adv-x="656" 
d="M120 42q-44 42 -44 121v408l43 12v-404q0 -125 121 -125h215q-19 18 -30 45t-11 60v213l43 9v-214q0 -50 30 -81.5t76 -31.5h94q9 0 15.5 -7.5t6.5 -19.5q0 -11 -6.5 -19t-15.5 -8h-91q-53 0 -91 32l-12 -14q-9 -10 -19 -14t-28 -4h-176q-76 0 -120 42zM264 -135h77v-72
h-77v72z" />
    <glyph glyph-name="uniFB58FE8E" unicode="&#xfb58;&#xfe8e;" horiz-adv-x="592" 
d="M120 42q-44 42 -44 121v408l43 12v-404q0 -125 121 -125h86q59 0 96.5 22t52.5 63l-58 288l46 20l48 -243q5 -27 5 -45q0 -72 -49.5 -115.5t-138.5 -43.5h-88q-76 0 -120 42zM413 -135v-55h-209v55h209zM344 -306h-71v68h71v-68z" />
    <glyph glyph-name="uniFB59FE8E" unicode="&#xfb59;&#xfe8e;" horiz-adv-x="656" 
d="M120 42q-44 42 -44 121v408l43 12v-404q0 -125 121 -125h215q-19 18 -30 45t-11 60v213l43 9v-214q0 -50 30 -81.5t76 -31.5h94q9 0 15.5 -7.5t6.5 -19.5q0 -11 -6.5 -19t-15.5 -8h-91q-53 0 -91 32l-12 -14q-9 -10 -19 -14t-28 -4h-176q-76 0 -120 42zM396 -135v-55
h-209v55h209zM327 -306h-71v68h71v-68z" />
    <glyph glyph-name="uniFE97FE8E" unicode="&#xfe97;&#xfe8e;" horiz-adv-x="592" 
d="M120 42q-44 42 -44 121v408l43 12v-404q0 -125 121 -125h86q59 0 96.5 22t52.5 63l-58 288l46 20l48 -243q5 -27 5 -45q0 -72 -49.5 -115.5t-138.5 -43.5h-88q-76 0 -120 42zM292 561h208v-55h-208v55z" />
    <glyph glyph-name="uniFE98FE8E" unicode="&#xfe98;&#xfe8e;" horiz-adv-x="656" 
d="M120 42q-44 42 -44 121v408l43 12v-404q0 -125 121 -125h215q-19 18 -30 45t-11 60v213l43 9v-214q0 -50 30 -81.5t76 -31.5h94q9 0 15.5 -7.5t6.5 -19.5q0 -11 -6.5 -19t-15.5 -8h-91q-53 0 -91 32l-12 -14q-9 -10 -19 -14t-28 -4h-176q-76 0 -120 42zM299 541h208v-55
h-208v55z" />
    <glyph glyph-name="uniFE9BFE8E" unicode="&#xfe9b;&#xfe8e;" horiz-adv-x="592" 
d="M120 42q-44 42 -44 121v408l43 12v-404q0 -125 121 -125h86q59 0 96.5 22t52.5 63l-58 288l46 20l48 -243q5 -27 5 -45q0 -72 -49.5 -115.5t-138.5 -43.5h-88q-76 0 -120 42zM341 632v68h71v-68h-71zM272 584h209v-55h-209v55z" />
    <glyph glyph-name="uniFE9CFE8E" unicode="&#xfe9c;&#xfe8e;" horiz-adv-x="656" 
d="M120 42q-44 42 -44 121v408l43 12v-404q0 -125 121 -125h215q-19 18 -30 45t-11 60v213l43 9v-214q0 -50 30 -81.5t76 -31.5h94q9 0 15.5 -7.5t6.5 -19.5q0 -11 -6.5 -19t-15.5 -8h-91q-53 0 -91 32l-12 -14q-9 -10 -19 -14t-28 -4h-176q-76 0 -120 42zM385 595v68h71
v-68h-71zM316 547h209v-55h-209v55z" />
    <glyph glyph-name="uniFE9FFE8E" unicode="&#xfe9f;&#xfe8e;" horiz-adv-x="802" 
d="M120 42q-44 42 -44 121v408l43 12v-404q0 -125 121 -125h355l-28 205q-9 68 -44 101t-90 33q-18 0 -37 -3l-123 -21l5 54l116 20q21 3 40 3q72 0 120 -43.5t58 -122.5l32 -226h82l-15 -54h-471q-76 0 -120 42zM361 -135h77v-72h-77v72z" />
    <glyph glyph-name="uniFEA0FE8E" unicode="&#xfea0;&#xfe8e;" horiz-adv-x="724" 
d="M120 42q-44 42 -44 121v408l43 12v-404q0 -125 121 -125h355l-28 205q-9 68 -44 101t-90 33q-18 0 -37 -3l-123 -21l5 54l116 20q21 3 40 3q72 0 120 -43.5t58 -122.5l32 -226h81q9 0 15.5 -7.5t6.5 -19.5q0 -11 -6.5 -19t-15.5 -8h-485q-76 0 -120 42zM361 -135h77v-72
h-77v72z" />
    <glyph glyph-name="uniFB7CFE8E" unicode="&#xfb7c;&#xfe8e;" horiz-adv-x="802" 
d="M120 42q-44 42 -44 121v408l43 12v-404q0 -125 121 -125h355l-28 205q-9 68 -44 101t-90 33q-18 0 -37 -3l-123 -21l5 54l116 20q21 3 40 3q72 0 120 -43.5t58 -122.5l32 -226h82l-15 -54h-471q-76 0 -120 42zM510 -113v-55h-209v55h209zM441 -284h-71v68h71v-68z" />
    <glyph glyph-name="uniFB7DFE8E" unicode="&#xfb7d;&#xfe8e;" horiz-adv-x="724" 
d="M120 42q-44 42 -44 121v408l43 12v-404q0 -125 121 -125h355l-28 205q-9 68 -44 101t-90 33q-18 0 -37 -3l-123 -21l5 54l116 20q21 3 40 3q72 0 120 -43.5t58 -122.5l32 -226h81q9 0 15.5 -7.5t6.5 -19.5q0 -11 -6.5 -19t-15.5 -8h-485q-76 0 -120 42zM510 -113v-55
h-209v55h209zM441 -284h-71v68h71v-68z" />
    <glyph glyph-name="uniFEA3FE8E" unicode="&#xfea3;&#xfe8e;" horiz-adv-x="802" 
d="M120 42q-44 42 -44 121v408l43 12v-404q0 -125 121 -125h355l-28 205q-9 68 -44 101t-90 33q-18 0 -37 -3l-123 -21l5 54l116 20q21 3 40 3q72 0 120 -43.5t58 -122.5l32 -226h82l-15 -54h-471q-76 0 -120 42z" />
    <glyph glyph-name="uniFEA4FE8E" unicode="&#xfea4;&#xfe8e;" horiz-adv-x="724" 
d="M120 42q-44 42 -44 121v408l43 12v-404q0 -125 121 -125h355l-28 205q-9 68 -44 101t-90 33q-18 0 -37 -3l-123 -21l5 54l116 20q21 3 40 3q72 0 120 -43.5t58 -122.5l32 -226h81q9 0 15.5 -7.5t6.5 -19.5q0 -11 -6.5 -19t-15.5 -8h-485q-76 0 -120 42z" />
    <glyph glyph-name="uniFEA7FE8E" unicode="&#xfea7;&#xfe8e;" horiz-adv-x="802" 
d="M120 42q-44 42 -44 121v408l43 12v-404q0 -125 121 -125h355l-28 205q-9 68 -44 101t-90 33q-18 0 -37 -3l-123 -21l5 54l116 20q21 3 40 3q72 0 120 -43.5t58 -122.5l32 -226h82l-15 -54h-471q-76 0 -120 42zM378 611h77v-72h-77v72z" />
    <glyph glyph-name="uniFEA8FE8E" unicode="&#xfea8;&#xfe8e;" horiz-adv-x="724" 
d="M120 42q-44 42 -44 121v408l43 12v-404q0 -125 121 -125h355l-28 205q-9 68 -44 101t-90 33q-18 0 -37 -3l-123 -21l5 54l116 20q21 3 40 3q72 0 120 -43.5t58 -122.5l32 -226h81q9 0 15.5 -7.5t6.5 -19.5q0 -11 -6.5 -19t-15.5 -8h-485q-76 0 -120 42zM378 611h77v-72
h-77v72z" />
    <glyph glyph-name="uniFEB3FE8E" unicode="&#xfeb3;&#xfe8e;" horiz-adv-x="1018" 
d="M571 0h-331q-76 0 -120 42t-44 121v408l43 12v-404q0 -125 121 -125h129v279l44 10v-289h165q38 0 61.5 25t23.5 64v125h44v-134q0 -22 -9 -47l203 -52l-68 367l45 22l62 -349q2 -10 2 -16q0 -23 -19 -45l-28 -33l-222 59q-38 -40 -102 -40z" />
    <glyph glyph-name="uniFEB4FE8E" unicode="&#xfeb4;&#xfe8e;" horiz-adv-x="1097" 
d="M571 0h-331q-76 0 -120 42t-44 121v408l43 12v-404q0 -125 121 -125h129v280l44 10v-290h166q38 0 61 25t23 64v125h44v-133q0 -27 -9 -48l204 -52l-64 351l43 23l44 -247q10 -50 43 -79t90 -29h37q9 0 15 -7.5t6 -19.5q0 -11 -6 -19t-15 -8h-34q-90 0 -132 64l4 -34
q-2 -3 -3.5 -6.5t-4.5 -7.5l-30 -35l-222 59q-38 -40 -102 -40z" />
    <glyph glyph-name="uniFEB7FE8E" unicode="&#xfeb7;&#xfe8e;" horiz-adv-x="1018" 
d="M571 0h-331q-76 0 -120 42t-44 121v408l43 12v-404q0 -125 121 -125h129v279l44 10v-289h165q38 0 61.5 25t23.5 64v125h44v-134q0 -22 -9 -47l203 -52l-68 367l45 22l62 -349q2 -10 2 -16q0 -23 -19 -45l-28 -33l-222 59q-38 -40 -102 -40zM614 505v68h71v-68h-71z
M545 457h209v-55h-209v55z" />
    <glyph glyph-name="uniFEB8FE8E" unicode="&#xfeb8;&#xfe8e;" horiz-adv-x="1097" 
d="M571 0h-331q-76 0 -120 42t-44 121v408l43 12v-404q0 -125 121 -125h129v280l44 10v-290h166q38 0 61 25t23 64v125h44v-133q0 -27 -9 -48l204 -52l-64 351l43 23l44 -247q10 -50 43 -79t90 -29h37q9 0 15 -7.5t6 -19.5q0 -11 -6 -19t-15 -8h-34q-90 0 -132 64l4 -34
q-2 -3 -3.5 -6.5t-4.5 -7.5l-30 -35l-222 59q-38 -40 -102 -40zM614 505v68h71v-68h-71zM545 457h209v-55h-209v55z" />
    <glyph glyph-name="uniFEBBFE8E" unicode="&#xfebb;&#xfe8e;" horiz-adv-x="997" 
d="M120 42q-44 42 -44 121v408l43 12v-404q0 -125 121 -125h50q45 0 73.5 21t31.5 51l-2 272l43 10v-145l115 134q69 81 145 81q33 0 71 -15l51 -20q32 -13 49.5 -31t22.5 -49l29 -162q3 -18 3 -34q0 -48 -24 -86t-69 -59.5t-106 -21.5h-184q-39 0 -73 16.5t-53 44.5
q-18 -29 -49.5 -45t-75.5 -16h-48q-76 0 -120 42zM832 77.5q39 23.5 53 66.5l-42 238l-83 31q-39 14 -67 14q-32 0 -60 -16t-57 -50l-145 -169l3 -56q4 -39 33.5 -60.5t71.5 -21.5h194q60 0 99 23.5z" />
    <glyph glyph-name="uniFEBCFE8E" unicode="&#xfebc;&#xfe8e;" horiz-adv-x="1081" 
d="M120 42q-44 42 -44 121v408l43 12v-404q0 -125 121 -125h50q45 0 73.5 21t31.5 51l-2 272l43 10v-145l115 134q69 81 145 81q33 0 71 -15l51 -20q32 -13 49.5 -31t22.5 -49l38 -213q17 -95 119 -95h35q9 0 15.5 -7.5t6.5 -19.5q0 -11 -6.5 -19t-15.5 -8h-31
q-60 0 -94 26.5t-51 72.5q-20 -45 -67 -72.5t-116 -27.5h-184q-39 0 -73 16.5t-53 44.5q-18 -29 -49.5 -45t-75.5 -16h-48q-76 0 -120 42zM832 77.5q39 23.5 53 66.5l-42 238l-83 31q-39 14 -67 14q-32 0 -60 -16t-57 -50l-145 -169l3 -56q4 -39 33.5 -60.5t71.5 -21.5h194
q60 0 99 23.5z" />
    <glyph glyph-name="uniFEBFFE8E" unicode="&#xfebf;&#xfe8e;" horiz-adv-x="997" 
d="M120 42q-44 42 -44 121v408l43 12v-404q0 -125 121 -125h50q45 0 73.5 21t31.5 51l-2 272l43 10v-145l115 134q69 81 145 81q33 0 71 -15l51 -20q32 -13 49.5 -31t22.5 -49l29 -162q3 -18 3 -34q0 -48 -24 -86t-69 -59.5t-106 -21.5h-184q-39 0 -73 16.5t-53 44.5
q-18 -29 -49.5 -45t-75.5 -16h-48q-76 0 -120 42zM832 77.5q39 23.5 53 66.5l-42 238l-83 31q-39 14 -67 14q-32 0 -60 -16t-57 -50l-145 -169l3 -56q4 -39 33.5 -60.5t71.5 -21.5h194q60 0 99 23.5zM644 645h77v-72h-77v72z" />
    <glyph glyph-name="uniFEC0FE8E" unicode="&#xfec0;&#xfe8e;" horiz-adv-x="1081" 
d="M120 42q-44 42 -44 121v408l43 12v-404q0 -125 121 -125h50q45 0 73.5 21t31.5 51l-2 272l43 10v-145l115 134q69 81 145 81q33 0 71 -15l51 -20q32 -13 49.5 -31t22.5 -49l38 -213q17 -95 119 -95h35q9 0 15.5 -7.5t6.5 -19.5q0 -11 -6.5 -19t-15.5 -8h-31
q-60 0 -94 26.5t-51 72.5q-20 -45 -67 -72.5t-116 -27.5h-184q-39 0 -73 16.5t-53 44.5q-18 -29 -49.5 -45t-75.5 -16h-48q-76 0 -120 42zM832 77.5q39 23.5 53 66.5l-42 238l-83 31q-39 14 -67 14q-32 0 -60 -16t-57 -50l-145 -169l3 -56q4 -39 33.5 -60.5t71.5 -21.5h194
q60 0 99 23.5zM644 645h77v-72h-77v72z" />
    <glyph glyph-name="uniFEC3FE8E" unicode="&#xfec3;&#xfe8e;" horiz-adv-x="946" 
d="M120 42q-44 42 -44 121v408l43 12v-404q0 -125 121 -125h103l-2 533l43 10v-309v-16v-9l115 134q69 81 145 81q34 0 71 -15l52 -21q32 -13 49 -31t23 -48l28 -163q3 -18 3 -34q0 -47 -23 -84.5t-68 -59.5t-107 -22h-432q-76 0 -120 42zM781 77.5q39 23.5 52 66.5l-41 238
l-84 31q-39 14 -67 14q-32 0 -60 -16t-57 -50l-140 -163l1 -144h297q60 0 99 23.5z" />
    <glyph glyph-name="uniFEC4FE8E" unicode="&#xfec4;&#xfe8e;" horiz-adv-x="1029" 
d="M120 42q-44 42 -44 121v408l43 12v-404q0 -125 121 -125h103l-2 533l43 10v-309v-16v-9l115 134q69 81 145 81q34 0 71 -15l52 -21q32 -13 49 -31t23 -48l38 -214q7 -42 35 -68.5t83 -26.5h35q9 0 15.5 -7.5t6.5 -19.5q0 -11 -6.5 -19t-15.5 -8h-31q-60 0 -94 26.5
t-51 72.5q-20 -45 -66.5 -72t-115.5 -27h-432q-76 0 -120 42zM781 77.5q39 23.5 52 66.5l-41 238l-84 31q-39 14 -67 14q-32 0 -60 -16t-57 -50l-140 -163l1 -144h297q60 0 99 23.5z" />
    <glyph glyph-name="uniFEC7FE8E" unicode="&#xfec7;&#xfe8e;" horiz-adv-x="946" 
d="M120 42q-44 42 -44 121v408l43 12v-404q0 -125 121 -125h103l-2 533l43 10v-309v-16v-9l115 134q69 81 145 81q34 0 71 -15l52 -21q32 -13 49 -31t23 -48l28 -163q3 -18 3 -34q0 -47 -23 -84.5t-68 -59.5t-107 -22h-432q-76 0 -120 42zM781 77.5q39 23.5 52 66.5l-41 238
l-84 31q-39 14 -67 14q-32 0 -60 -16t-57 -50l-140 -163l1 -144h297q60 0 99 23.5zM591 645h77v-72h-77v72z" />
    <glyph glyph-name="uniFEC8FE8E" unicode="&#xfec8;&#xfe8e;" horiz-adv-x="1029" 
d="M120 42q-44 42 -44 121v408l43 12v-404q0 -125 121 -125h103l-2 533l43 10v-309v-16v-9l115 134q69 81 145 81q34 0 71 -15l52 -21q32 -13 49 -31t23 -48l38 -214q7 -42 35 -68.5t83 -26.5h35q9 0 15.5 -7.5t6.5 -19.5q0 -11 -6.5 -19t-15.5 -8h-31q-60 0 -94 26.5
t-51 72.5q-20 -45 -66.5 -72t-115.5 -27h-432q-76 0 -120 42zM781 77.5q39 23.5 52 66.5l-41 238l-84 31q-39 14 -67 14q-32 0 -60 -16t-57 -50l-140 -163l1 -144h297q60 0 99 23.5zM591 645h77v-72h-77v72z" />
    <glyph glyph-name="uniFECBFE8E" unicode="&#xfecb;&#xfe8e;" horiz-adv-x="740" 
d="M120 42q-44 42 -44 121v408l43 12v-404q0 -125 121 -125h91l-33 141q-8 37 -8 66q0 71 34 121.5t88 68.5q17 5 28 5q13 0 40 -9l57 -21l-9 -49l-90 33q-14 -6 -28 -15q-36 -21 -56 -54t-20 -78q0 -23 6 -52l35 -157h289l-12 -54h-412q-76 0 -120 42z" />
    <glyph glyph-name="uniFECCFE8E" unicode="&#xfecc;&#xfe8e;" horiz-adv-x="746" 
d="M120 42q-44 42 -44 121v408l43 12v-404q0 -125 121 -125h128q-28 23 -35 61l-54 243l15 32l15 29l203 24q8 1 24 1q65 0 105.5 -40t40.5 -100q0 -29 -11 -62l-65 -188h141q9 0 15.5 -8t6.5 -19t-6.5 -19t-15.5 -8h-278q-44 0 -77 25l-7 -8q-9 -10 -18.5 -13.5t-27.5 -3.5
h-99q-76 0 -120 42zM626 247q9 27 9 50q0 43 -28 69.5t-76 26.5q-13 0 -20 -1l-190 -23l52 -233q8 -38 33.5 -60t61.5 -22h91z" />
    <glyph glyph-name="uniFECFFE8E" unicode="&#xfecf;&#xfe8e;" horiz-adv-x="740" 
d="M120 42q-44 42 -44 121v408l43 12v-404q0 -125 121 -125h91l-33 141q-8 37 -8 66q0 71 34 121.5t88 68.5q17 5 28 5q13 0 40 -9l57 -21l-9 -49l-90 33q-14 -6 -28 -15q-36 -21 -56 -54t-20 -78q0 -23 6 -52l35 -157h289l-12 -54h-412q-76 0 -120 42zM372 620h77v-72h-77
v72z" />
    <glyph glyph-name="uniFED0FE8E" unicode="&#xfed0;&#xfe8e;" horiz-adv-x="746" 
d="M120 42q-44 42 -44 121v408l43 12v-404q0 -125 121 -125h128q-28 23 -35 61l-54 243l15 32l15 29l203 24q8 1 24 1q65 0 105.5 -40t40.5 -100q0 -29 -11 -62l-65 -188h141q9 0 15.5 -8t6.5 -19t-6.5 -19t-15.5 -8h-278q-44 0 -77 25l-7 -8q-9 -10 -18.5 -13.5t-27.5 -3.5
h-99q-76 0 -120 42zM626 247q9 27 9 50q0 43 -28 69.5t-76 26.5q-13 0 -20 -1l-190 -23l52 -233q8 -38 33.5 -60t61.5 -22h91zM421 615h77v-72h-77v72z" />
    <glyph glyph-name="uniFED3FE8E" unicode="&#xfed3;&#xfe8e;" horiz-adv-x="689" 
d="M120 42q-44 42 -44 121v408l43 12v-404q0 -125 121 -125h228q35 0 61.5 11.5t37.5 31.5v51h-30h-52h-131q-27 0 -47 16.5t-24 44.5l-16 105q-3 23 -3 42q0 68 36 112t106 58l160 34l23 -19q11 -9 17.5 -22.5t6.5 -28.5v-339q0 -151 -161 -151h-212q-76 0 -120 42z
M570 510l-154 -32q-54 -11 -80 -40.5t-26 -80.5q0 -16 3 -36l18 -119h239v308zM376 702h77v-72h-77v72z" />
    <glyph glyph-name="uniFED4FE8E" unicode="&#xfed4;&#xfe8e;" horiz-adv-x="791" 
d="M120 42q-44 42 -44 121v408l43 12v-404q0 -125 121 -125h105q-18 17 -28.5 40.5t-10.5 50.5q0 19 4 35l44 215q5 31 26 51l27 24l127 -43q69 -24 99.5 -69t26.5 -118l-10 -186h142q9 0 15 -7.5t6 -19.5q0 -11 -6 -19t-15 -8h-337q-50 0 -84 25l-8 -8q-9 -9 -18.5 -13
t-26.5 -4h-78q-76 0 -120 42zM616 234q3 58 -19 89t-76 50l-121 41l-45 -232q-3 -13 -3 -26q0 -45 28.5 -73.5t74.5 -28.5h151zM377 635h77v-72h-77v72z" />
    <glyph glyph-name="uniFED3FEE0FEE0FEEA" unicode="&#xfed3;&#xfee0;&#xfee0;&#xfeea;" horiz-adv-x="1685" 
d="M715 845l29 6v-157h-29v151zM1434 699h77v-72h-77v72zM667 520h-20q-18 0 -30.5 12.5t-12.5 30.5v85l25 6v-101h41q22 0 34 14t12 35v34h28v-37q0 -12 -6 -30l75 -20l-24 122l27 14l21 -111q1 -3 1 -9q0 -14 -11 -30l-17 -19l-89 25q-23 -21 -54 -21zM445.5 11
q-29.5 11 -50.5 32l-17 -31h-225q-30 0 -49 22l-25 29l-14 93q-4 24 -4 51q0 152 160 192l132 32v62l45 12v-337q0 -56 30 -85t82 -29h45q61 0 98.5 22t51.5 62l-3 303l44 12v-288q0 -52 31 -81.5t82 -29.5h42q61 0 98.5 22t51.5 62l-4 433l44 12v-418q0 -52 31 -81.5
t82 -29.5h274q34 0 61 11.5t39 31.5v51h-24h-43h-146q-27 0 -47 17t-24 44l-17 105q-3 21 -3 42q0 67 36.5 111.5t106.5 58.5l160 34l22 -19q12 -9 18.5 -22.5t6.5 -28.5v-339q0 -151 -162 -151h-257q-48 0 -83 24t-49 65q-20 -41 -63.5 -65t-106.5 -24h-43
q-48 0 -83.5 23.5t-49.5 65.5q-19 -41 -63 -65t-107 -24h-47q-35 0 -64.5 11zM1580 510l-154 -32q-54 -11 -79.5 -41t-25.5 -80q0 -16 3 -36l17 -119h239v308zM354 154v223l-128 -31q-58 -15 -89 -48t-31 -96q0 -19 3 -40l13 -96h255q-23 35 -23 88z" />
    <glyph glyph-name="uniFED7FE8E" unicode="&#xfed7;&#xfe8e;" horiz-adv-x="689" 
d="M120 42q-44 42 -44 121v408l43 12v-404q0 -125 121 -125h228q35 0 61.5 11.5t37.5 31.5v51h-30h-52h-131q-27 0 -47 16.5t-24 44.5l-16 105q-3 23 -3 42q0 68 36 112t106 58l160 34l23 -19q11 -9 17.5 -22.5t6.5 -28.5v-339q0 -151 -161 -151h-212q-76 0 -120 42z
M570 510l-154 -32q-54 -11 -80 -40.5t-26 -80.5q0 -16 3 -36l18 -119h239v308zM318 685h208v-55h-208v55z" />
    <glyph glyph-name="uniFED8FE8E" unicode="&#xfed8;&#xfe8e;" horiz-adv-x="791" 
d="M120 42q-44 42 -44 121v408l43 12v-404q0 -125 121 -125h105q-18 17 -28.5 40.5t-10.5 50.5q0 19 4 35l44 215q5 31 26 51l27 24l127 -43q69 -24 99.5 -69t26.5 -118l-10 -186h142q9 0 15 -7.5t6 -19.5q0 -11 -6 -19t-15 -8h-337q-50 0 -84 25l-8 -8q-9 -9 -18.5 -13
t-26.5 -4h-78q-76 0 -120 42zM616 234q3 58 -19 89t-76 50l-121 41l-45 -232q-3 -13 -3 -26q0 -45 28.5 -73.5t74.5 -28.5h151zM334 603h208v-55h-208v55z" />
    <glyph glyph-name="uniFB90FE8E" unicode="&#xfb90;&#xfe8e;" horiz-adv-x="691" 
d="M120 42q-44 42 -44 121v408l43 12v-404q0 -125 121 -125h187q61 0 99.5 23t51.5 65l-17 88q-11 53 -45 81.5t-88 28.5h-175l-34 74l205 207l20 -44l-183 -187h159q74 0 121 -37t61 -101l12 -55q4 -17 4 -38q0 -45 -23 -81.5t-65.5 -57t-100.5 -20.5h-189q-76 0 -120 42z
" />
    <glyph glyph-name="uniFB91FE8E" unicode="&#xfb91;&#xfe8e;" horiz-adv-x="765" 
d="M108 42q-44 42 -44 121v408l44 12v-404q0 -125 120 -125h359l-6 28l-25 142q-10 56 -46 86t-92 30h-173l-34 74l205 207l21 -44l-183 -187h158q74 0 123.5 -39t61.5 -105l24 -128q7 -28 28 -46t60 -18h63q9 0 15.5 -8t6.5 -19t-6.5 -19t-15.5 -8h-63q-59 0 -91 37
l-11 -14q-12 -14 -22 -18.5t-31 -4.5h-326q-76 0 -120 42z" />
    <glyph glyph-name="uniFB94FE8E" unicode="&#xfb94;&#xfe8e;" horiz-adv-x="691" 
d="M181 496l128 129l17 -35l-129 -128zM120 42q-44 42 -44 121v408l43 12v-404q0 -125 121 -125h187q61 0 99.5 23t51.5 65l-17 88q-11 53 -45 81.5t-88 28.5h-175l-34 74l205 207l20 -44l-183 -187h159q74 0 121 -37t61 -101l12 -55q4 -17 4 -38q0 -45 -23 -81.5t-65.5 -57
t-100.5 -20.5h-189q-76 0 -120 42z" />
    <glyph glyph-name="uniFB95FE8E" unicode="&#xfb95;&#xfe8e;" horiz-adv-x="765" 
d="M174 496l128 129l17 -35l-128 -128zM108 42q-44 42 -44 121v408l44 12v-404q0 -125 120 -125h359l-6 28l-25 142q-10 56 -46 86t-92 30h-173l-34 74l205 207l21 -44l-183 -187h158q74 0 123.5 -39t61.5 -105l24 -128q7 -28 28 -46t60 -18h63q9 0 15.5 -8t6.5 -19
t-6.5 -19t-15.5 -8h-63q-59 0 -91 37l-11 -14q-12 -14 -22 -18.5t-31 -4.5h-326q-76 0 -120 42z" />
    <glyph glyph-name="uniFEE0FEDE" unicode="&#xfee0;&#xfede;" horiz-adv-x="987" 
d="M128.5 -144.5q-52.5 47.5 -52.5 134.5q0 32 7 64l23 130h43l-24 -137q-5 -22 -5 -50q0 -65 39 -100t113 -35h35q60 0 101 18t62 50l-3 641l43 12v-418q0 -52 31 -81.5t83 -29.5h35q53 0 88.5 22t50.5 62l-4 433l44 12v-418q0 -52 31 -81.5t82 -29.5h37q9 0 15.5 -8
t6.5 -19t-6.5 -19t-15.5 -8h-36q-48 0 -83.5 23.5t-49.5 65.5q-19 -40 -61 -64.5t-97 -24.5h-37q-37 0 -66.5 15t-47.5 44v-107q0 -31 -21 -64.5t-66.5 -56.5t-113.5 -23h-36q-92 0 -144.5 47.5z" />
    <glyph glyph-name="uniFEE0FEE0" unicode="&#xfee0;&#xfee0;" horiz-adv-x="708" 
d="M-16.5 8q-6.5 8 -6.5 19q0 12 6.5 19.5t15.5 7.5h42q61 0 98 22t51 62l-3 433l44 12v-418q0 -52 31 -81.5t82 -29.5h36q53 0 88.5 22t49.5 62l-3 433l43 12v-418q0 -52 31 -81.5t83 -29.5h36q9 0 15.5 -8t6.5 -19t-6.5 -19t-15.5 -8h-36q-48 0 -83 24t-49 65
q-20 -41 -62 -65t-96 -24h-37q-48 0 -83.5 23.5t-49.5 65.5q-19 -41 -63 -65t-106 -24h-44q-9 0 -15.5 8z" />
    <glyph glyph-name="uniFEDFFBFD" unicode="&#xfedf;&#xfbfd;" horiz-adv-x="845" 
d="M152 163l-24 -107q-9 -37 -9 -70q0 -71 42 -108t122 -37h48q68 0 111 23t61 66l-8 70h-201l6 54h279q61 0 98.5 22t51.5 62l-4 433l44 12v-423q0 -45 -22.5 -81.5t-65 -57.5t-100.5 -21h-41q1 -6 2 -14.5t1 -13.5q1 -6 1 -18q0 -41 -22.5 -79t-70 -63t-119.5 -25h-47
q-100 0 -154.5 50.5t-54.5 140.5q0 41 10 84l24 101h42z" />
    <glyph glyph-name="uniFEE0FBFD" unicode="&#xfee0;&#xfbfd;" horiz-adv-x="933" 
d="M152 163l-24 -107q-9 -37 -9 -70q0 -71 42 -108t122 -37h48q68 0 111 23t61 66l-8 70h-201l6 54h279q61 0 98.5 22t51.5 62l-4 433l44 12v-406q0 -55 32 -89t90 -34h43q9 0 15 -8t6 -19t-6 -19t-15 -8h-42q-53 0 -88.5 26t-48.5 72q-18 -45 -63 -71.5t-111 -26.5h-41
q1 -6 2 -14.5t1 -13.5q1 -6 1 -18q0 -41 -22.5 -79t-70 -63t-119.5 -25h-47q-100 0 -154.5 50.5t-54.5 140.5q0 41 10 84l24 101h42z" />
    <glyph glyph-name="uniFEE3FE8E" unicode="&#xfee3;&#xfe8e;" horiz-adv-x="835" 
d="M411.5 42q-10.5 5 -17.5 16q-19 -28 -52.5 -43t-71.5 -15h-30q-76 0 -120 42t-44 121v408l43 12v-404q0 -125 121 -125h37q80 0 104 86l67 221q6 21 13.5 35t21.5 27l24 22l94 -25q65 -18 103.5 -69t43.5 -122l12 -167q1 -37 -30 -64l-23 -19l-268 55q-17 3 -27.5 8z
M671 317q-28 39 -78 52l-84 23l-10 -18q-7 -13 -14 -34l-73 -246l305 -62l-14 191q-4 55 -32 94z" />
    <glyph glyph-name="uniFEE3FBFD" unicode="&#xfee3;&#xfbfd;" horiz-adv-x="1072" 
d="M114.5 -165q-52.5 48 -52.5 136q0 29 6 62l27 151h43l-28 -160q-5 -28 -5 -48q0 -65 40 -100t115 -35h56q68 0 111 23t61 66l-8 70h-201l6 54h228q40 0 66 20.5t39 65.5l72 240q8 29 27 48l20 19l100 -27q65 -18 103.5 -69t43.5 -122l12 -167q1 -38 -29 -64l-24 -19
l-268 55q-18 4 -27.5 9t-17.5 15q-21 -33 -73 -47q-10 -4 -32 -8l3 -31q1 -6 1 -18q0 -41 -22.5 -79t-70 -63t-119.5 -25h-57q-93 0 -145.5 48zM907.5 317q-28.5 40 -77.5 53l-92 24l-90 -300l305 -63l-13 192q-4 54 -32.5 94z" />
    <glyph glyph-name="uniFEE4FBFD" unicode="&#xfee4;&#xfbfd;" horiz-adv-x="1057" 
d="M114.5 -165q-52.5 48 -52.5 136q0 29 6 62l27 151h43l-28 -160q-5 -28 -5 -48q0 -65 40 -100t115 -35h56q68 0 111 23t61 66l-8 70h-201l6 54h232q48 0 79.5 23t32.5 66l-1 223q0 23 12 45l21 35l162 -15q76 -7 117.5 -54t41.5 -121q0 -26 -4 -47l-26 -155h106
q9 0 15.5 -8t6.5 -19t-6.5 -19t-15.5 -8h-292q-42 0 -73 18t-46 51q-8 -17 -21 -29q-25 -28 -66 -34q-20 -5 -35 -5q2 -10 2.5 -17t0.5 -12q1 -6 1 -18q0 -41 -22.5 -79t-70 -63t-119.5 -25h-57q-93 0 -145.5 48zM934 209q4 30 4 42q0 118 -137 131l-129 12v-247
q0 -45 26 -69t68 -24h142z" />
    <glyph glyph-name="uniFEE7FE8E" unicode="&#xfee7;&#xfe8e;" horiz-adv-x="592" 
d="M120 42q-44 42 -44 121v408l43 12v-404q0 -125 121 -125h86q59 0 96.5 22t52.5 63l-58 288l46 20l48 -243q5 -27 5 -45q0 -72 -49.5 -115.5t-138.5 -43.5h-88q-76 0 -120 42zM343 608h77v-72h-77v72z" />
    <glyph glyph-name="uniFEE8FE8E" unicode="&#xfee8;&#xfe8e;" horiz-adv-x="656" 
d="M120 42q-44 42 -44 121v408l43 12v-404q0 -125 121 -125h215q-19 18 -30 45t-11 60v213l43 9v-214q0 -50 30 -81.5t76 -31.5h94q9 0 15.5 -7.5t6.5 -19.5q0 -11 -6.5 -19t-15.5 -8h-91q-53 0 -91 32l-12 -14q-9 -10 -19 -14t-28 -4h-176q-76 0 -120 42zM373 575h77v-72
h-77v72z" />
    <glyph glyph-name="uniFEEBFE8E" unicode="&#xfeeb;&#xfe8e;" horiz-adv-x="950" 
d="M458 0h-218q-76 0 -120 42t-44 121v408l43 12v-404q0 -125 121 -125h83l22 248q6 70 48 103t113 27l71 -6l15 39l159 -80q40 -20 62 -54.5t30 -84.5l30 -178q1 -5 1 -14q0 -31 -19 -51l-26 -30l-262 63q-42 -36 -109 -36zM779.5 293.5q-15.5 23.5 -39.5 35.5l-137 70
l12 -240q3 -43 -16 -76l237 -58l-36 214q-5 31 -20.5 54.5zM547 82.5q29 28.5 26 83.5l-11 209l-63 7q-7 1 -20 1q-83 0 -90 -88l-20 -241h93q56 0 85 28.5z" />
    <glyph glyph-name="uniFEECFE8E" unicode="&#xfeec;&#xfe8e;" horiz-adv-x="762" 
d="M371 -165q-33 38 -33 95v71l-98 -1q-76 0 -120 42t-44 121v408l43 12v-404q0 -125 121 -125h98v259q0 26 20 48l33 32h148q37 0 72 -14.5t57.5 -44.5t22.5 -75q0 -18 -5 -43l-36 -162h112q9 0 15.5 -8t6.5 -19t-6.5 -19t-15.5 -8h-114l-4 -182q0 -21 -15 -39l-27 -32
l-140 35q-58 15 -91 53zM639 206q4 17 4 37q0 49 -30 75.5t-75 26.5h-156v-291h225zM382 0v-64q0 -40 22.5 -67t62.5 -37l133 -33l3 201h-221z" />
    <glyph glyph-name="uniFEF3FE8E" unicode="&#xfef3;&#xfe8e;" horiz-adv-x="592" 
d="M120 42q-44 42 -44 121v408l43 12v-404q0 -125 121 -125h86q59 0 96.5 22t52.5 63l-58 288l46 20l48 -243q5 -27 5 -45q0 -72 -49.5 -115.5t-138.5 -43.5h-88q-76 0 -120 42zM162 -136h208v-55h-208v55z" />
    <glyph glyph-name="uniFEF4FE8E" unicode="&#xfef4;&#xfe8e;" horiz-adv-x="656" 
d="M120 42q-44 42 -44 121v408l43 12v-404q0 -125 121 -125h215q-19 18 -30 45t-11 60v213l43 9v-214q0 -50 30 -81.5t76 -31.5h94q9 0 15.5 -7.5t6.5 -19.5q0 -11 -6.5 -19t-15.5 -8h-91q-53 0 -91 32l-12 -14q-9 -10 -19 -14t-28 -4h-176q-76 0 -120 42zM196 -135h208v-55
h-208v55z" />
    <glyph glyph-name="uniFBFEFE8E" unicode="&#xfbfe;&#xfe8e;" horiz-adv-x="592" 
d="M120 42q-44 42 -44 121v408l43 12v-404q0 -125 121 -125h86q59 0 96.5 22t52.5 63l-58 288l46 20l48 -243q5 -27 5 -45q0 -72 -49.5 -115.5t-138.5 -43.5h-88q-76 0 -120 42zM215 -135h208v-55h-208v55z" />
    <glyph glyph-name="uniFBFFFE8E" unicode="&#xfbff;&#xfe8e;" horiz-adv-x="656" 
d="M120 42q-44 42 -44 121v408l43 12v-404q0 -125 121 -125h215q-19 18 -30 45t-11 60v213l43 9v-214q0 -50 30 -81.5t76 -31.5h94q9 0 15.5 -7.5t6.5 -19.5q0 -11 -6.5 -19t-15.5 -8h-91q-53 0 -91 32l-12 -14q-9 -10 -19 -14t-28 -4h-176q-76 0 -120 42zM221 -135h208v-55
h-208v55z" />
    <glyph glyph-name="uni066E.init" unicode="&#x66e;" horiz-adv-x="346" 
d="M-16.5 8q-6.5 8 -6.5 19q0 12 6.5 19.5t15.5 7.5h81q60 0 97.5 22t51.5 63l-57 288l45 20l49 -243q4 -20 4 -44q0 -73 -49.5 -116.5t-138.5 -43.5h-83q-9 0 -15.5 8z" />
    <glyph glyph-name="uni066E.medi" unicode="&#x66e;" horiz-adv-x="408" 
d="M-16.5 46.5q6.5 7.5 15.5 7.5h209q-20 18 -31 45t-11 60v213l43 9v-214q0 -50 30 -81.5t76 -31.5h94q9 0 15.5 -7.5t6.5 -19.5q0 -11 -6.5 -19t-15.5 -8h-91q-53 0 -91 32l-13 -16q-10 -9 -19.5 -12.5t-25.5 -3.5h-170q-9 0 -15.5 8t-6.5 19q0 12 6.5 19.5z" />
    <glyph glyph-name="uni066E.fina" unicode="&#x66e;" horiz-adv-x="804" 
d="M128 47q-52 47 -52 130q0 32 7 64l25 112h43l-24 -111q-7 -31 -7 -60q0 -63 39 -95.5t114 -32.5h321v319l45 9v-328h166q9 0 15 -8t6 -19t-6 -19t-15 -8h-531q-94 0 -146 47z" />
    <glyph glyph-name="uni066F.fina" unicode="&#x66f;" horiz-adv-x="731" 
d="M138 -141.5q-54 50.5 -54 140.5q0 41 10 84l24 101h42l-23 -106q-9 -39 -9 -71q0 -71 41.5 -108t120.5 -37h118q61 0 103 20t63 57v61h-211q-28 0 -48 16.5t-24 44.5l-22 145q-3 20 -3 39q0 68 37.5 113.5t107.5 60.5l160 33l27 -23q19 -16 19 -40v-335h115
q9 0 15.5 -7.5t6.5 -19.5q0 -11 -6.5 -19t-15.5 -8h-115q0 -19 -1 -29q-4 -69 -56 -116t-150 -47h-117q-101 0 -155 50.5zM574 401l-155 -32q-54 -11 -80 -41.5t-26 -80.5q0 -21 2 -33l24 -160h235v347z" />
    <glyph glyph-name="uni067C.init" unicode="&#x67c;" horiz-adv-x="346" 
d="M239 592v-55h-209v55h209zM270 160q0 -49 -23 -85.5t-66 -55.5q25 -22 25 -52q0 -27 -20 -46.5t-47 -19.5t-47 19.5t-20 46.5q0 18 9 33h-82q-9 0 -15.5 8t-6.5 19q0 12 6.5 19.5t15.5 7.5h81q60 0 97.5 22t51.5 63l-57 288l45 20l49 -243q4 -20 4 -44zM165.5 -58.5
q10.5 10.5 10.5 25.5q0 16 -10.5 26.5t-26.5 10.5t-26.5 -10.5t-10.5 -26.5q0 -15 10.5 -25.5t26.5 -10.5t26.5 10.5z" />
    <glyph glyph-name="uni067C.medi" unicode="&#x67c;" horiz-adv-x="408" 
d="M294 550v-56h-208v56h208zM424.5 46.5q6.5 -7.5 6.5 -19.5q0 -11 -6.5 -19t-15.5 -8h-91q-53 0 -91 32l-13 -16q-8 -7 -15.5 -11t-18.5 -5q12 -15 12 -37q0 -27 -20 -46.5t-47 -19.5t-47 19.5t-20 46.5q0 20 12 37h-71q-9 0 -15.5 8t-6.5 19q0 12 6.5 19.5t15.5 7.5h209
q-20 18 -31 45t-11 60v213l43 9v-214q0 -50 30 -81.5t76 -31.5h94q9 0 15.5 -7.5zM151.5 -63.5q10.5 10.5 10.5 26.5t-10.5 26.5t-26.5 10.5t-26.5 -10.5t-10.5 -26.5t10.5 -26.5t26.5 -10.5t26.5 10.5z" />
    <glyph glyph-name="uni067C.fina" unicode="&#x67c;" horiz-adv-x="804" 
d="M475 471v-55h-208v55h208zM820 46q6 -8 6 -19t-6 -19t-15 -8h-531q-14 0 -20 1q8 -16 8 -32q0 -27 -20 -47t-47 -20t-47 20t-20 47q0 17 8.5 32t23.5 24q-41 22 -62.5 61t-21.5 92q0 32 7 63l25 112h43l-24 -111q-7 -31 -7 -60q0 -63 39 -95.5t114 -32.5h321v319l45 9
v-328h166q9 0 15 -8zM221.5 -57.5q10.5 10.5 10.5 26.5q0 15 -10.5 25.5t-26.5 10.5t-26.5 -10.5t-10.5 -25.5q0 -16 10.5 -26.5t26.5 -10.5t26.5 10.5z" />
    <glyph glyph-name="uni067D.init" unicode="&#x67d;" horiz-adv-x="346" 
d="M-16.5 8q-6.5 8 -6.5 19q0 12 6.5 19.5t15.5 7.5h81q60 0 97.5 22t51.5 63l-57 288l45 20l49 -243q4 -20 4 -44q0 -73 -49.5 -116.5t-138.5 -43.5h-83q-9 0 -15.5 8zM288 705v-55h-209v55h209zM219 534h-71v68h71v-68z" />
    <glyph glyph-name="uni067D.medi" unicode="&#x67d;" horiz-adv-x="408" 
d="M-16.5 46.5q6.5 7.5 15.5 7.5h209q-20 18 -31 45t-11 60v213l43 9v-214q0 -50 30 -81.5t76 -31.5h94q9 0 15.5 -7.5t6.5 -19.5q0 -11 -6.5 -19t-15.5 -8h-91q-53 0 -91 32l-13 -16q-10 -9 -19.5 -12.5t-25.5 -3.5h-170q-9 0 -15.5 8t-6.5 19q0 12 6.5 19.5zM301 652v-55
h-209v55h209zM232 481h-71v68h71v-68z" />
    <glyph glyph-name="uni067D.fina" unicode="&#x67d;" horiz-adv-x="804" 
d="M128 47q-52 47 -52 130q0 32 7 64l25 112h43l-24 -111q-7 -31 -7 -60q0 -63 39 -95.5t114 -32.5h321v319l45 9v-328h166q9 0 15 -8t6 -19t-6 -19t-15 -8h-531q-94 0 -146 47zM456 559v-55h-209v55h209zM387 388h-71v68h71v-68z" />
    <glyph glyph-name="uni0681.init" unicode="&#x681;" horiz-adv-x="605" 
d="M-16.5 8q-6.5 8 -6.5 19q0 12 6.5 19.5t15.5 7.5h398l-28 206q-10 67 -44.5 100.5t-89.5 33.5q-12 0 -38 -4l-123 -20l5 54l117 19q21 3 40 3q72 0 119.5 -43.5t58.5 -122.5l31 -226h84l-15 -54h-515q-9 0 -15.5 8zM338 608v-40h-216v40h64l-9 47q-2 8 -2 24
q0 40 24.5 66t67.5 30l32 5l5 -39l-26 -4q-34 -5 -50 -18.5t-16 -39.5q0 -5 2 -21l9 -50h115z" />
    <glyph glyph-name="uni0681.medi" unicode="&#x681;" horiz-adv-x="527" 
d="M-16.5 8q-6.5 8 -6.5 19q0 12 6.5 19.5t15.5 7.5h398l-28 206q-10 67 -44.5 100.5t-89.5 33.5q-12 0 -38 -4l-123 -20l5 54l117 19q21 3 40 3q72 0 119.5 -43.5t58.5 -122.5l31 -226h83q9 0 15 -7.5t6 -19.5q0 -11 -6 -19t-15 -8h-529q-9 0 -15.5 8zM338 608v-40h-216v40
h64l-9 47q-2 8 -2 24q0 40 24.5 66t67.5 30l32 5l5 -39l-26 -4q-34 -5 -50 -18.5t-16 -39.5q0 -5 2 -21l9 -50h115z" />
    <glyph glyph-name="uni0681.fina" unicode="&#x681;" horiz-adv-x="628" 
d="M116 -222q-18 15 -23 39l-14 74q-3 16 -3 31q0 57 39 94.5t100 37.5h275l-28 206q-10 67 -44.5 100.5t-89.5 33.5q-12 0 -38 -4l-123 -20l5 54l117 19q21 3 40 3q72 0 119.5 -43.5t58.5 -122.5l31 -226h90q9 0 15.5 -8t6.5 -19q0 -12 -6.5 -19.5t-15.5 -7.5h-417
q-38 0 -62 -23t-24 -58q0 -6 2 -20l17 -82h261l-15 -54h-231q-25 0 -43 15zM409 608v-40h-216v40h64l-9 47q-2 8 -2 24q0 40 24.5 66t67.5 30l32 5l5 -39l-26 -4q-34 -5 -50 -18.5t-16 -39.5q0 -5 2 -21l9 -50h115z" />
    <glyph glyph-name="uni0685.init" unicode="&#x685;" horiz-adv-x="605" 
d="M-16.5 8q-6.5 8 -6.5 19q0 12 6.5 19.5t15.5 7.5h398l-28 206q-10 67 -44.5 100.5t-89.5 33.5q-12 0 -38 -4l-123 -20l5 54l117 19q21 3 40 3q72 0 119.5 -43.5t58.5 -122.5l31 -226h84l-15 -54h-515q-9 0 -15.5 8zM187 677v68h71v-68h-71zM118 629h209v-55h-209v55z" />
    <glyph glyph-name="uni0685.medi" unicode="&#x685;" horiz-adv-x="527" 
d="M-16.5 8q-6.5 8 -6.5 19q0 12 6.5 19.5t15.5 7.5h398l-28 206q-10 67 -44.5 100.5t-89.5 33.5q-12 0 -38 -4l-123 -20l5 54l117 19q21 3 40 3q72 0 119.5 -43.5t58.5 -122.5l31 -226h83q9 0 15 -7.5t6 -19.5q0 -11 -6 -19t-15 -8h-529q-9 0 -15.5 8zM187 677v68h71v-68
h-71zM118 629h209v-55h-209v55z" />
    <glyph glyph-name="uni0685.fina" unicode="&#x685;" horiz-adv-x="628" 
d="M116 -222q-18 15 -23 39l-14 74q-3 16 -3 31q0 57 39 94.5t100 37.5h275l-28 206q-10 67 -44.5 100.5t-89.5 33.5q-12 0 -38 -4l-123 -20l5 54l117 19q21 3 40 3q72 0 119.5 -43.5t58.5 -122.5l31 -226h90q9 0 15.5 -8t6.5 -19q0 -12 -6.5 -19.5t-15.5 -7.5h-417
q-38 0 -62 -23t-24 -58q0 -6 2 -20l17 -82h261l-15 -54h-231q-25 0 -43 15zM275 677v68h71v-68h-71zM206 629h209v-55h-209v55z" />
    <glyph glyph-name="uni0689.fina" unicode="&#x689;" horiz-adv-x="576" 
d="M592.5 46q6.5 -8 6.5 -19t-6.5 -19t-15.5 -8h-33q-57 0 -96 24.5t-54 66.5q-21 -43 -66 -67t-113 -24h-6q12 -17 12 -37q0 -27 -20 -46.5t-47 -19.5t-47 19.5t-20 46.5q0 20 12 37h-18l-5 54h135q67 0 105.5 20t55.5 60l-56 321l41 21l57 -329q7 -38 38.5 -65.5
t82.5 -27.5h42q9 0 15.5 -8zM180.5 -10.5q-10.5 10.5 -26.5 10.5t-26.5 -10.5t-10.5 -26.5t10.5 -26.5t26.5 -10.5t26.5 10.5t10.5 26.5t-10.5 26.5z" />
    <glyph glyph-name="uni068A.fina" unicode="&#x68a;" horiz-adv-x="576" 
d="M316.5 74q38.5 20 55.5 60l-56 321l41 21l57 -329q7 -38 38.5 -65.5t82.5 -27.5h42q9 0 15.5 -8t6.5 -19t-6.5 -19t-15.5 -8h-33q-57 0 -96 24.5t-54 66.5q-21 -43 -66 -67t-113 -24h-134l-5 54h135q67 0 105.5 20zM168 -136h77v-72h-77v72z" />
    <glyph glyph-name="uni068B.fina" unicode="&#x68b;" horiz-adv-x="576" 
d="M316.5 74q38.5 20 55.5 60l-56 321l41 21l57 -329q7 -38 38.5 -65.5t82.5 -27.5h42q9 0 15.5 -8t6.5 -19t-6.5 -19t-15.5 -8h-33q-57 0 -96 24.5t-54 66.5q-21 -43 -66 -67t-113 -24h-134l-5 54h135q67 0 105.5 20zM153 598h38l-1 226l28 7v-82l121 29q3 1 10 1
q15 0 26 -9.5t13 -24.5l10 -67q1 -6 1 -19q0 -43 -29.5 -69.5t-81.5 -25.5l-135 1v33zM376 644l-16 105l-142 -34v-117h76q63 0 82 46zM168 -136h77v-72h-77v72z" />
    <glyph glyph-name="uni068F.fina" unicode="&#x68f;" horiz-adv-x="576" 
d="M316.5 74q38.5 20 55.5 60l-56 321l41 21l57 -329q7 -38 38.5 -65.5t82.5 -27.5h42q9 0 15.5 -8t6.5 -19t-6.5 -19t-15.5 -8h-33q-57 0 -96 24.5t-54 66.5q-21 -43 -66 -67t-113 -24h-134l-5 54h135q67 0 105.5 20zM402 744v-55h-209v55h209zM333 573h-71v68h71v-68z" />
    <glyph glyph-name="uni0690.fina" unicode="&#x690;" horiz-adv-x="576" 
d="M316.5 74q38.5 20 55.5 60l-56 321l41 21l57 -329q7 -38 38.5 -65.5t82.5 -27.5h42q9 0 15.5 -8t6.5 -19t-6.5 -19t-15.5 -8h-33q-57 0 -96 24.5t-54 66.5q-21 -43 -66 -67t-113 -24h-134l-5 54h135q67 0 105.5 20zM200 746h208v-55h-208v55zM200 627h208v-55h-208v55z
" />
    <glyph glyph-name="uni0693.fina" unicode="&#x693;" horiz-adv-x="371" 
d="M387.5 46.5q6.5 -7.5 6.5 -19.5q0 -11 -6.5 -19t-15.5 -8h-47q-35 0 -62.5 14t-43.5 40v-85q0 -34 -20.5 -64.5t-60.5 -48.5q14 -9 22.5 -24t8.5 -32q0 -27 -20 -46.5t-47 -19.5t-47 19.5t-20 46.5q0 6 2 16l-34 -14l-17 46l130 52q39 16 59 36v429l44 8v-203
q0 -55 29 -85.5t76 -30.5h48q9 0 15.5 -7.5zM128.5 -226.5q10.5 10.5 10.5 26.5t-10.5 26.5t-26.5 10.5t-26.5 -10.5t-10.5 -26.5t10.5 -26.5t26.5 -10.5t26.5 10.5z" />
    <glyph glyph-name="uni0695.fina" unicode="&#x695;" horiz-adv-x="371" 
d="M116 -100q39 16 59 36v429l44 8v-203q0 -55 29 -85.5t76 -30.5h48q9 0 15.5 -7.5t6.5 -19.5q0 -11 -6.5 -19t-15.5 -8h-47q-35 0 -62.5 14t-43.5 40v-85q0 -35 -21.5 -66.5t-64.5 -48.5l-130 -52l-17 46zM7 -311l30 14l70 -190l70 190l30 -14l-78 -205h-44z" />
    <glyph glyph-name="uni0696.fina" unicode="&#x696;" horiz-adv-x="371" 
d="M116 -100q39 16 59 36v429l44 8v-203q0 -55 29 -85.5t76 -30.5h48q9 0 15.5 -7.5t6.5 -19.5q0 -11 -6.5 -19t-15.5 -8h-47q-35 0 -62.5 14t-43.5 40v-85q0 -35 -21.5 -66.5t-64.5 -48.5l-130 -52l-17 46zM154 571h77v-72h-77v72zM78 -262h77v-72h-77v72z" />
    <glyph glyph-name="uni06A1.init" unicode="&#x6a1;" horiz-adv-x="486" 
d="M-16.5 8q-6.5 8 -6.5 19q0 12 6.5 19.5t15.5 7.5h289q30 0 51 11.5t28 31.5v65h-11h-16h-190q-28 0 -48.5 17t-24.5 44l-14 91q-4 30 -4 42q0 67 37.5 111.5t106.5 58.5l162 34l27 -22q18 -16 18 -42v-377q0 -51 -34.5 -85t-93.5 -34h-283q-9 0 -15.5 8zM367 509
l-154 -33q-54 -11 -80.5 -39.5t-26.5 -77.5q0 -17 3 -38l16 -104h242v292z" />
    <glyph glyph-name="uni06A1.medi" unicode="&#x6a1;" horiz-adv-x="602" 
d="M-16.5 46.5q6.5 7.5 15.5 7.5h157q-39 36 -39 92q0 10 4 34l44 215q7 33 27 51l26 24l127 -43q69 -24 99.5 -69t26.5 -118l-10 -186h142q9 0 15.5 -7.5t6.5 -19.5q0 -11 -6.5 -19t-15.5 -8h-337q-48 0 -84 25l-7 -8q-10 -10 -19 -13.5t-27 -3.5h-130q-9 0 -15.5 8
t-6.5 19q0 12 6.5 19.5zM164 157q0 -45 28 -74t74 -29h151l11 180q3 58 -19 89t-77 50l-121 41l-45 -232q-2 -9 -2 -25z" />
    <glyph glyph-name="uni06A1.fina" unicode="&#x6a1;" horiz-adv-x="914" 
d="M127.5 47q-51.5 47 -51.5 130q0 32 7 64l25 112h43l-24 -111q-7 -31 -7 -60q0 -63 39 -95.5t114 -32.5h194q-38 36 -38 91q0 19 4 35l43 215q6 31 28 51l25 24l128 -43q69 -24 99.5 -69t26.5 -118l-10 -186h142q9 0 15.5 -7.5t6.5 -19.5q0 -11 -6.5 -19t-15.5 -8h-337
q-47 0 -84 24l-5 -5q-10 -11 -19.5 -15t-28.5 -4h-168q-94 0 -145.5 47zM740 234q3 58 -19 89t-76 50l-121 41l-45 -232q-3 -13 -3 -27q0 -44 28 -72.5t74 -28.5h152z" />
    <glyph glyph-name="uni06A2.init" unicode="&#x6a2;" horiz-adv-x="486" 
d="M-16.5 8q-6.5 8 -6.5 19q0 12 6.5 19.5t15.5 7.5h289q30 0 51 11.5t28 31.5v65h-11h-16h-190q-28 0 -48.5 17t-24.5 44l-14 91q-4 30 -4 42q0 67 37.5 111.5t106.5 58.5l162 34l27 -22q18 -16 18 -42v-377q0 -51 -34.5 -85t-93.5 -34h-283q-9 0 -15.5 8zM367 509
l-154 -33q-54 -11 -80.5 -39.5t-26.5 -77.5q0 -17 3 -38l16 -104h242v292zM180 -136h77v-72h-77v72z" />
    <glyph glyph-name="uni06A2.medi" unicode="&#x6a2;" horiz-adv-x="602" 
d="M-16.5 46.5q6.5 7.5 15.5 7.5h157q-39 36 -39 92q0 10 4 34l44 215q7 33 27 51l26 24l127 -43q69 -24 99.5 -69t26.5 -118l-10 -186h142q9 0 15.5 -7.5t6.5 -19.5q0 -11 -6.5 -19t-15.5 -8h-337q-48 0 -84 25l-7 -8q-10 -10 -19 -13.5t-27 -3.5h-130q-9 0 -15.5 8
t-6.5 19q0 12 6.5 19.5zM164 157q0 -45 28 -74t74 -29h151l11 180q3 58 -19 89t-77 50l-121 41l-45 -232q-2 -9 -2 -25zM237 -136h77v-72h-77v72z" />
    <glyph glyph-name="uni06A2.fina" unicode="&#x6a2;" horiz-adv-x="914" 
d="M127.5 47q-51.5 47 -51.5 130q0 32 7 64l25 112h43l-24 -111q-7 -31 -7 -60q0 -63 39 -95.5t114 -32.5h194q-38 36 -38 91q0 19 4 35l43 215q6 31 28 51l25 24l128 -43q69 -24 99.5 -69t26.5 -118l-10 -186h142q9 0 15.5 -7.5t6.5 -19.5q0 -11 -6.5 -19t-15.5 -8h-337
q-47 0 -84 24l-5 -5q-10 -11 -19.5 -15t-28.5 -4h-168q-94 0 -145.5 47zM740 234q3 58 -19 89t-76 50l-121 41l-45 -232q-3 -13 -3 -27q0 -44 28 -72.5t74 -28.5h152zM402 -136h77v-72h-77v72z" />
    <glyph glyph-name="uni06AB.init" unicode="&#x6ab;" horiz-adv-x="529" 
d="M450 159q0 -45 -23 -81.5t-65.5 -57t-100.5 -20.5h-262q-9 0 -15.5 8t-6.5 19t6.5 19t15.5 8h260q61 0 99.5 23t51.5 65l-18 88q-11 53 -44.5 81.5t-89.5 28.5h-179l-35 74l206 207l8 -17q16 11 36 11q27 0 47 -20t20 -47t-20 -47t-47 -20q-24 0 -42 15.5t-23 38.5
l-142 -145h165q74 0 121 -37t61 -101l12 -55q4 -17 4 -38zM320.5 574.5q-10.5 10.5 -26.5 10.5t-26.5 -10.5t-10.5 -26.5t10.5 -26.5t26.5 -10.5t26.5 10.5t10.5 26.5t-10.5 26.5z" />
    <glyph glyph-name="uni06AB.medi" unicode="&#x6ab;" horiz-adv-x="613" 
d="M629.5 46q6.5 -8 6.5 -19t-6.5 -19t-15.5 -8h-63q-59 0 -91 37l-8 -10q-14 -16 -24 -21.5t-32 -5.5h-397q-9 0 -15.5 8t-6.5 19t6.5 19t15.5 8h430q-2 4 -2 8l-29 162q-10 56 -46.5 86t-91.5 30h-173l-34 74l205 207l8 -17q18 13 38 13q27 0 47 -20t20 -47t-20 -46.5
t-47 -19.5q-23 0 -41.5 15t-23.5 38l-143 -147h158q74 0 123.5 -39t61.5 -105l24 -128q7 -28 28 -46t60 -18h63q9 0 15.5 -8zM279 577l-6 -6q-6 -9 -6 -21q0 -16 10.5 -26.5t26.5 -10.5t26.5 10.5t10.5 26.5t-10.5 26.5t-26.5 10.5q-15 0 -25 -10z" />
    <glyph glyph-name="uni06AB.fina" unicode="&#x6ab;" horiz-adv-x="837" 
d="M853.5 46q6.5 -8 6.5 -19t-6.5 -19t-15.5 -8h-63q-58 0 -92 37l-8 -11q-13 -16 -23.5 -21t-31.5 -5h-373q-81 0 -126 41.5t-45 119.5q0 31 5 56l24 136h43l-24 -141q-4 -20 -4 -43q0 -57 33.5 -86t93.5 -29h405l-5 25l-26 145q-10 56 -46 86t-92 30h-172l-35 74l206 207
l5 -11q12 5 24 5q27 0 47 -20t20 -47t-20 -47t-47 -20q-20 0 -36.5 12t-24.5 31l-131 -134h159q73 0 122.5 -39t61.5 -106l25 -127q5 -28 25 -46t59 -18h67q9 0 15.5 -8zM499 583l3 -6l-28 -29q0 -16 10.5 -26.5t26.5 -10.5t26.5 10.5t10.5 26.5t-10.5 26.5t-26.5 10.5
q-4 0 -12 -2z" />
    <glyph glyph-name="uni06B0.init" unicode="&#x6b0;" horiz-adv-x="529" 
d="M450 159q0 -45 -23 -81.5t-65.5 -57t-100.5 -20.5h-262q-9 0 -15.5 8t-6.5 19t6.5 19t15.5 8h260q61 0 99.5 23t51.5 65l-18 88q-11 53 -44.5 81.5t-89.5 28.5h-179l-35 74l206 207l8 -18q16 11 35 11q27 0 47 -20t20 -47t-20 -46.5t-47 -19.5q-24 0 -42 15t-23 38
l-141 -144h165q74 0 121 -37t61 -101l12 -55q4 -17 4 -38zM153 579l-129 -128l-17 34l128 129zM319.5 573.5q-10.5 10.5 -26.5 10.5t-26.5 -10.5t-10.5 -26.5t10.5 -26.5t26.5 -10.5t26.5 10.5t10.5 26.5t-10.5 26.5z" />
    <glyph glyph-name="uni06B0.medi" unicode="&#x6b0;" horiz-adv-x="613" 
d="M629.5 46q6.5 -8 6.5 -19t-6.5 -19t-15.5 -8h-63q-59 0 -91 37l-8 -10q-14 -16 -24 -21.5t-32 -5.5h-397q-9 0 -15.5 8t-6.5 19t6.5 19t15.5 8h430q-2 4 -2 8l-29 162q-10 56 -46.5 86t-91.5 30h-173l-34 74l205 207l8 -17q18 15 41 15q27 0 46.5 -20t19.5 -47t-19.5 -47
t-46.5 -20q-23 0 -42 15.5t-24 38.5l-145 -149h158q74 0 123.5 -39t61.5 -105l24 -128q7 -28 28 -46t60 -18h63q9 0 15.5 -8zM160 586l-134 -137l-16 33l133 137zM280.5 578.5q-10.5 -10.5 -10.5 -26.5t10.5 -26.5t26.5 -10.5t26.5 10.5t10.5 26.5t-10.5 26.5t-26.5 10.5
t-26.5 -10.5z" />
    <glyph glyph-name="uni06B0.fina" unicode="&#x6b0;" horiz-adv-x="837" 
d="M853.5 46q6.5 -8 6.5 -19t-6.5 -19t-15.5 -8h-63q-58 0 -92 37l-8 -11q-13 -16 -23.5 -21t-31.5 -5h-373q-81 0 -126 41.5t-45 119.5q0 31 5 56l24 136h43l-24 -141q-4 -20 -4 -43q0 -57 33.5 -86t93.5 -29h405l-5 25l-26 145q-10 56 -46 86t-92 30h-172l-35 74l206 207
l5 -12q13 5 24 5q27 0 46.5 -20t19.5 -47t-19.5 -46.5t-46.5 -19.5q-20 0 -37 11.5t-25 30.5l-130 -133h159q73 0 122.5 -39t61.5 -106l25 -127q5 -28 25 -46t59 -18h67q9 0 15.5 -8zM373 579l-128 -128l-17 34l128 129zM500 582l2 -5l-28 -29v-1q0 -15 10.5 -25.5
t26.5 -10.5t26.5 10.5t10.5 25.5q0 16 -10.5 26.5t-26.5 10.5q-5 0 -11 -2z" />
    <glyph glyph-name="uni06B5.init" unicode="&#x6b5;" horiz-adv-x="308" 
d="M-16.5 8q-6.5 8 -6.5 19q0 12 6.5 19.5t15.5 7.5h43q61 0 98.5 22t51.5 62l-4 433l44 12v-423q0 -45 -22.5 -81.5t-65 -57.5t-100.5 -21h-45q-9 0 -15.5 8zM114 862l30 14l70 -190l70 190l30 -14l-78 -205h-44z" />
    <glyph glyph-name="uni06B5.medi" unicode="&#x6b5;" horiz-adv-x="394" 
d="M-16.5 46.5q6.5 7.5 15.5 7.5h42q61 0 98 22t51 62l-3 433l44 12v-406q0 -55 32 -89t90 -34h42q9 0 15.5 -8t6.5 -19t-6.5 -19t-15.5 -8h-42q-53 0 -88.5 26t-47.5 70q-19 -44 -64 -70t-110 -26h-44q-9 0 -15.5 8t-6.5 19q0 12 6.5 19.5zM108 863l30 14l70 -190l70 190
l30 -14l-78 -205h-44z" />
    <glyph glyph-name="uni06B5.fina" unicode="&#x6b5;" horiz-adv-x="675" 
d="M152 184l-24 -105q-9 -39 -9 -71q0 -72 42 -109t122 -37h33q55 0 95 18.5t61 49.5l-4 641l44 12v-406q0 -55 32 -89t90 -34h42q9 0 15.5 -8t6.5 -19t-6.5 -19t-15.5 -8h-42q-42 0 -73.5 17.5t-48.5 48.5v-114q0 -31 -21 -64.5t-65 -56.5t-109 -23h-34q-99 0 -153.5 50.5
t-54.5 140.5q0 37 11 84l24 101h42zM196 511l30 14l70 -190l70 190l30 -14l-78 -205h-44z" />
    <glyph glyph-name="uni06BC.init" unicode="&#x6bc;" horiz-adv-x="346" 
d="M220 611v-72h-77v72h77zM270 160q0 -47 -20.5 -82.5t-60.5 -55.5q11 -9 17.5 -22.5t6.5 -28.5q0 -27 -19.5 -47t-46.5 -20t-47 20t-20 47q0 13 7 29h-5h-83q-9 0 -15.5 8t-6.5 19q0 12 6.5 19.5t15.5 7.5h81q60 0 97.5 22t51.5 63l-57 288l45 20l49 -243q4 -20 4 -44z
M174 -3.5q-10 10.5 -24 11.5q-7 -2 -21 -4q-8 -5 -13.5 -14t-5.5 -19q0 -16 10.5 -26.5t26.5 -10.5t26.5 10.5t10.5 26.5q0 15 -10 25.5z" />
    <glyph glyph-name="uni06BC.medi" unicode="&#x6bc;" horiz-adv-x="408" 
d="M235 567v-72h-77v72h77zM424.5 46.5q6.5 -7.5 6.5 -19.5q0 -11 -6.5 -19t-15.5 -8h-91q-53 0 -91 32l-13 -16q-10 -9 -19.5 -12.5t-25.5 -3.5h-1q12 -17 12 -37q0 -27 -20 -46.5t-47 -19.5t-47 19.5t-20 46.5q0 20 12 37h-59q-9 0 -15.5 8t-6.5 19q0 12 6.5 19.5
t15.5 7.5h209q-20 18 -31 45t-11 60v213l43 9v-214q0 -50 30 -81.5t76 -31.5h94q9 0 15.5 -7.5zM139.5 -10.5q-10.5 10.5 -26.5 10.5t-26.5 -10.5t-10.5 -26.5t10.5 -26.5t26.5 -10.5t26.5 10.5t10.5 26.5t-10.5 26.5z" />
    <glyph glyph-name="uni06BC.fina" unicode="&#x6bc;" horiz-adv-x="716" 
d="M732 46q6 -8 6 -19t-6 -19t-15 -8h-56q-43 0 -74.5 17.5t-48.5 48.5l-1 -150q0 -47 -41 -77.5t-111 -30.5h-67q11 -17 11 -36q0 -27 -19.5 -46.5t-46.5 -19.5t-47 19.5t-20 46.5q0 25 17 44q-67 16 -102.5 62.5t-35.5 119.5q0 36 11 85l24 101h42l-24 -106q-9 -39 -9 -71
q0 -71 42 -108t120 -37h97q77 0 117 32v471l44 9v-207q2 -51 34 -82t87 -31h57q9 0 15 -8zM333 366v-72h-77v72h77zM289.5 -254.5q10.5 10.5 10.5 26.5q0 14 -8 24t-21 12l-12 1q-14 -2 -23.5 -12t-9.5 -25q0 -16 10.5 -26.5t26.5 -10.5t26.5 10.5z" />
    <glyph glyph-name="uni06C2.init" unicode="&#x6c2;" horiz-adv-x="333" 
d="M-16.5 8q-6.5 8 -6.5 19q0 12 6.5 19.5t15.5 7.5h81q60 0 97.5 22t51.5 63l-57 288l45 20l49 -243q4 -20 4 -44q0 -73 -49.5 -116.5t-138.5 -43.5h-83q-9 0 -15.5 8zM70 -101l39 9v-66h45v-78h-84v135zM293 566v-40h-216v40h64l-9 47q-2 8 -2 24q0 40 24.5 66t67.5 30
l32 5l5 -39l-26 -4q-34 -5 -50 -18.5t-16 -39.5q0 -5 2 -21l9 -50h115z" />
    <glyph glyph-name="uni06C2.medi" unicode="&#x6c2;" horiz-adv-x="550" 
d="M159 -165q-33 38 -33 95v71l-127 -1q-9 0 -15.5 8t-6.5 19t6.5 19t15.5 8h127v259q0 26 20 48l33 32h148q37 0 71.5 -14.5t57.5 -45t23 -75.5q0 -17 -5 -42l-36 -162h112q9 0 15.5 -8t6.5 -19t-6.5 -19t-15.5 -8h-117l-1 -183q0 -20 -15 -38l-27 -32l-140 35
q-58 15 -91 53zM427 206q4 17 4 36q0 49 -30.5 76t-74.5 27h-157v-291h225zM169 0v-64q0 -40 22.5 -67t62.5 -37l134 -33l1 201h-220zM388 545v-40h-216v40h64l-9 47q-2 8 -2 24q0 40 24.5 66t67.5 30l32 5l5 -39l-26 -4q-34 -5 -50 -18.5t-16 -39.5q0 -5 2 -21l9 -50h115z
" />
    <glyph glyph-name="uni06C2.fina" unicode="&#x6c2;" horiz-adv-x="556" 
d="M76 207q0 152 159 192l132 32v62l45 12v-337q0 -56 30 -85t82 -29h33q9 0 15.5 -7.5t6.5 -19.5q0 -11 -6.5 -19t-15.5 -8h-33q-70 0 -115 43l-17 -31h-225q-29 0 -48 22l-26 29l-13 93q-4 24 -4 51zM391 66q-23 38 -23 88v223l-127 -31q-58 -15 -89.5 -48.5t-31.5 -96.5
q0 -18 3 -39l13 -96h255zM460 610v-40h-216v40h64l-9 47q-2 8 -2 24q0 40 24.5 66t67.5 30l32 5l5 -39l-26 -4q-34 -5 -50 -18.5t-16 -39.5q0 -5 2 -21l9 -50h115z" />
    <glyph glyph-name="uni06C3.fina" unicode="&#x6c3;" horiz-adv-x="514" 
d="M324 146l-34 211l-22 5l-115 -142q-46 -59 -47 -134l-1 -52l-44 4l1 50q1 49 16.5 90.5t46.5 80.5l119 148l55 -12q32 -8 38 -39l31 -199q9 -53 33 -78t66 -25h48q9 0 15 -7.5t6 -19.5q0 -11 -6 -19t-15 -8h-46q-122 0 -145 146zM179 561h208v-55h-208v55z" />
    <glyph glyph-name="uni06C4.fina" unicode="&#x6c4;" horiz-adv-x="535" 
d="M550.5 46.5q6.5 -7.5 6.5 -19.5q0 -11 -6.5 -19t-15.5 -8h-108v-18q0 -40 -22 -71.5t-61 -44.5l-177 -62l-9 25q-4 -1 -10 -1q-27 0 -46.5 19.5t-19.5 46.5t19.5 47t46.5 20t47 -20t20 -47q0 -13 -4 -22l115 40q43 16 58 45v43h-12h-29h-170q-28 0 -48 16.5t-24 44.5
l-22 144q-3 21 -3 39q0 69 37 114.5t107 60.5l161 33l27 -23q19 -16 19 -40v-335h108q9 0 15.5 -7.5zM384 54v347l-155 -32q-107 -22 -107 -121q0 -16 3 -34l24 -160h235zM121.5 -132.5q10.5 -10.5 26.5 -10.5t26.5 10.5t10.5 26.5t-10.5 26.5t-26.5 10.5t-26.5 -10.5
t-10.5 -26.5t10.5 -26.5z" />
    <glyph glyph-name="uni06CA.fina" unicode="&#x6ca;" horiz-adv-x="535" 
d="M550.5 46.5q6.5 -7.5 6.5 -19.5q0 -11 -6.5 -19t-15.5 -8h-108v-18q0 -40 -22 -71.5t-61 -44.5l-177 -62l-18 47l177 61q43 16 58 45v43h-12h-29h-170q-28 0 -48 16.5t-24 44.5l-22 144q-3 21 -3 39q0 69 37 114.5t107 60.5l161 33l27 -23q19 -16 19 -40v-335h108
q9 0 15.5 -7.5zM384 54v347l-155 -32q-107 -22 -107 -121q0 -16 3 -34l24 -160h235zM159 588h208v-55h-208v55z" />
    <glyph glyph-name="uni06CD.fina" unicode="&#x6cd;" horiz-adv-x="611" 
d="M139.5 -165q-52.5 48 -52.5 135q0 30 6 63l20 112h-87l7 44h90q17 0 26.5 -12t7.5 -29l-22 -124q-5 -22 -5 -49q0 -64 39.5 -99t115.5 -35h56q67 0 110.5 23t61.5 66l-8 70h-202l6 54h302q9 0 15.5 -7.5t6.5 -19.5q0 -11 -6.5 -19t-15.5 -8h-61q0 -5 0.5 -11.5t2.5 -16.5
q1 -6 1 -18q0 -41 -22.5 -79t-70.5 -63t-120 -25h-56q-93 0 -145.5 48z" />
    <glyph glyph-name="uni06CE.init" unicode="&#x6ce;" horiz-adv-x="346" 
d="M-16.5 8q-6.5 8 -6.5 19q0 12 6.5 19.5t15.5 7.5h81q60 0 97.5 22t51.5 63l-57 288l45 20l49 -243q4 -20 4 -44q0 -73 -49.5 -116.5t-138.5 -43.5h-83q-9 0 -15.5 8zM6 -135h208v-55h-208v55zM75 736l30 14l70 -190l70 190l30 -14l-78 -205h-44z" />
    <glyph glyph-name="uni06CE.medi" unicode="&#x6ce;" horiz-adv-x="408" 
d="M-16.5 46.5q6.5 7.5 15.5 7.5h209q-20 18 -31 45t-11 60v213l43 9v-214q0 -50 30 -81.5t76 -31.5h94q9 0 15.5 -7.5t6.5 -19.5q0 -11 -6.5 -19t-15.5 -8h-91q-53 0 -91 32l-13 -16q-10 -9 -19.5 -12.5t-25.5 -3.5h-170q-9 0 -15.5 8t-6.5 19q0 12 6.5 19.5zM84 -135h208
v-55h-208v55zM96 685l30 14l70 -190l70 190l30 -14l-78 -205h-44z" />
    <glyph glyph-name="uni06CE.fina" unicode="&#x6ce;" horiz-adv-x="608" 
d="M130.5 -162.5q-54.5 50.5 -54.5 140.5q0 41 10 84l28 122h42l-28 -128q-9 -39 -9 -70q0 -71 42 -108t122 -37h56q132 0 172 89l-9 70h-201l6 54h302q9 0 15.5 -7.5t6.5 -19.5q0 -11 -6.5 -19t-15.5 -8h-61l3 -28q1 -5 1 -16q0 -42 -22.5 -80.5t-70 -63.5t-120.5 -25h-54
q-100 0 -154.5 50.5zM35 468l30 14l70 -190l70 190l30 -14l-78 -205h-44z" />
    <glyph glyph-name="uni06D1.init" unicode="&#x6d1;" horiz-adv-x="346" 
d="M-16.5 8q-6.5 8 -6.5 19q0 12 6.5 19.5t15.5 7.5h81q60 0 97.5 22t51.5 63l-57 288l45 20l49 -243q4 -20 4 -44q0 -73 -49.5 -116.5t-138.5 -43.5h-83q-9 0 -15.5 8zM221 -135v-55h-209v55h209zM152 -306h-71v68h71v-68z" />
    <glyph glyph-name="uni06D1.medi" unicode="&#x6d1;" horiz-adv-x="408" 
d="M-16.5 46.5q6.5 7.5 15.5 7.5h209q-20 18 -31 45t-11 60v213l43 9v-214q0 -50 30 -81.5t76 -31.5h94q9 0 15.5 -7.5t6.5 -19.5q0 -11 -6.5 -19t-15.5 -8h-91q-53 0 -91 32l-13 -16q-10 -9 -19.5 -12.5t-25.5 -3.5h-170q-9 0 -15.5 8t-6.5 19q0 12 6.5 19.5zM297 -135v-55
h-209v55h209zM228 -306h-71v68h71v-68z" />
    <glyph glyph-name="uni06D1.fina" unicode="&#x6d1;" horiz-adv-x="608" 
d="M130.5 -162.5q-54.5 50.5 -54.5 140.5q0 41 10 84l28 122h42l-28 -128q-9 -39 -9 -70q0 -71 42 -108t122 -37h56q132 0 172 89l-9 70h-201l6 54h302q9 0 15.5 -7.5t6.5 -19.5q0 -11 -6.5 -19t-15.5 -8h-61l3 -28q1 -5 1 -16q0 -42 -22.5 -80.5t-70 -63.5t-120.5 -25h-54
q-100 0 -154.5 50.5zM410 -303v-55h-209v55h209zM341 -474h-71v68h71v-68z" />
    <glyph glyph-name="uni06D5.fina" unicode="&#x6d5;" horiz-adv-x="556" 
d="M76 207q0 152 159 192l132 32v62l45 12v-337q0 -56 30 -85t82 -29h33q9 0 15.5 -7.5t6.5 -19.5q0 -11 -6.5 -19t-15.5 -8h-33q-70 0 -115 43l-17 -31h-225q-29 0 -48 22l-26 29l-13 93q-4 24 -4 51zM391 66q-23 38 -23 88v223l-127 -31q-58 -15 -89.5 -48.5t-31.5 -96.5
q0 -18 3 -39l13 -96h255z" />
    <glyph glyph-name="uniFB51" unicode="&#x671;" horiz-adv-x="262" arabic-form="final" 
d="M120 42q-44 42 -44 121v305l43 12v-301q0 -125 121 -125h23q9 0 15.5 -8t6.5 -19t-6.5 -19t-15.5 -8h-23q-76 0 -120 42zM29 776l28 7v-32l121 29q4 1 10 1q15 0 26 -9t13 -25l10 -67q1 -6 1 -18q0 -43 -30 -70t-82 -26l-85 1l-12 -40l-26 11l27 83zM215 646l-17 105
l-141 -34v-70q0 -28 -5 -47h80q62 0 83 46z" />
    <glyph glyph-name="uniFB57" unicode="&#x67e;" horiz-adv-x="804" arabic-form="final" 
d="M128 47q-52 47 -52 130q0 32 7 64l25 112h43l-24 -111q-7 -31 -7 -60q0 -63 39 -95.5t114 -32.5h321v319l45 9v-328h166q9 0 15 -8t6 -19t-6 -19t-15 -8h-531q-94 0 -146 47zM455 -135v-55h-209v55h209zM386 -306h-71v68h71v-68z" />
    <glyph glyph-name="uniFB58" unicode="&#x67e;" horiz-adv-x="346" arabic-form="initial" 
d="M-16.5 8q-6.5 8 -6.5 19q0 12 6.5 19.5t15.5 7.5h81q60 0 97.5 22t51.5 63l-57 288l45 20l49 -243q4 -20 4 -44q0 -73 -49.5 -116.5t-138.5 -43.5h-83q-9 0 -15.5 8zM221 -135v-55h-209v55h209zM152 -306h-71v68h71v-68z" />
    <glyph glyph-name="uniFB59" unicode="&#x67e;" horiz-adv-x="408" arabic-form="medial" 
d="M-16.5 46.5q6.5 7.5 15.5 7.5h209q-20 18 -31 45t-11 60v213l43 9v-214q0 -50 30 -81.5t76 -31.5h94q9 0 15.5 -7.5t6.5 -19.5q0 -11 -6.5 -19t-15.5 -8h-91q-53 0 -91 32l-13 -16q-10 -9 -19.5 -12.5t-25.5 -3.5h-170q-9 0 -15.5 8t-6.5 19q0 12 6.5 19.5zM297 -135v-55
h-209v55h209zM228 -306h-71v68h71v-68z" />
    <glyph glyph-name="uniFB5A" unicode="&#x680;" horiz-adv-x="756" arabic-form="isolated" 
d="M128 47q-52 47 -52 130q0 32 7 64l25 112h43l-24 -111q-7 -31 -7 -60q0 -63 39 -95.5t114 -32.5h217q60 0 97.5 22.5t52.5 64.5l-63 280l44 22l54 -239q5 -23 5 -41q0 -46 -23 -83t-65.5 -58.5t-99.5 -21.5h-218q-94 0 -146 47zM264 -135h208v-55h-208v55zM264 -254h208
v-55h-208v55z" />
    <glyph glyph-name="uniFB5B" unicode="&#x680;" horiz-adv-x="804" arabic-form="final" 
d="M128 47q-52 47 -52 130q0 32 7 64l25 112h43l-24 -111q-7 -31 -7 -60q0 -63 39 -95.5t114 -32.5h321v319l45 9v-328h166q9 0 15 -8t6 -19t-6 -19t-15 -8h-531q-94 0 -146 47zM271 -135h208v-55h-208v55zM271 -254h208v-55h-208v55z" />
    <glyph glyph-name="uniFB5C" unicode="&#x680;" horiz-adv-x="346" arabic-form="initial" 
d="M-16.5 8q-6.5 8 -6.5 19q0 12 6.5 19.5t15.5 7.5h81q60 0 97.5 22t51.5 63l-57 288l45 20l49 -243q4 -20 4 -44q0 -73 -49.5 -116.5t-138.5 -43.5h-83q-9 0 -15.5 8zM20 -135h208v-55h-208v55zM20 -254h208v-55h-208v55z" />
    <glyph glyph-name="uniFB5D" unicode="&#x680;" horiz-adv-x="408" arabic-form="medial" 
d="M-16.5 46.5q6.5 7.5 15.5 7.5h209q-20 18 -31 45t-11 60v213l43 9v-214q0 -50 30 -81.5t76 -31.5h94q9 0 15.5 -7.5t6.5 -19.5q0 -11 -6.5 -19t-15.5 -8h-91q-53 0 -91 32l-13 -16q-10 -9 -19.5 -12.5t-25.5 -3.5h-170q-9 0 -15.5 8t-6.5 19q0 12 6.5 19.5zM93 -135h208
v-55h-208v55zM93 -254h208v-55h-208v55z" />
    <glyph glyph-name="uniFB5E" unicode="&#x67a;" horiz-adv-x="756" arabic-form="isolated" 
d="M128 47q-52 47 -52 130q0 32 7 64l25 112h43l-24 -111q-7 -31 -7 -60q0 -63 39 -95.5t114 -32.5h217q60 0 97.5 22.5t52.5 64.5l-63 280l44 22l54 -239q5 -23 5 -41q0 -46 -23 -83t-65.5 -58.5t-99.5 -21.5h-218q-94 0 -146 47zM330 561h55v-208h-55v208z" />
    <glyph glyph-name="uniFB5F" unicode="&#x67a;" horiz-adv-x="804" arabic-form="final" 
d="M128 47q-52 47 -52 130q0 32 7 64l25 112h43l-24 -111q-7 -31 -7 -60q0 -63 39 -95.5t114 -32.5h321v319l45 9v-328h166q9 0 15 -8t6 -19t-6 -19t-15 -8h-531q-94 0 -146 47zM330 561h55v-208h-55v208z" />
    <glyph glyph-name="uniFB60" unicode="&#x67a;" horiz-adv-x="346" arabic-form="initial" 
d="M-16.5 8q-6.5 8 -6.5 19q0 12 6.5 19.5t15.5 7.5h81q60 0 97.5 22t51.5 63l-57 288l45 20l49 -243q4 -20 4 -44q0 -73 -49.5 -116.5t-138.5 -43.5h-83q-9 0 -15.5 8zM161 725h55v-208h-55v208z" />
    <glyph glyph-name="uniFB61" unicode="&#x67a;" horiz-adv-x="408" arabic-form="medial" 
d="M-16.5 46.5q6.5 7.5 15.5 7.5h209q-20 18 -31 45t-11 60v213l43 9v-214q0 -50 30 -81.5t76 -31.5h94q9 0 15.5 -7.5t6.5 -19.5q0 -11 -6.5 -19t-15.5 -8h-91q-53 0 -91 32l-13 -16q-10 -9 -19.5 -12.5t-25.5 -3.5h-170q-9 0 -15.5 8t-6.5 19q0 12 6.5 19.5zM174 668h55
v-208h-55v208z" />
    <glyph glyph-name="uniFB66" unicode="&#x679;" horiz-adv-x="756" arabic-form="isolated" 
d="M128 47q-52 47 -52 130q0 32 7 64l25 112h43l-24 -111q-7 -31 -7 -60q0 -63 39 -95.5t114 -32.5h217q60 0 97.5 22.5t52.5 64.5l-63 280l44 22l54 -239q5 -23 5 -41q0 -46 -23 -83t-65.5 -58.5t-99.5 -21.5h-218q-94 0 -146 47zM246 382h38l-1 226l28 7v-82l121 29
q3 1 10 1q15 0 26 -9.5t13 -24.5l10 -67q1 -6 1 -19q0 -43 -29.5 -69.5t-81.5 -25.5l-135 1v33zM469 428l-16 105l-142 -34v-117h76q63 0 82 46z" />
    <glyph glyph-name="uniFB67" unicode="&#x679;" horiz-adv-x="804" arabic-form="final" 
d="M128 47q-52 47 -52 130q0 32 7 64l25 112h43l-24 -111q-7 -31 -7 -60q0 -63 39 -95.5t114 -32.5h321v319l45 9v-328h166q9 0 15 -8t6 -19t-6 -19t-15 -8h-531q-94 0 -146 47zM246 382h38l-1 226l28 7v-82l121 29q3 1 10 1q15 0 26 -9.5t13 -24.5l10 -67q1 -6 1 -19
q0 -43 -29.5 -69.5t-81.5 -25.5l-135 1v33zM469 428l-16 105l-142 -34v-117h76q63 0 82 46z" />
    <glyph glyph-name="uniFB68" unicode="&#x679;" horiz-adv-x="346" arabic-form="initial" 
d="M-16.5 8q-6.5 8 -6.5 19q0 12 6.5 19.5t15.5 7.5h81q60 0 97.5 22t51.5 63l-57 288l45 20l49 -243q4 -20 4 -44q0 -73 -49.5 -116.5t-138.5 -43.5h-83q-9 0 -15.5 8zM28 581h38l-1 226l28 7v-82l121 29q3 1 10 1q15 0 26 -9.5t13 -24.5l10 -67q1 -6 1 -19
q0 -43 -29.5 -69.5t-81.5 -25.5l-135 1v33zM251 627l-16 105l-142 -34v-117h76q63 0 82 46z" />
    <glyph glyph-name="uniFB69" unicode="&#x679;" horiz-adv-x="408" arabic-form="medial" 
d="M-16.5 46.5q6.5 7.5 15.5 7.5h209q-20 18 -31 45t-11 60v213l43 9v-214q0 -50 30 -81.5t76 -31.5h94q9 0 15.5 -7.5t6.5 -19.5q0 -11 -6.5 -19t-15.5 -8h-91q-53 0 -91 32l-13 -16q-10 -9 -19.5 -12.5t-25.5 -3.5h-170q-9 0 -15.5 8t-6.5 19q0 12 6.5 19.5zM64 524h38
l-1 226l28 7v-82l121 29q3 1 10 1q15 0 26 -9.5t13 -24.5l10 -67q1 -6 1 -19q0 -43 -29.5 -69.5t-81.5 -25.5l-135 1v33zM287 570l-16 105l-142 -34v-117h76q63 0 82 46z" />
    <glyph glyph-name="uniFB6A" unicode="&#x6a4;" horiz-adv-x="782" arabic-form="isolated" 
d="M128 47q-52 47 -52 130q0 32 7 64l25 112h43l-24 -111q-7 -31 -7 -60q0 -63 39 -95.5t114 -32.5h313q29 0 50 11.5t27 31.5v65h-11h-16h-190q-28 0 -49 17t-25 44l-14 91q-3 20 -3 39q0 68 37 113.5t107 59.5l162 34l26 -22q19 -16 19 -42v-370q0 -54 -36.5 -90
t-99.5 -36h-296q-94 0 -146 47zM663 509l-155 -33q-54 -11 -80.5 -40.5t-26.5 -79.5q0 -17 3 -35l17 -104h242v292zM468 729v68h71v-68h-71zM399 681h209v-55h-209v55z" />
    <glyph glyph-name="uniFB6B" unicode="&#x6a4;" horiz-adv-x="914" arabic-form="final" 
d="M127.5 47q-51.5 47 -51.5 130q0 32 7 64l25 112h43l-24 -111q-7 -31 -7 -60q0 -63 39 -95.5t114 -32.5h194q-38 36 -38 91q0 19 4 35l43 215q6 31 28 51l25 24l128 -43q69 -24 99.5 -69t26.5 -118l-10 -186h142q9 0 15.5 -7.5t6.5 -19.5q0 -11 -6.5 -19t-15.5 -8h-337
q-47 0 -84 24l-5 -5q-10 -11 -19.5 -15t-28.5 -4h-168q-94 0 -145.5 47zM740 234q3 58 -19 89t-76 50l-121 41l-45 -232q-3 -13 -3 -27q0 -44 28 -72.5t74 -28.5h152zM598 668v68h71v-68h-71zM529 620h209v-55h-209v55z" />
    <glyph glyph-name="uniFB6C" unicode="&#x6a4;" horiz-adv-x="486" arabic-form="initial" 
d="M-16.5 8q-6.5 8 -6.5 19q0 12 6.5 19.5t15.5 7.5h289q30 0 51 11.5t28 31.5v65h-11h-16h-190q-28 0 -48.5 17t-24.5 44l-14 91q-4 30 -4 42q0 67 37.5 111.5t106.5 58.5l162 34l27 -22q18 -16 18 -42v-377q0 -51 -34.5 -85t-93.5 -34h-283q-9 0 -15.5 8zM367 509
l-154 -33q-54 -11 -80.5 -39.5t-26.5 -77.5q0 -17 3 -38l16 -104h242v292zM193 728v68h71v-68h-71zM124 680h209v-55h-209v55z" />
    <glyph glyph-name="uniFB6D" unicode="&#x6a4;" horiz-adv-x="602" arabic-form="medial" 
d="M-16.5 46.5q6.5 7.5 15.5 7.5h157q-39 36 -39 92q0 10 4 34l44 215q7 33 27 51l26 24l127 -43q69 -24 99.5 -69t26.5 -118l-10 -186h142q9 0 15.5 -7.5t6.5 -19.5q0 -11 -6.5 -19t-15.5 -8h-337q-48 0 -84 25l-7 -8q-10 -10 -19 -13.5t-27 -3.5h-130q-9 0 -15.5 8
t-6.5 19q0 12 6.5 19.5zM164 157q0 -45 28 -74t74 -29h151l11 180q3 58 -19 89t-77 50l-121 41l-45 -232q-2 -9 -2 -25zM287 669v68h71v-68h-71zM218 621h209v-55h-209v55z" />
    <glyph glyph-name="uniFB6E" unicode="&#x6a6;" horiz-adv-x="782" arabic-form="isolated" 
d="M128 47q-52 47 -52 130q0 32 7 64l25 112h43l-24 -111q-7 -31 -7 -60q0 -63 39 -95.5t114 -32.5h313q29 0 50 11.5t27 31.5v65h-11h-16h-190q-28 0 -49 17t-25 44l-14 91q-3 20 -3 39q0 68 37 113.5t107 59.5l162 34l26 -22q19 -16 19 -42v-370q0 -54 -36.5 -90
t-99.5 -36h-296q-94 0 -146 47zM663 509l-155 -33q-54 -11 -80.5 -40.5t-26.5 -79.5q0 -17 3 -35l17 -104h242v292zM400 800h208v-55h-208v55zM400 681h208v-55h-208v55z" />
    <glyph glyph-name="uniFB6F" unicode="&#x6a6;" horiz-adv-x="914" arabic-form="final" 
d="M127.5 47q-51.5 47 -51.5 130q0 32 7 64l25 112h43l-24 -111q-7 -31 -7 -60q0 -63 39 -95.5t114 -32.5h194q-38 36 -38 91q0 19 4 35l43 215q6 31 28 51l25 24l128 -43q69 -24 99.5 -69t26.5 -118l-10 -186h142q9 0 15.5 -7.5t6.5 -19.5q0 -11 -6.5 -19t-15.5 -8h-337
q-47 0 -84 24l-5 -5q-10 -11 -19.5 -15t-28.5 -4h-168q-94 0 -145.5 47zM740 234q3 58 -19 89t-76 50l-121 41l-45 -232q-3 -13 -3 -27q0 -44 28 -72.5t74 -28.5h152zM533 739h208v-55h-208v55zM533 620h208v-55h-208v55z" />
    <glyph glyph-name="uniFB70" unicode="&#x6a6;" horiz-adv-x="486" arabic-form="initial" 
d="M-16.5 8q-6.5 8 -6.5 19q0 12 6.5 19.5t15.5 7.5h289q30 0 51 11.5t28 31.5v65h-11h-16h-190q-28 0 -48.5 17t-24.5 44l-14 91q-4 30 -4 42q0 67 37.5 111.5t106.5 58.5l162 34l27 -22q18 -16 18 -42v-377q0 -51 -34.5 -85t-93.5 -34h-283q-9 0 -15.5 8zM367 509
l-154 -33q-54 -11 -80.5 -39.5t-26.5 -77.5q0 -17 3 -38l16 -104h242v292zM126 800h208v-55h-208v55zM126 681h208v-55h-208v55z" />
    <glyph glyph-name="uniFB71" unicode="&#x6a6;" horiz-adv-x="602" arabic-form="medial" 
d="M-16.5 46.5q6.5 7.5 15.5 7.5h157q-39 36 -39 92q0 10 4 34l44 215q7 33 27 51l26 24l127 -43q69 -24 99.5 -69t26.5 -118l-10 -186h142q9 0 15.5 -7.5t6.5 -19.5q0 -11 -6.5 -19t-15.5 -8h-337q-48 0 -84 25l-7 -8q-10 -10 -19 -13.5t-27 -3.5h-130q-9 0 -15.5 8
t-6.5 19q0 12 6.5 19.5zM164 157q0 -45 28 -74t74 -29h151l11 180q3 58 -19 89t-77 50l-121 41l-45 -232q-2 -9 -2 -25zM229 739h208v-55h-208v55zM229 620h208v-55h-208v55z" />
    <glyph glyph-name="uniFB72" unicode="&#x684;" horiz-adv-x="661" arabic-form="isolated" 
d="M116.5 -222q-18.5 15 -23.5 39l-14 74q-3 16 -3 31q0 57 39 94.5t100 37.5h275l-28 206q-10 68 -44.5 101t-89.5 33q-12 0 -38 -4l-123 -20l5 54l117 19q21 3 40 3q72 0 119.5 -43.5t58.5 -122.5l31 -226h88l-15 -54h-400q-38 0 -62 -23t-24 -58q0 -6 2 -20l17 -82h261
l-15 -54h-230q-25 0 -43.5 15zM478 -71h55v-208h-55v208z" />
    <glyph glyph-name="uniFB73" unicode="&#x684;" horiz-adv-x="628" arabic-form="final" 
d="M116 -222q-18 15 -23 39l-14 74q-3 16 -3 31q0 57 39 94.5t100 37.5h275l-28 206q-10 67 -44.5 100.5t-89.5 33.5q-12 0 -38 -4l-123 -20l5 54l117 19q21 3 40 3q72 0 119.5 -43.5t58.5 -122.5l31 -226h90q9 0 15.5 -8t6.5 -19q0 -12 -6.5 -19.5t-15.5 -7.5h-417
q-38 0 -62 -23t-24 -58q0 -6 2 -20l17 -82h261l-15 -54h-231q-25 0 -43 15zM478 -71h55v-208h-55v208z" />
    <glyph glyph-name="uniFB74" unicode="&#x684;" horiz-adv-x="605" arabic-form="initial" 
d="M-16.5 8q-6.5 8 -6.5 19q0 12 6.5 19.5t15.5 7.5h398l-28 206q-10 67 -44.5 100.5t-89.5 33.5q-12 0 -38 -4l-123 -20l5 54l117 19q21 3 40 3q72 0 119.5 -43.5t58.5 -122.5l31 -226h84l-15 -54h-515q-9 0 -15.5 8zM263 -71h55v-208h-55v208z" />
    <glyph glyph-name="uniFB75" unicode="&#x684;" horiz-adv-x="527" arabic-form="medial" 
d="M-16.5 8q-6.5 8 -6.5 19q0 12 6.5 19.5t15.5 7.5h398l-28 206q-10 67 -44.5 100.5t-89.5 33.5q-12 0 -38 -4l-123 -20l5 54l117 19q21 3 40 3q72 0 119.5 -43.5t58.5 -122.5l31 -226h83q9 0 15 -7.5t6 -19.5q0 -11 -6 -19t-15 -8h-529q-9 0 -15.5 8zM263 -71h55v-208h-55
v208z" />
    <glyph glyph-name="uniFB76" unicode="&#x683;" horiz-adv-x="702" arabic-form="isolated" 
d="M116.5 -222q-18.5 15 -23.5 39l-14 74q-3 16 -3 31q0 57 39 94.5t100 37.5h275l-28 206q-10 68 -44.5 101t-89.5 33q-12 0 -38 -4l-123 -20l5 54l117 19q21 3 40 3q72 0 119.5 -43.5t58.5 -122.5l31 -226h88l-15 -54h-400q-38 0 -62 -23t-24 -58q0 -6 2 -20l17 -82h261
l-15 -54h-230q-25 0 -43.5 15zM390 -70h208v-55h-208v55z" />
    <glyph glyph-name="uniFB77" unicode="&#x683;" horiz-adv-x="628" arabic-form="final" 
d="M116 -222q-18 15 -23 39l-14 74q-3 16 -3 31q0 57 39 94.5t100 37.5h275l-28 206q-10 67 -44.5 100.5t-89.5 33.5q-12 0 -38 -4l-123 -20l5 54l117 19q21 3 40 3q72 0 119.5 -43.5t58.5 -122.5l31 -226h90q9 0 15.5 -8t6.5 -19q0 -12 -6.5 -19.5t-15.5 -7.5h-417
q-38 0 -62 -23t-24 -58q0 -6 2 -20l17 -82h261l-15 -54h-231q-25 0 -43 15zM390 -70h208v-55h-208v55z" />
    <glyph glyph-name="uniFB78" unicode="&#x683;" horiz-adv-x="605" arabic-form="initial" 
d="M-16.5 8q-6.5 8 -6.5 19q0 12 6.5 19.5t15.5 7.5h398l-28 206q-10 67 -44.5 100.5t-89.5 33.5q-12 0 -38 -4l-123 -20l5 54l117 19q21 3 40 3q72 0 119.5 -43.5t58.5 -122.5l31 -226h84l-15 -54h-515q-9 0 -15.5 8zM198 -135h208v-55h-208v55z" />
    <glyph glyph-name="uniFB79" unicode="&#x683;" horiz-adv-x="527" arabic-form="medial" 
d="M-16.5 8q-6.5 8 -6.5 19q0 12 6.5 19.5t15.5 7.5h398l-28 206q-10 67 -44.5 100.5t-89.5 33.5q-12 0 -38 -4l-123 -20l5 54l117 19q21 3 40 3q72 0 119.5 -43.5t58.5 -122.5l31 -226h83q9 0 15 -7.5t6 -19.5q0 -11 -6 -19t-15 -8h-529q-9 0 -15.5 8zM198 -135h208v-55
h-208v55z" />
    <glyph glyph-name="uniFB7B" unicode="&#x686;" horiz-adv-x="625" arabic-form="final" 
d="M116 -222q-18 15 -23 39l-14 74q-3 16 -3 31q0 57 39 94.5t100 37.5h272l-28 206q-9 67 -44 100t-90 33q-17 0 -37 -3l-129 -21l5 54l122 20q21 3 40 3q72 0 120 -43.5t58 -122.5l31 -226h91q9 0 15.5 -8t6.5 -19q0 -12 -6.5 -19.5t-15.5 -7.5h-415q-38 0 -62 -23
t-24 -58q0 -6 2 -20l17 -82h258l-15 -54h-228q-25 0 -43 15zM589 -74v-50h-188v50h188zM528 -228h-65v61h65v-61z" />
    <glyph glyph-name="uniFB7C" unicode="&#x686;" horiz-adv-x="605" arabic-form="initial" 
d="M-16.5 8q-6.5 8 -6.5 19q0 12 6.5 19.5t15.5 7.5h398l-28 206q-10 67 -44.5 100.5t-89.5 33.5q-12 0 -38 -4l-123 -20l5 54l117 19q21 3 40 3q72 0 119.5 -43.5t58.5 -122.5l31 -226h84l-15 -54h-515q-9 0 -15.5 8zM404 -114v-55h-209v55h209zM335 -285h-71v68h71v-68z
" />
    <glyph glyph-name="uniFB7D" unicode="&#x686;" horiz-adv-x="527" arabic-form="medial" 
d="M-16.5 8q-6.5 8 -6.5 19q0 12 6.5 19.5t15.5 7.5h398l-28 206q-10 67 -44.5 100.5t-89.5 33.5q-12 0 -38 -4l-123 -20l5 54l117 19q21 3 40 3q72 0 119.5 -43.5t58.5 -122.5l31 -226h83q9 0 15 -7.5t6 -19.5q0 -11 -6 -19t-15 -8h-529q-9 0 -15.5 8zM404 -113v-55h-209
v55h209zM335 -284h-71v68h71v-68z" />
    <glyph glyph-name="uniFB7E" unicode="&#x687;" horiz-adv-x="702" arabic-form="isolated" 
d="M116.5 -222q-18.5 15 -23.5 39l-14 74q-3 16 -3 31q0 57 39 94.5t100 37.5h275l-28 206q-10 68 -44.5 101t-89.5 33q-12 0 -38 -4l-123 -20l5 54l117 19q21 3 40 3q72 0 119.5 -43.5t58.5 -122.5l31 -226h88l-15 -54h-400q-38 0 -62 -23t-24 -58q0 -6 2 -20l17 -82h261
l-15 -54h-230q-25 0 -43.5 15zM599 -109v-41h-152v41h152zM599 -196v-41h-152v41h152z" />
    <glyph glyph-name="uniFB7F" unicode="&#x687;" horiz-adv-x="628" arabic-form="final" 
d="M116 -222q-18 15 -23 39l-14 74q-3 16 -3 31q0 57 39 94.5t100 37.5h275l-28 206q-10 67 -44.5 100.5t-89.5 33.5q-12 0 -38 -4l-123 -20l5 54l117 19q21 3 40 3q72 0 119.5 -43.5t58.5 -122.5l31 -226h90q9 0 15.5 -8t6.5 -19q0 -12 -6.5 -19.5t-15.5 -7.5h-417
q-38 0 -62 -23t-24 -58q0 -6 2 -20l17 -82h261l-15 -54h-231q-25 0 -43 15zM599 -109v-41h-152v41h152zM599 -196v-41h-152v41h152z" />
    <glyph glyph-name="uniFB80" unicode="&#x687;" horiz-adv-x="605" arabic-form="initial" 
d="M-16.5 8q-6.5 8 -6.5 19q0 12 6.5 19.5t15.5 7.5h398l-28 206q-10 67 -44.5 100.5t-89.5 33.5q-12 0 -38 -4l-123 -20l5 54l117 19q21 3 40 3q72 0 119.5 -43.5t58.5 -122.5l31 -226h84l-15 -54h-515q-9 0 -15.5 8zM211 -114h208v-55h-208v55zM211 -233h208v-55h-208v55z
" />
    <glyph glyph-name="uniFB81" unicode="&#x687;" horiz-adv-x="527" arabic-form="medial" 
d="M-16.5 8q-6.5 8 -6.5 19q0 12 6.5 19.5t15.5 7.5h398l-28 206q-10 67 -44.5 100.5t-89.5 33.5q-12 0 -38 -4l-123 -20l5 54l117 19q21 3 40 3q72 0 119.5 -43.5t58.5 -122.5l31 -226h83q9 0 15 -7.5t6 -19.5q0 -11 -6 -19t-15 -8h-529q-9 0 -15.5 8zM211 -114h208v-55
h-208v55zM211 -233h208v-55h-208v55z" />
    <glyph glyph-name="uniFB82" unicode="&#x68d;" horiz-adv-x="503" arabic-form="isolated" 
d="M227 54q66 0 104 19.5t56 58.5l-21 117q-14 76 -73 118l-101 74l23 45l103 -76q77 -58 94 -154l13 -79q2 -14 2 -22q0 -37 -19.5 -72.5t-63.5 -59t-113 -23.5h-150l-5 54h151zM134 -135h208v-55h-208v55z" />
    <glyph glyph-name="uniFB83" unicode="&#x68d;" horiz-adv-x="576" arabic-form="final" 
d="M316.5 74q38.5 20 55.5 60l-56 321l41 21l57 -329q7 -38 38.5 -65.5t82.5 -27.5h42q9 0 15.5 -8t6.5 -19t-6.5 -19t-15.5 -8h-33q-57 0 -96 24.5t-54 66.5q-21 -43 -66 -67t-113 -24h-134l-5 54h135q67 0 105.5 20zM134 -135h208v-55h-208v55z" />
    <glyph glyph-name="uniFB84" unicode="&#x68c;" horiz-adv-x="503" arabic-form="isolated" 
d="M227 54q66 0 104 19.5t56 58.5l-21 117q-14 76 -73 118l-101 74l23 45l103 -76q77 -58 94 -154l13 -79q2 -14 2 -22q0 -37 -19.5 -72.5t-63.5 -59t-113 -23.5h-150l-5 54h151zM95 640h208v-55h-208v55z" />
    <glyph glyph-name="uniFB85" unicode="&#x68c;" horiz-adv-x="576" arabic-form="final" 
d="M316.5 74q38.5 20 55.5 60l-56 321l41 21l57 -329q7 -38 38.5 -65.5t82.5 -27.5h42q9 0 15.5 -8t6.5 -19t-6.5 -19t-15.5 -8h-33q-57 0 -96 24.5t-54 66.5q-21 -43 -66 -67t-113 -24h-134l-5 54h135q67 0 105.5 20zM197 640h208v-55h-208v55z" />
    <glyph glyph-name="uniFB86" unicode="&#x68e;" horiz-adv-x="503" arabic-form="isolated" 
d="M227 54q66 0 104 19.5t56 58.5l-21 117q-14 76 -73 118l-101 74l23 45l103 -76q77 -58 94 -154l13 -79q2 -14 2 -22q0 -37 -19.5 -72.5t-63.5 -59t-113 -23.5h-150l-5 54h151zM167 679v68h71v-68h-71zM98 631h209v-55h-209v55z" />
    <glyph glyph-name="uniFB87" unicode="&#x68e;" horiz-adv-x="576" arabic-form="final" 
d="M316.5 74q38.5 20 55.5 60l-56 321l41 21l57 -329q7 -38 38.5 -65.5t82.5 -27.5h42q9 0 15.5 -8t6.5 -19t-6.5 -19t-15.5 -8h-33q-57 0 -96 24.5t-54 66.5q-21 -43 -66 -67t-113 -24h-134l-5 54h135q67 0 105.5 20zM259 679v68h71v-68h-71zM190 631h209v-55h-209v55z" />
    <glyph glyph-name="uniFB88" unicode="&#x688;" horiz-adv-x="503" arabic-form="isolated" 
d="M227 54q66 0 104 19.5t56 58.5l-21 117q-14 76 -73 118l-101 74l23 45l103 -76q77 -58 94 -154l13 -79q2 -14 2 -22q0 -37 -19.5 -72.5t-63.5 -59t-113 -23.5h-150l-5 54h151zM55 598h38l-1 226l28 7v-82l121 29q3 1 10 1q15 0 26 -9.5t13 -24.5l10 -67q1 -6 1 -19
q0 -43 -29.5 -69.5t-81.5 -25.5l-135 1v33zM278 644l-16 105l-142 -34v-117h76q63 0 82 46z" />
    <glyph glyph-name="uniFB89" unicode="&#x688;" horiz-adv-x="576" arabic-form="final" 
d="M316.5 74q38.5 20 55.5 60l-56 321l41 21l57 -329q7 -38 38.5 -65.5t82.5 -27.5h42q9 0 15.5 -8t6.5 -19t-6.5 -19t-15.5 -8h-33q-57 0 -96 24.5t-54 66.5q-21 -43 -66 -67t-113 -24h-134l-5 54h135q67 0 105.5 20zM153 598h38l-1 226l28 7v-82l121 29q3 1 10 1
q15 0 26 -9.5t13 -24.5l10 -67q1 -6 1 -19q0 -43 -29.5 -69.5t-81.5 -25.5l-135 1v33zM376 644l-16 105l-142 -34v-117h76q63 0 82 46z" />
    <glyph glyph-name="uniFB8B" unicode="&#x698;" horiz-adv-x="371" arabic-form="final" 
d="M116 -100q39 16 59 36v429l44 8v-203q0 -55 29 -85.5t76 -30.5h48q9 0 15.5 -7.5t6.5 -19.5q0 -11 -6.5 -19t-15.5 -8h-47q-35 0 -62.5 14t-43.5 40v-85q0 -35 -21.5 -66.5t-64.5 -48.5l-130 -52l-17 46zM160 597v68h71v-68h-71zM91 549h209v-55h-209v55z" />
    <glyph glyph-name="uniFB8C" unicode="&#x691;" horiz-adv-x="295" arabic-form="isolated" 
d="M70 519h31l-1 186l23 6v-68l100 24q3 1 8 1q12 0 21 -7.5t11 -20.5l9 -55q1 -5 1 -15q0 -36 -25 -58t-67 -21l-111 1v27zM253 556l-13 87l-117 -28v-96h63q51 0 67 37zM175 -64v419l44 8v-370q0 -52 -20 -86t-68 -53l-128 -52l-17 46l126 51q39 16 63 37z" />
    <glyph glyph-name="uniFB8D" unicode="&#x691;" horiz-adv-x="371" arabic-form="final" 
d="M70 519h31l-1 186l23 6v-68l100 24q3 1 8 1q12 0 21 -7.5t11 -20.5l9 -55q1 -5 1 -15q0 -36 -25 -58t-67 -21l-111 1v27zM253 556l-13 87l-117 -28v-96h63q51 0 67 37zM175 -64v429l44 8v-203q0 -55 29 -85.5t76 -30.5h48q9 0 15.5 -7.5t6.5 -19.5q0 -11 -6.5 -19
t-15.5 -8h-47q-35 0 -62.5 14t-43.5 40v-85q0 -35 -21.5 -66.5t-64.5 -48.5l-130 -52l-17 46l130 52q39 16 59 36z" />
    <glyph glyph-name="uniFB8F" unicode="&#x6a9;" horiz-adv-x="837" arabic-form="final" 
d="M121 41.5q-45 41.5 -45 119.5q0 31 5 56l24 136h43l-24 -141q-4 -20 -4 -43q0 -57 33.5 -86t93.5 -29h405l-5 25l-26 145q-10 56 -46 86t-92 30h-172l-35 74l206 207l20 -44l-183 -187h159q73 0 122.5 -39t61.5 -106l25 -127q5 -28 25 -46t59 -18h67q9 0 15.5 -8t6.5 -19
t-6.5 -19t-15.5 -8h-63q-58 0 -92 37l-8 -11q-13 -16 -23.5 -21t-31.5 -5h-373q-81 0 -126 41.5z" />
    <glyph glyph-name="uniFB90" unicode="&#x6a9;" horiz-adv-x="529" arabic-form="initial" 
d="M-16.5 8q-6.5 8 -6.5 19t6.5 19t15.5 8h260q61 0 99.5 23t51.5 65l-18 88q-11 53 -44.5 81.5t-89.5 28.5h-179l-35 74l206 207l20 -44l-183 -187h165q74 0 121 -37t61 -101l12 -55q4 -17 4 -38q0 -45 -23 -81.5t-65.5 -57t-100.5 -20.5h-262q-9 0 -15.5 8z" />
    <glyph glyph-name="uniFB91" unicode="&#x6a9;" horiz-adv-x="613" arabic-form="medial" 
d="M-16.5 8q-6.5 8 -6.5 19t6.5 19t15.5 8h430q-2 4 -2 8l-29 162q-10 56 -46.5 86t-91.5 30h-173l-34 74l205 207l21 -44l-183 -187h158q74 0 123.5 -39t61.5 -105l24 -128q7 -28 28 -46t60 -18h63q9 0 15.5 -8t6.5 -19t-6.5 -19t-15.5 -8h-63q-59 0 -91 37l-8 -10
q-14 -16 -24 -21.5t-32 -5.5h-397q-9 0 -15.5 8z" />
    <glyph glyph-name="uniFB93" unicode="&#x6af;" horiz-adv-x="837" arabic-form="final" 
d="M235 503l128 129l17 -34l-128 -129zM121 41.5q-45 41.5 -45 119.5q0 31 5 56l24 136h43l-24 -141q-4 -20 -4 -43q0 -57 33.5 -86t93.5 -29h405l-5 25l-26 145q-10 56 -46 86t-92 30h-172l-35 74l206 207l20 -44l-183 -187h159q73 0 122.5 -39t61.5 -106l25 -127
q5 -28 25 -46t59 -18h67q9 0 15.5 -8t6.5 -19t-6.5 -19t-15.5 -8h-63q-58 0 -92 37l-8 -11q-13 -16 -23.5 -21t-31.5 -5h-373q-81 0 -126 41.5z" />
    <glyph glyph-name="uniFB94" unicode="&#x6af;" horiz-adv-x="529" arabic-form="initial" 
d="M3 503l128 129l17 -34l-128 -129zM-16.5 8q-6.5 8 -6.5 19t6.5 19t15.5 8h260q61 0 99.5 23t51.5 65l-18 88q-11 53 -44.5 81.5t-89.5 28.5h-179l-35 74l206 207l20 -44l-183 -187h165q74 0 121 -37t61 -101l12 -55q4 -17 4 -38q0 -45 -23 -81.5t-65.5 -57t-100.5 -20.5
h-262q-9 0 -15.5 8z" />
    <glyph glyph-name="uniFB95" unicode="&#x6af;" horiz-adv-x="613" arabic-form="medial" 
d="M12 503l127 129l18 -34l-129 -129zM-16.5 8q-6.5 8 -6.5 19t6.5 19t15.5 8h430q-2 4 -2 8l-29 162q-10 56 -46.5 86t-91.5 30h-173l-34 74l205 207l21 -44l-183 -187h158q74 0 123.5 -39t61.5 -105l24 -128q7 -28 28 -46t60 -18h63q9 0 15.5 -8t6.5 -19t-6.5 -19
t-15.5 -8h-63q-59 0 -91 37l-8 -10q-14 -16 -24 -21.5t-32 -5.5h-397q-9 0 -15.5 8z" />
    <glyph glyph-name="uniFB96" unicode="&#x6b3;" horiz-adv-x="758" arabic-form="isolated" 
d="M235 503l128 129l17 -34l-128 -129zM121 41.5q-45 41.5 -45 119.5q0 31 5 56l24 136h43l-24 -141q-4 -20 -4 -43q0 -57 33.5 -86t93.5 -29h244q61 0 99.5 23t51.5 65l-18 88q-11 53 -44.5 81.5t-89.5 28.5h-179l-35 74l206 207l20 -44l-183 -187h165q74 0 121 -37
t61 -101l12 -55q4 -17 4 -38q0 -45 -23 -81.5t-65.5 -57t-100.5 -20.5h-246q-81 0 -126 41.5zM350 -71h55v-208h-55v208z" />
    <glyph glyph-name="uniFB97" unicode="&#x6b3;" horiz-adv-x="837" arabic-form="final" 
d="M235 503l128 129l17 -34l-128 -129zM121 41.5q-45 41.5 -45 119.5q0 31 5 56l24 136h43l-24 -141q-4 -20 -4 -43q0 -57 33.5 -86t93.5 -29h405l-5 25l-26 145q-10 56 -46 86t-92 30h-172l-35 74l206 207l20 -44l-183 -187h159q73 0 122.5 -39t61.5 -106l25 -127
q5 -28 25 -46t59 -18h67q9 0 15.5 -8t6.5 -19t-6.5 -19t-15.5 -8h-63q-58 0 -92 37l-8 -11q-13 -16 -23.5 -21t-31.5 -5h-373q-81 0 -126 41.5zM350 -71h55v-208h-55v208z" />
    <glyph glyph-name="uniFB98" unicode="&#x6b3;" horiz-adv-x="529" arabic-form="initial" 
d="M3 503l128 129l17 -34l-128 -129zM-16.5 8q-6.5 8 -6.5 19t6.5 19t15.5 8h260q61 0 99.5 23t51.5 65l-18 88q-11 53 -44.5 81.5t-89.5 28.5h-179l-35 74l206 207l20 -44l-183 -187h165q74 0 121 -37t61 -101l12 -55q4 -17 4 -38q0 -45 -23 -81.5t-65.5 -57t-100.5 -20.5
h-262q-9 0 -15.5 8zM152 -71h55v-208h-55v208z" />
    <glyph glyph-name="uniFB99" unicode="&#x6b3;" horiz-adv-x="613" arabic-form="medial" 
d="M12 503l127 129l18 -34l-129 -129zM-16.5 8q-6.5 8 -6.5 19t6.5 19t15.5 8h430q-2 4 -2 8l-29 162q-10 56 -46.5 86t-91.5 30h-173l-34 74l205 207l21 -44l-183 -187h158q74 0 123.5 -39t61.5 -105l24 -128q7 -28 28 -46t60 -18h63q9 0 15.5 -8t6.5 -19t-6.5 -19
t-15.5 -8h-63q-59 0 -91 37l-8 -10q-14 -16 -24 -21.5t-32 -5.5h-397q-9 0 -15.5 8zM152 -71h55v-208h-55v208z" />
    <glyph glyph-name="uniFB9A" unicode="&#x6b1;" horiz-adv-x="758" arabic-form="isolated" 
d="M340 685v-42h-158v42h158zM363 632l17 -34l-128 -129l-17 34zM121 41.5q-45 41.5 -45 119.5q0 31 5 56l24 136h43l-24 -141q-4 -20 -4 -43q0 -57 33.5 -86t93.5 -29h244q61 0 99.5 23t51.5 65l-18 88q-11 53 -44.5 81.5t-89.5 28.5h-179l-35 74l206 207l20 -44l-183 -187
h165q74 0 121 -37t61 -101l12 -55q4 -17 4 -38q0 -45 -23 -81.5t-65.5 -57t-100.5 -20.5h-246q-81 0 -126 41.5z" />
    <glyph glyph-name="uniFB9B" unicode="&#x6b1;" horiz-adv-x="837" arabic-form="final" 
d="M340 685v-42h-158v42h158zM363 632l17 -34l-128 -129l-17 34zM121 41.5q-45 41.5 -45 119.5q0 31 5 56l24 136h43l-24 -141q-4 -20 -4 -43q0 -57 33.5 -86t93.5 -29h405l-5 25l-26 145q-10 56 -46 86t-92 30h-172l-35 74l206 207l20 -44l-183 -187h159q73 0 122.5 -39
t61.5 -106l25 -127q5 -28 25 -46t59 -18h67q9 0 15.5 -8t6.5 -19t-6.5 -19t-15.5 -8h-63q-58 0 -92 37l-8 -11q-13 -16 -23.5 -21t-31.5 -5h-373q-81 0 -126 41.5z" />
    <glyph glyph-name="uniFB9C" unicode="&#x6b1;" horiz-adv-x="529" arabic-form="initial" 
d="M116 685v-42h-158v42h158zM131 632l17 -34l-128 -129l-17 34zM-16.5 8q-6.5 8 -6.5 19t6.5 19t15.5 8h260q61 0 99.5 23t51.5 65l-18 88q-11 53 -44.5 81.5t-89.5 28.5h-179l-35 74l206 207l20 -44l-183 -187h165q74 0 121 -37t61 -101l12 -55q4 -17 4 -38
q0 -45 -23 -81.5t-65.5 -57t-100.5 -20.5h-262q-9 0 -15.5 8z" />
    <glyph glyph-name="uniFB9D" unicode="&#x6b1;" horiz-adv-x="613" arabic-form="medial" 
d="M116 685v-42h-158v42h158zM139 632l18 -34l-129 -129l-16 34zM-16.5 8q-6.5 8 -6.5 19t6.5 19t15.5 8h430q-2 4 -2 8l-29 162q-10 56 -46.5 86t-91.5 30h-173l-34 74l205 207l21 -44l-183 -187h158q74 0 123.5 -39t61.5 -105l24 -128q7 -28 28 -46t60 -18h63q9 0 15.5 -8
t6.5 -19t-6.5 -19t-15.5 -8h-63q-59 0 -91 37l-8 -10q-14 -16 -24 -21.5t-32 -5.5h-397q-9 0 -15.5 8z" />
    <glyph glyph-name="uniFB9F" unicode="&#x6ba;" horiz-adv-x="716" arabic-form="final" 
d="M152 184l-24 -106q-9 -39 -9 -71q0 -71 42 -108t120 -37h97q77 0 117 32v471l44 9v-207q2 -51 34 -82t87 -31h57q9 0 15 -8t6 -19t-6 -19t-15 -8h-56q-43 0 -74.5 17.5t-48.5 48.5l-1 -150q0 -47 -41 -77.5t-111 -30.5h-101q-100 0 -154.5 50t-54.5 140q0 38 11 85
l24 101h42z" />
    <glyph glyph-name="uniFBA0" unicode="&#x6bb;" horiz-adv-x="644" arabic-form="isolated" 
d="M129.5 -142q-54.5 50 -54.5 140q0 38 11 85l24 101h42l-24 -106q-9 -39 -9 -71q0 -71 42 -108t120 -37h75q65 0 108.5 22.5t63.5 62.5l-61 408l44 16l56 -377q1 -6 1 -20q0 -42 -22.5 -80t-70 -62t-118.5 -24h-73q-100 0 -154.5 50zM171 254h38l-1 226l28 7v-82l121 29
q3 1 10 1q15 0 26 -9.5t13 -24.5l10 -67q1 -6 1 -19q0 -43 -29.5 -69.5t-81.5 -25.5l-135 1v33zM394 300l-16 105l-142 -34v-117h76q63 0 82 46z" />
    <glyph glyph-name="uniFBA1" unicode="&#x6bb;" horiz-adv-x="716" arabic-form="final" 
d="M152 184l-24 -106q-9 -39 -9 -71q0 -71 42 -108t120 -37h97q77 0 117 32v471l44 9v-207q2 -51 34 -82t87 -31h57q9 0 15 -8t6 -19t-6 -19t-15 -8h-56q-43 0 -74.5 17.5t-48.5 48.5l-1 -150q0 -47 -41 -77.5t-111 -30.5h-101q-100 0 -154.5 50t-54.5 140q0 38 11 85
l24 101h42zM171 254h38l-1 226l28 7v-82l121 29q3 1 10 1q15 0 26 -9.5t13 -24.5l10 -67q1 -6 1 -19q0 -43 -29.5 -69.5t-81.5 -25.5l-135 1v33zM394 300l-16 105l-142 -34v-117h76q63 0 82 46z" />
    <glyph glyph-name="uniFBA2" unicode="&#x6bb;" horiz-adv-x="346" arabic-form="initial" 
d="M-16.5 8q-6.5 8 -6.5 19q0 12 6.5 19.5t15.5 7.5h81q60 0 97.5 22t51.5 63l-57 288l45 20l49 -243q4 -20 4 -44q0 -73 -49.5 -116.5t-138.5 -43.5h-83q-9 0 -15.5 8zM18 540h38l-1 226l28 7v-82l121 29q3 1 10 1q15 0 26 -9.5t13 -24.5l10 -67q1 -6 1 -19
q0 -43 -29.5 -69.5t-81.5 -25.5l-135 1v33zM241 586l-16 105l-142 -34v-117h76q63 0 82 46z" />
    <glyph glyph-name="uniFBA3" unicode="&#x6bb;" horiz-adv-x="408" arabic-form="medial" 
d="M-16.5 46.5q6.5 7.5 15.5 7.5h209q-20 18 -31 45t-11 60v213l43 9v-214q0 -50 30 -81.5t76 -31.5h94q9 0 15.5 -7.5t6.5 -19.5q0 -11 -6.5 -19t-15.5 -8h-91q-53 0 -91 32l-13 -16q-10 -9 -19.5 -12.5t-25.5 -3.5h-170q-9 0 -15.5 8t-6.5 19q0 12 6.5 19.5zM56 504h38
l-1 226l28 7v-82l121 29q3 1 10 1q15 0 26 -9.5t13 -24.5l10 -67q1 -6 1 -19q0 -43 -29.5 -69.5t-81.5 -25.5l-135 1v33zM279 550l-16 105l-142 -34v-117h76q63 0 82 46z" />
    <glyph glyph-name="uniFBA5" unicode="&#x6c0;" horiz-adv-x="556" arabic-form="final" 
d="M76 207q0 152 159 192l132 32v62l45 12v-337q0 -56 30 -85t82 -29h33q9 0 15.5 -7.5t6.5 -19.5q0 -11 -6.5 -19t-15.5 -8h-33q-70 0 -115 43l-17 -31h-225q-29 0 -48 22l-26 29l-13 93q-4 24 -4 51zM391 66q-23 38 -23 88v223l-127 -31q-58 -15 -89.5 -48.5t-31.5 -96.5
q0 -18 3 -39l13 -96h255zM466 610v-40h-216v40h64l-9 47q-2 8 -2 24q0 40 24.5 66t67.5 30l32 5l5 -39l-26 -4q-34 -5 -50 -18.5t-16 -39.5q0 -5 2 -21l9 -50h115z" />
    <glyph glyph-name="uniFBA6" unicode="&#x6c1;" horiz-adv-x="491" arabic-form="isolated" 
d="M93 387l9 48l182 -48q54 -14 81.5 -45.5t36.5 -89.5l11 -72q2 -18 2 -27q0 -64 -45 -108.5t-136 -44.5h-31q-59 0 -93.5 35t-34.5 96q0 30 9 64l45 183zM114 142q0 -42 25.5 -65t69.5 -23h26q112 0 140 76l-18 113q-6 41 -27 65t-58 34l-105 26l-47 -186q-6 -22 -6 -40z
" />
    <glyph glyph-name="uniFBA7" unicode="&#x6c1;" horiz-adv-x="514" arabic-form="final" 
d="M324 146l-34 211l-22 5l-115 -142q-46 -59 -47 -134l-1 -52l-44 4l1 50q1 49 16.5 90.5t46.5 80.5l119 148l55 -12q32 -8 38 -39l31 -199q9 -53 33 -78t66 -25h48q9 0 15 -7.5t6 -19.5q0 -11 -6 -19t-15 -8h-46q-122 0 -145 146z" />
    <glyph glyph-name="uniFBA8" unicode="&#x6c1;" horiz-adv-x="333" arabic-form="initial" 
d="M-16.5 8q-6.5 8 -6.5 19q0 12 6.5 19.5t15.5 7.5h81q60 0 97.5 22t51.5 63l-57 288l45 20l49 -243q4 -20 4 -44q0 -73 -49.5 -116.5t-138.5 -43.5h-83q-9 0 -15.5 8zM70 -101l39 9v-66h45v-78h-84v135z" />
    <glyph glyph-name="uniFBA9" unicode="&#x6c1;" horiz-adv-x="472" arabic-form="medial" 
d="M148.5 -158.5q-31.5 37.5 -31.5 96.5v88l-8 -8q-9 -10 -18.5 -14t-27.5 -4h-64q-9 0 -15.5 8t-6.5 19q0 12 6.5 19.5t15.5 7.5h118v246l44 14v-375q0 -39 21.5 -65t62.5 -43l94 -39l26 202q4 29 22 44.5t46 15.5h54q9 0 15.5 -8t6.5 -19t-6.5 -19t-15.5 -8h-80l-23 -185
q-2 -24 -16 -41l-27 -32l-101 39q-60 23 -91.5 60.5zM3 -58l39 9v-66h44v-77h-83v134z" />
    <glyph glyph-name="uniFBAA" unicode="&#x6be;" horiz-adv-x="491" arabic-form="isolated" 
d="M93 387l9 48l182 -48q54 -14 81.5 -45.5t36.5 -89.5l11 -72q2 -18 2 -27q0 -64 -45 -108.5t-136 -44.5h-31q-59 0 -93.5 35t-34.5 96q0 30 9 64l45 183zM114 142q0 -42 25.5 -65t69.5 -23h26q112 0 140 76l-18 113q-6 41 -27 65t-58 34l-105 26l-47 -186q-6 -22 -6 -40z
" />
    <glyph glyph-name="uniFBAB" unicode="&#x6be;" horiz-adv-x="615" arabic-form="final" 
d="M224 -165q-33 38 -33 95v71l-107 -1l16 54h91v259q0 26 20 48l33 32h148q37 0 71.5 -14.5t57.5 -45t23 -75.5q0 -17 -5 -42l-36 -162h112q9 0 15.5 -8t6.5 -19t-6.5 -19t-15.5 -8h-114l-4 -182q0 -21 -16 -39l-26 -32l-140 35q-58 15 -91 53zM492 206q4 17 4 36
q0 49 -30.5 76t-74.5 27h-157v-291h225zM234 0v-64q0 -40 22.5 -67t62.5 -37l134 -33l3 201h-222z" />
    <glyph glyph-name="uniFBAC" unicode="&#x6be;" horiz-adv-x="734" arabic-form="initial" 
d="M243 0h-244q-9 0 -15.5 7.5t-6.5 19.5q0 11 6.5 19t15.5 8h108l22 248q5 64 40 98t95 34q9 0 27 -2l70 -9l16 42l158 -80q40 -20 62 -54.5t31 -84.5l29 -178q1 -5 1 -14q0 -31 -19 -51l-26 -30l-262 63q-42 -36 -108 -36zM563.5 293.5q-15.5 23.5 -39.5 35.5l-136 70
l12 -240q2 -44 -17 -76l237 -58l-36 214q-5 31 -20.5 54.5zM332 82.5q29 28.5 25 83.5l-11 209l-63 7q-7 1 -20 1q-83 0 -90 -88l-20 -241h94q56 0 85 28.5z" />
    <glyph glyph-name="uniFBAD" unicode="&#x6be;" horiz-adv-x="734" arabic-form="medial" 
d="M-16.5 7.5q-6.5 7.5 -6.5 19.5q0 11 6.5 19t15.5 8h108l22 248q5 63 40 97.5t94 34.5q8 0 28 -2l69 -9l17 42l158 -80q40 -20 62 -54.5t31 -84.5l25 -151q1 -5 1 -15q0 -16 -5 -26h86q9 0 15.5 -8t6.5 -19q0 -12 -6.5 -19.5t-15.5 -7.5h-95q-31 0 -60 7l-208 53
q-20 -29 -53.5 -44.5t-75.5 -15.5h-244q-9 0 -15.5 7.5zM563.5 293.5q-15.5 23.5 -39.5 35.5l-136 70l12 -240q1 -26 -7 -51l222 -56l-31 187q-5 31 -20.5 54.5zM332 82.5q29 28.5 25 83.5l-11 209l-63 7q-7 1 -20 1q-83 0 -90 -88l-20 -241h94q56 0 85 28.5z" />
    <glyph glyph-name="uniFBAF" unicode="&#x6d2;" horiz-adv-x="313" arabic-form="final" 
d="M128 33q25 21 61 21h125q12 0 17.5 -6t5.5 -21t-5.5 -21t-17.5 -6h-168l-14 -86q-2 -14 -2 -21q0 -44 29 -71.5t75 -27.5h278l-8 -53h-272q-64 0 -105.5 40t-41.5 104q0 19 2 29l10 63q6 35 31 56z" />
    <glyph glyph-name="uniFBB0" unicode="&#x6d3;" horiz-adv-x="692" arabic-form="isolated" 
d="M323 559v-40h-216v40h64l-9 47q-2 8 -2 24q0 40 24.5 66t67.5 30l32 5l5 -39l-26 -4q-34 -5 -50 -18.5t-16 -39.5q0 -5 2 -21l9 -50h115zM114.5 42.5q-40.5 42.5 -40.5 110.5q0 18 3 37l29 183q4 29 25 46.5t50 17.5h98l14 -46h-142l-33 -208q-2 -16 -2 -23
q0 -48 30 -77.5t78 -29.5h328l-7 -53h-323q-67 0 -107.5 42.5z" />
    <glyph glyph-name="uniFBB1" unicode="&#x6d3;" horiz-adv-x="322" arabic-form="final" 
d="M215 160v-40h-216v40h64l-9 47q-2 8 -2 24q0 40 24.5 66t67.5 30l32 5l5 -39l-26 -4q-34 -5 -50 -18.5t-16 -39.5q0 -5 2 -21l9 -50h115zM128 33q25 21 61 21h125q12 0 17.5 -6t5.5 -21t-5.5 -21t-17.5 -6h-168l-14 -86q-2 -14 -2 -21q0 -44 29 -71.5t75 -27.5h278
l-8 -53h-272q-64 0 -105.5 40t-41.5 104q0 19 2 29l10 63q6 35 31 56z" />
    <glyph glyph-name="uniFBD3" unicode="&#x6ad;" horiz-adv-x="604" arabic-form="isolated" 
d="M244 616h54v-51h-54v51zM488 139l-4 436l44 12v-426q0 -71 -49.5 -116t-137.5 -45h-258l-7 54h263q121 0 149 85zM348 529v-41h-155v41h155zM347 227l-13 48q-5 17 -15.5 25t-28.5 8h-79l-14 44l76 82l14 -26l-66 -69h71q51 0 63 -47l15 -50q2 -6 2 -16q0 -30 -35 -30
h-136v31h146z" />
    <glyph glyph-name="uniFBD4" unicode="&#x6ad;" horiz-adv-x="689" arabic-form="final" 
d="M244 616h54v-51h-54v51zM488 139l-4 436l44 12v-415q0 -54 30.5 -86t89.5 -32h42q9 0 15.5 -8t6.5 -19t-6.5 -19t-15.5 -8h-42q-54 0 -88.5 25t-46.5 69q-19 -43 -63 -68.5t-109 -25.5h-258l-7 54h263q121 0 149 85zM348 529v-41h-155v41h155zM347 227l-13 48
q-5 17 -15.5 25t-28.5 8h-79l-14 44l76 82l14 -26l-66 -69h71q51 0 63 -47l15 -50q2 -6 2 -16q0 -30 -35 -30h-136v31h146z" />
    <glyph glyph-name="uniFBD5" unicode="&#x6ad;" horiz-adv-x="529" arabic-form="initial" 
d="M52 704h54v-51h-54v51zM-16.5 8q-6.5 8 -6.5 19t6.5 19t15.5 8h260q61 0 99.5 23t51.5 65l-18 88q-11 53 -44.5 81.5t-89.5 28.5h-179l-35 74l206 207l20 -44l-183 -187h165q74 0 121 -37t61 -101l12 -55q4 -17 4 -38q0 -45 -23 -81.5t-65.5 -57t-100.5 -20.5h-262
q-9 0 -15.5 8zM156 617v-41h-155v41h155z" />
    <glyph glyph-name="uniFBD6" unicode="&#x6ad;" horiz-adv-x="613" arabic-form="medial" 
d="M52 704h54v-51h-54v51zM-16.5 8q-6.5 8 -6.5 19t6.5 19t15.5 8h430q-2 4 -2 8l-29 162q-10 56 -46.5 86t-91.5 30h-173l-34 74l205 207l21 -44l-183 -187h158q74 0 123.5 -39t61.5 -105l24 -128q7 -28 28 -46t60 -18h63q9 0 15.5 -8t6.5 -19t-6.5 -19t-15.5 -8h-63
q-59 0 -91 37l-8 -10q-14 -16 -24 -21.5t-32 -5.5h-397q-9 0 -15.5 8zM156 617v-41h-155v41h155z" />
    <glyph glyph-name="uniFBD7" unicode="&#x6c7;" horiz-adv-x="503" arabic-form="isolated" 
d="M427 389v-407q0 -40 -22 -71.5t-61 -44.5l-177 -62l-18 47l177 61q43 16 58 45v43h-12h-29h-170q-28 0 -48 16.5t-24 44.5l-22 144q-3 21 -3 39q0 69 37 114.5t107 60.5l161 33l27 -23q19 -16 19 -40zM384 54v347l-155 -32q-107 -22 -107 -121q0 -16 3 -34l24 -160h235z
M238 578l-65 34q-21 13 -21 34q0 9 4 17l26 46q12 21 30 32.5t39 11.5q24 0 43 -11l51 -28l-112 -203l-24 13zM282 715q-17 9 -31 9q-15 0 -28 -8.5t-21 -24.5l-26 -46l77 -41l54 97z" />
    <glyph glyph-name="uniFBD8" unicode="&#x6c7;" horiz-adv-x="535" arabic-form="final" 
d="M550.5 46.5q6.5 -7.5 6.5 -19.5q0 -11 -6.5 -19t-15.5 -8h-108v-18q0 -40 -22 -71.5t-61 -44.5l-177 -62l-18 47l177 61q43 16 58 45v43h-12h-29h-170q-28 0 -48 16.5t-24 44.5l-22 144q-3 21 -3 39q0 69 37 114.5t107 60.5l161 33l27 -23q19 -16 19 -40v-335h108
q9 0 15.5 -7.5zM384 54v347l-155 -32q-107 -22 -107 -121q0 -16 3 -34l24 -160h235zM238 578l-65 34q-21 13 -21 34q0 9 4 17l26 46q12 21 30 32.5t39 11.5q24 0 43 -11l51 -28l-112 -203l-24 13zM282 715q-17 9 -31 9q-15 0 -28 -8.5t-21 -24.5l-26 -46l77 -41l54 97z" />
    <glyph glyph-name="uniFBD9" unicode="&#x6c6;" horiz-adv-x="503" arabic-form="isolated" 
d="M427 389v-407q0 -40 -22 -71.5t-61 -44.5l-177 -62l-18 47l177 61q43 16 58 45v43h-12h-29h-170q-28 0 -48 16.5t-24 44.5l-22 144q-3 21 -3 39q0 69 37 114.5t107 60.5l161 33l27 -23q19 -16 19 -40zM384 54v347l-155 -32q-107 -22 -107 -121q0 -16 3 -34l24 -160h235z
M157 724l30 14l70 -190l70 190l30 -14l-78 -205h-44z" />
    <glyph glyph-name="uniFBDA" unicode="&#x6c6;" horiz-adv-x="535" arabic-form="final" 
d="M550.5 46.5q6.5 -7.5 6.5 -19.5q0 -11 -6.5 -19t-15.5 -8h-108v-18q0 -40 -22 -71.5t-61 -44.5l-177 -62l-18 47l177 61q43 16 58 45v43h-12h-29h-170q-28 0 -48 16.5t-24 44.5l-22 144q-3 21 -3 39q0 69 37 114.5t107 60.5l161 33l27 -23q19 -16 19 -40v-335h108
q9 0 15.5 -7.5zM384 54v347l-155 -32q-107 -22 -107 -121q0 -16 3 -34l24 -160h235zM157 724l30 14l70 -190l70 190l30 -14l-78 -205h-44z" />
    <glyph glyph-name="uniFBDB" unicode="&#x6c8;" horiz-adv-x="503" arabic-form="isolated" 
d="M427 389v-407q0 -40 -22 -71.5t-61 -44.5l-177 -62l-18 47l177 61q43 16 58 45v43h-12h-29h-170q-28 0 -48 16.5t-24 44.5l-22 144q-3 21 -3 39q0 69 37 114.5t107 60.5l161 33l27 -23q19 -16 19 -40zM384 54v347l-155 -32q-107 -22 -107 -121q0 -16 3 -34l24 -160h235z
M237 683l33 8l-1 -179h-31z" />
    <glyph glyph-name="uniFBDC" unicode="&#x6c8;" horiz-adv-x="535" arabic-form="final" 
d="M550.5 46.5q6.5 -7.5 6.5 -19.5q0 -11 -6.5 -19t-15.5 -8h-108v-18q0 -40 -22 -71.5t-61 -44.5l-177 -62l-18 47l177 61q43 16 58 45v43h-12h-29h-170q-28 0 -48 16.5t-24 44.5l-22 144q-3 21 -3 39q0 69 37 114.5t107 60.5l161 33l27 -23q19 -16 19 -40v-335h108
q9 0 15.5 -7.5zM384 54v347l-155 -32q-107 -22 -107 -121q0 -16 3 -34l24 -160h235zM237 683l33 8l-1 -179h-31z" />
    <glyph glyph-name="uniFBDD" unicode="&#x677;" horiz-adv-x="535" arabic-form="isolated" 
d="M550.5 46.5q6.5 -7.5 6.5 -19.5q0 -11 -6.5 -19t-15.5 -8h-108v-18q0 -40 -22 -71.5t-61 -44.5l-177 -62l-18 47l177 61q43 16 58 45v43h-12h-29h-170q-28 0 -48 16.5t-24 44.5l-22 144q-3 21 -3 39q0 69 37 114.5t107 60.5l161 33l27 -23q19 -16 19 -40v-335h108
q9 0 15.5 -7.5zM384 54v347l-155 -32q-107 -22 -107 -121q0 -16 3 -34l24 -160h235zM179 578l-65 34q-21 13 -21 34q0 9 4 17l26 46q12 21 30 32.5t39 11.5q24 0 43 -11l51 -28l-112 -203l-24 13zM223 715q-17 9 -31 9q-15 0 -28 -8.5t-21 -24.5l-26 -46l77 -41l54 97z
M484 566v-40h-216v40h64l-9 47q-2 8 -2 24q0 40 24.5 66t67.5 30l32 5l5 -39l-26 -4q-34 -5 -50 -18.5t-16 -39.5q0 -5 2 -21l9 -50h115z" />
    <glyph glyph-name="uniFBDE" unicode="&#x6cb;" horiz-adv-x="503" arabic-form="isolated" 
d="M427 389v-407q0 -40 -22 -71.5t-61 -44.5l-177 -62l-18 47l177 61q43 16 58 45v43h-12h-29h-170q-28 0 -48 16.5t-24 44.5l-22 144q-3 21 -3 39q0 69 37 114.5t107 60.5l161 33l27 -23q19 -16 19 -40zM384 54v347l-155 -32q-107 -22 -107 -121q0 -16 3 -34l24 -160h235z
M219 635v68h71v-68h-71zM150 587h209v-55h-209v55z" />
    <glyph glyph-name="uniFBDF" unicode="&#x6cb;" horiz-adv-x="535" arabic-form="final" 
d="M550.5 46.5q6.5 -7.5 6.5 -19.5q0 -11 -6.5 -19t-15.5 -8h-108v-18q0 -40 -22 -71.5t-61 -44.5l-177 -62l-18 47l177 61q43 16 58 45v43h-12h-29h-170q-28 0 -48 16.5t-24 44.5l-22 144q-3 21 -3 39q0 69 37 114.5t107 60.5l161 33l27 -23q19 -16 19 -40v-335h108
q9 0 15.5 -7.5zM384 54v347l-155 -32q-107 -22 -107 -121q0 -16 3 -34l24 -160h235zM219 635v68h71v-68h-71zM150 587h209v-55h-209v55z" />
    <glyph glyph-name="uniFBE2" unicode="&#x6c9;" horiz-adv-x="503" arabic-form="isolated" 
d="M427 389v-407q0 -40 -22 -71.5t-61 -44.5l-177 -62l-18 47l177 61q43 16 58 45v43h-12h-29h-170q-28 0 -48 16.5t-24 44.5l-22 144q-3 21 -3 39q0 69 37 114.5t107 60.5l161 33l27 -23q19 -16 19 -40zM384 54v347l-155 -32q-107 -22 -107 -121q0 -16 3 -34l24 -160h235z
M233 731h44l78 -205l-30 -14l-70 190l-70 -190l-30 14z" />
    <glyph glyph-name="uniFBE3" unicode="&#x6c9;" horiz-adv-x="535" arabic-form="final" 
d="M550.5 46.5q6.5 -7.5 6.5 -19.5q0 -11 -6.5 -19t-15.5 -8h-108v-18q0 -40 -22 -71.5t-61 -44.5l-177 -62l-18 47l177 61q43 16 58 45v43h-12h-29h-170q-28 0 -48 16.5t-24 44.5l-22 144q-3 21 -3 39q0 69 37 114.5t107 60.5l161 33l27 -23q19 -16 19 -40v-335h108
q9 0 15.5 -7.5zM384 54v347l-155 -32q-107 -22 -107 -121q0 -16 3 -34l24 -160h235zM233 731h44l78 -205l-30 -14l-70 190l-70 -190l-30 14z" />
    <glyph glyph-name="uniFBE4" unicode="&#x6d0;" horiz-adv-x="634" arabic-form="isolated" 
d="M130.5 -142q-54.5 50 -54.5 141q0 41 10 84l24 101h42l-24 -106q-9 -39 -9 -70q0 -72 42 -109t121 -37h64q69 0 113 23.5t63 65.5l-6 49h-188q-35 0 -53.5 24t-13.5 59l30 234q6 44 32.5 78.5t70.5 45.5l59 16l15 -45l-68 -17q-27 -7 -44 -26.5t-21 -46.5l-34 -268h189
q28 0 45.5 -16.5t20.5 -46.5l2 -24q3 -31 -18 -68.5t-69 -64t-121 -26.5h-64q-101 0 -155.5 50zM273 -268h55v-208h-55v208z" />
    <glyph glyph-name="uniFBE5" unicode="&#x6d0;" horiz-adv-x="608" arabic-form="final" 
d="M130.5 -162.5q-54.5 50.5 -54.5 140.5q0 41 10 84l28 122h42l-28 -128q-9 -39 -9 -70q0 -71 42 -108t122 -37h56q132 0 172 89l-9 70h-201l6 54h302q9 0 15.5 -7.5t6.5 -19.5q0 -11 -6.5 -19t-15.5 -8h-61l3 -28q1 -5 1 -16q0 -42 -22.5 -80.5t-70 -63.5t-120.5 -25h-54
q-100 0 -154.5 50.5zM272 -270h55v-208h-55v208z" />
    <glyph glyph-name="uniFBE6" unicode="&#x6d0;" horiz-adv-x="346" arabic-form="initial" 
d="M-16.5 8q-6.5 8 -6.5 19q0 12 6.5 19.5t15.5 7.5h81q60 0 97.5 22t51.5 63l-57 288l45 20l49 -243q4 -20 4 -44q0 -73 -49.5 -116.5t-138.5 -43.5h-83q-9 0 -15.5 8zM102 -81h55v-208h-55v208z" />
    <glyph glyph-name="uniFBE7" unicode="&#x6d0;" horiz-adv-x="408" arabic-form="medial" 
d="M-16.5 46.5q6.5 7.5 15.5 7.5h209q-20 18 -31 45t-11 60v213l43 9v-214q0 -50 30 -81.5t76 -31.5h94q9 0 15.5 -7.5t6.5 -19.5q0 -11 -6.5 -19t-15.5 -8h-91q-53 0 -91 32l-13 -16q-10 -9 -19.5 -12.5t-25.5 -3.5h-170q-9 0 -15.5 8t-6.5 19q0 12 6.5 19.5zM145 -81h55
v-208h-55v208z" />
    <glyph glyph-name="uniFBE8" unicode="&#x649;" horiz-adv-x="346" arabic-form="initial" 
d="M-16.5 8q-6.5 8 -6.5 19q0 12 6.5 19.5t15.5 7.5h81q60 0 97.5 22t51.5 63l-57 288l45 20l49 -243q4 -20 4 -44q0 -73 -49.5 -116.5t-138.5 -43.5h-83q-9 0 -15.5 8z" />
    <glyph glyph-name="uniFBE9" unicode="&#x649;" horiz-adv-x="408" arabic-form="medial" 
d="M-16.5 46.5q6.5 7.5 15.5 7.5h209q-20 18 -31 45t-11 60v213l43 9v-214q0 -50 30 -81.5t76 -31.5h94q9 0 15.5 -7.5t6.5 -19.5q0 -11 -6.5 -19t-15.5 -8h-91q-53 0 -91 32l-13 -16q-10 -9 -19.5 -12.5t-25.5 -3.5h-170q-9 0 -15.5 8t-6.5 19q0 12 6.5 19.5z" />
    <glyph glyph-name="uniFBEA" unicode="&#xfbea;" horiz-adv-x="592" arabic-form="isolated" 
d="M120 42q-44 42 -44 121v408l43 12v-404q0 -125 121 -125h86q59 0 96.5 22t52.5 63l-58 288l46 20l48 -243q5 -27 5 -45q0 -72 -49.5 -115.5t-138.5 -43.5h-88q-76 0 -120 42zM469 547v-40h-216v40h64l-9 47q-2 8 -2 24q0 40 24.5 66t67.5 30l32 5l5 -39l-26 -4
q-34 -5 -50 -18.5t-16 -39.5q0 -5 2 -21l9 -50h115z" />
    <glyph glyph-name="uniFBEB" unicode="&#xfbeb;" horiz-adv-x="656" arabic-form="final" 
d="M120 42q-44 42 -44 121v408l43 12v-404q0 -125 121 -125h215q-19 18 -30 45t-11 60v213l43 9v-214q0 -50 30 -81.5t76 -31.5h94q9 0 15.5 -7.5t6.5 -19.5q0 -11 -6.5 -19t-15.5 -8h-91q-53 0 -91 32l-12 -14q-9 -10 -19 -14t-28 -4h-176q-76 0 -120 42zM507 521v-40h-216
v40h64l-9 47q-2 8 -2 24q0 40 24.5 66t67.5 30l32 5l5 -39l-26 -4q-34 -5 -50 -18.5t-16 -39.5q0 -5 2 -21l9 -50h115z" />
    <glyph glyph-name="uniFBFD" unicode="&#x6cc;" horiz-adv-x="608" arabic-form="final" 
d="M130.5 -162.5q-54.5 50.5 -54.5 140.5q0 41 10 84l28 122h42l-28 -128q-9 -39 -9 -70q0 -71 42 -108t122 -37h56q132 0 172 89l-9 70h-201l6 54h302q9 0 15.5 -7.5t6.5 -19.5q0 -11 -6.5 -19t-15.5 -8h-61l3 -28q1 -5 1 -16q0 -42 -22.5 -80.5t-70 -63.5t-120.5 -25h-54
q-100 0 -154.5 50.5z" />
    <glyph glyph-name="uniFBFE" unicode="&#x6cc;" horiz-adv-x="346" arabic-form="initial" 
d="M-16.5 8q-6.5 8 -6.5 19q0 12 6.5 19.5t15.5 7.5h81q60 0 97.5 22t51.5 63l-57 288l45 20l49 -243q4 -20 4 -44q0 -73 -49.5 -116.5t-138.5 -43.5h-83q-9 0 -15.5 8zM6 -135h208v-55h-208v55z" />
    <glyph glyph-name="uniFBFF" unicode="&#x6cc;" horiz-adv-x="399" arabic-form="medial" 
d="M-16.5 46.5q6.5 7.5 15.5 7.5h209q-20 18 -31 45t-11 60v213l43 9v-214q0 -50 30 -81.5t76 -31.5h94q9 0 15.5 -7.5t6.5 -19.5q0 -11 -6.5 -19t-15.5 -8h-91q-53 0 -91 32l-13 -16q-10 -9 -19.5 -12.5t-25.5 -3.5h-170q-9 0 -15.5 8t-6.5 19q0 12 6.5 19.5zM84 -135h208
v-55h-208v55z" />
    <glyph glyph-name="uniFC03" unicode="&#xfc03;" horiz-adv-x="809" arabic-form="isolated" 
d="M129.5 -165q-52.5 48 -52.5 135q0 30 6 63l26 151h43l-27 -160q-5 -22 -5 -49q0 -64 39.5 -99t115.5 -35h53q67 0 110.5 23t61.5 66l-8 70h-203l6 54h238q60 0 97.5 22t51.5 63l-57 288l45 20l49 -243q5 -25 5 -45q0 -72 -49.5 -115t-137.5 -44q0 -5 0.5 -11.5t2.5 -16.5
l1 -15q0 -42 -22 -81t-70 -64t-121 -25h-53q-93 0 -145.5 48zM600 499v-40h-216v40h64l-9 47q-2 8 -2 24q0 40 24.5 66t67.5 30l32 5l5 -39l-26 -4q-34 -5 -50 -18.5t-16 -39.5q0 -5 2 -21l9 -50h115z" />
    <glyph glyph-name="uniFC04" unicode="&#xfc04;" horiz-adv-x="809" arabic-form="isolated" 
d="M129.5 -165q-52.5 48 -52.5 135q0 30 6 63l26 151h43l-27 -160q-5 -22 -5 -49q0 -64 39.5 -99t115.5 -35h53q67 0 110.5 23t61.5 66l-8 70h-203l6 54h238q60 0 97.5 22t51.5 63l-57 288l45 20l49 -243q5 -25 5 -45q0 -72 -49.5 -115t-137.5 -44q0 -5 0.5 -11.5t2.5 -16.5
l1 -15q0 -42 -22 -81t-70 -64t-121 -25h-53q-93 0 -145.5 48zM198 -306h208v-55h-208v55zM576 530v-40h-216v40h64l-9 47q-2 8 -2 24q0 40 24.5 66t67.5 30l32 5l5 -39l-26 -4q-34 -5 -50 -18.5t-16 -39.5q0 -5 2 -21l9 -50h115z" />
    <glyph glyph-name="uniFC09" unicode="&#xfc09;" horiz-adv-x="809" arabic-form="isolated" 
d="M129.5 -165q-52.5 48 -52.5 135q0 30 6 63l26 151h43l-27 -160q-5 -22 -5 -49q0 -64 39.5 -99t115.5 -35h53q67 0 110.5 23t61.5 66l-8 70h-203l6 54h238q60 0 97.5 22t51.5 63l-57 288l45 20l49 -243q5 -25 5 -45q0 -72 -49.5 -115t-137.5 -44q0 -5 0.5 -11.5t2.5 -16.5
l1 -15q0 -42 -22 -81t-70 -64t-121 -25h-53q-93 0 -145.5 48zM635 -106h77v-72h-77v72z" />
    <glyph glyph-name="uniFC0A" unicode="&#xfc0a;" horiz-adv-x="809" arabic-form="isolated" 
d="M129.5 -165q-52.5 48 -52.5 135q0 30 6 63l26 151h43l-27 -160q-5 -22 -5 -49q0 -64 39.5 -99t115.5 -35h53q67 0 110.5 23t61.5 66l-8 70h-203l6 54h238q60 0 97.5 22t51.5 63l-57 288l45 20l49 -243q5 -25 5 -45q0 -72 -49.5 -115t-137.5 -44q0 -5 0.5 -11.5t2.5 -16.5
l1 -15q0 -42 -22 -81t-70 -64t-121 -25h-53q-93 0 -145.5 48zM171 -295h208v-55h-208v55zM625 -106h77v-72h-77v72z" />
    <glyph glyph-name="uniFC0F" unicode="&#xfc0f;" horiz-adv-x="809" arabic-form="isolated" 
d="M129.5 -165q-52.5 48 -52.5 135q0 30 6 63l26 151h43l-27 -160q-5 -22 -5 -49q0 -64 39.5 -99t115.5 -35h53q67 0 110.5 23t61.5 66l-8 70h-203l6 54h238q60 0 97.5 22t51.5 63l-57 288l45 20l49 -243q5 -25 5 -45q0 -72 -49.5 -115t-137.5 -44q0 -5 0.5 -11.5t2.5 -16.5
l1 -15q0 -42 -22 -81t-70 -64t-121 -25h-53q-93 0 -145.5 48zM496 582h208v-55h-208v55z" />
    <glyph glyph-name="uniFC10" unicode="&#xfc10;" horiz-adv-x="809" arabic-form="isolated" 
d="M129.5 -165q-52.5 48 -52.5 135q0 30 6 63l26 151h43l-27 -160q-5 -22 -5 -49q0 -64 39.5 -99t115.5 -35h53q67 0 110.5 23t61.5 66l-8 70h-203l6 54h238q60 0 97.5 22t51.5 63l-57 288l45 20l49 -243q5 -25 5 -45q0 -72 -49.5 -115t-137.5 -44q0 -5 0.5 -11.5t2.5 -16.5
l1 -15q0 -42 -22 -81t-70 -64t-121 -25h-53q-93 0 -145.5 48zM448 566h208v-55h-208v55zM161 -292h208v-55h-208v55z" />
    <glyph glyph-name="uniFC13" unicode="&#xfc13;" horiz-adv-x="809" arabic-form="isolated" 
d="M129.5 -165q-52.5 48 -52.5 135q0 30 6 63l26 151h43l-27 -160q-5 -22 -5 -49q0 -64 39.5 -99t115.5 -35h53q67 0 110.5 23t61.5 66l-8 70h-203l6 54h238q60 0 97.5 22t51.5 63l-57 288l45 20l49 -243q5 -25 5 -45q0 -72 -49.5 -115t-137.5 -44q0 -5 0.5 -11.5t2.5 -16.5
l1 -15q0 -42 -22 -81t-70 -64t-121 -25h-53q-93 0 -145.5 48zM553 632v68h71v-68h-71zM484 584h209v-55h-209v55z" />
    <glyph glyph-name="uniFC14" unicode="&#xfc14;" horiz-adv-x="809" arabic-form="isolated" 
d="M129.5 -165q-52.5 48 -52.5 135q0 30 6 63l26 151h43l-27 -160q-5 -22 -5 -49q0 -64 39.5 -99t115.5 -35h53q67 0 110.5 23t61.5 66l-8 70h-203l6 54h238q60 0 97.5 22t51.5 63l-57 288l45 20l49 -243q5 -25 5 -45q0 -72 -49.5 -115t-137.5 -44q0 -5 0.5 -11.5t2.5 -16.5
l1 -15q0 -42 -22 -81t-70 -64t-121 -25h-53q-93 0 -145.5 48zM187 -295h208v-55h-208v55zM553 612v68h71v-68h-71zM484 564h209v-55h-209v55z" />
    <glyph glyph-name="uniFC31" unicode="&#xfc31;" horiz-adv-x="840" arabic-form="isolated" 
d="M115.5 -162.5q-54.5 50.5 -54.5 140.5q0 37 11 84l24 101h42l-24 -107q-9 -37 -9 -70q0 -71 42 -108t121 -37h49q67 0 110.5 23t61.5 66l-8 70h-194l6 54h323q35 0 62.5 11.5t39.5 31.5v51h-29h-47h-137q-27 0 -47 17t-24 44l-16 105q-4 30 -4 43q0 67 37 111t106 58
l160 34l22 -19q12 -9 18.5 -22.5t6.5 -28.5v-339q0 -151 -161 -151h-77l3 -28q1 -6 1 -18q0 -41 -22.5 -79t-70.5 -63t-120 -25h-47q-100 0 -154.5 50.5zM720 510l-154 -32q-54 -11 -79.5 -41t-25.5 -80q0 -16 3 -36l18 -119h238v308zM574 716h77v-72h-77v72z" />
    <glyph glyph-name="uniFC32" unicode="&#xfc32;" horiz-adv-x="840" arabic-form="isolated" 
d="M115.5 -162.5q-54.5 50.5 -54.5 140.5q0 37 11 84l24 101h42l-24 -107q-9 -37 -9 -70q0 -71 42 -108t121 -37h49q67 0 110.5 23t61.5 66l-8 70h-194l6 54h323q35 0 62.5 11.5t39.5 31.5v51h-29h-47h-137q-27 0 -47 17t-24 44l-16 105q-4 30 -4 43q0 67 37 111t106 58
l160 34l22 -19q12 -9 18.5 -22.5t6.5 -28.5v-339q0 -151 -161 -151h-77l3 -28q1 -6 1 -18q0 -41 -22.5 -79t-70.5 -63t-120 -25h-47q-100 0 -154.5 50.5zM720 510l-154 -32q-54 -11 -79.5 -41t-25.5 -80q0 -16 3 -36l18 -119h238v308zM588 716h77v-72h-77v72zM174 -302h208
v-55h-208v55z" />
    <glyph glyph-name="uniFC35" unicode="&#xfc35;" horiz-adv-x="840" arabic-form="isolated" 
d="M115.5 -162.5q-54.5 50.5 -54.5 140.5q0 37 11 84l24 101h42l-24 -107q-9 -37 -9 -70q0 -71 42 -108t121 -37h49q67 0 110.5 23t61.5 66l-8 70h-194l6 54h323q35 0 62.5 11.5t39.5 31.5v51h-29h-47h-137q-27 0 -47 17t-24 44l-16 105q-4 30 -4 43q0 67 37 111t106 58
l160 34l22 -19q12 -9 18.5 -22.5t6.5 -28.5v-339q0 -151 -161 -151h-77l3 -28q1 -6 1 -18q0 -41 -22.5 -79t-70.5 -63t-120 -25h-47q-100 0 -154.5 50.5zM720 510l-154 -32q-54 -11 -79.5 -41t-25.5 -80q0 -16 3 -36l18 -119h238v308zM479 685h208v-55h-208v55z" />
    <glyph glyph-name="uniFC36" unicode="&#xfc36;" horiz-adv-x="840" arabic-form="isolated" 
d="M115.5 -162.5q-54.5 50.5 -54.5 140.5q0 37 11 84l24 101h42l-24 -107q-9 -37 -9 -70q0 -71 42 -108t121 -37h49q67 0 110.5 23t61.5 66l-8 70h-194l6 54h323q35 0 62.5 11.5t39.5 31.5v51h-29h-47h-137q-27 0 -47 17t-24 44l-16 105q-4 30 -4 43q0 67 37 111t106 58
l160 34l22 -19q12 -9 18.5 -22.5t6.5 -28.5v-339q0 -151 -161 -151h-77l3 -28q1 -6 1 -18q0 -41 -22.5 -79t-70.5 -63t-120 -25h-47q-100 0 -154.5 50.5zM720 510l-154 -32q-54 -11 -79.5 -41t-25.5 -80q0 -16 3 -36l18 -119h238v308zM483 687h208v-55h-208v55zM186 -298
h208v-55h-208v55z" />
    <glyph glyph-name="uniFC3D" unicode="&#xfc3d;" horiz-adv-x="849" arabic-form="isolated" 
d="M138 184l-28 -160q-5 -28 -5 -48q0 -65 40 -100t115 -35h56q68 0 111 23t61 66l-8 70h-205l6 54h301q61 0 99.5 23t51.5 65l-17 86q-9 47 -38.5 72.5t-75.5 25.5h-200l-35 73l206 208l20 -45l-183 -186h184q65 0 108.5 -34t55.5 -92l11 -53q4 -17 4 -37
q0 -45 -22.5 -81.5t-65.5 -57.5t-101 -21h-59q1 -6 2 -14.5t1 -13.5q1 -6 1 -18q0 -41 -22.5 -79t-70 -63t-119.5 -25h-57q-93 0 -145.5 48t-52.5 136q0 29 6 62l27 151h43z" />
    <glyph glyph-name="uniFC3E" unicode="&#xfc3e;" horiz-adv-x="849" arabic-form="isolated" 
d="M138 184l-28 -160q-5 -28 -5 -48q0 -65 40 -100t115 -35h56q68 0 111 23t61 66l-8 70h-205l6 54h301q61 0 99.5 23t51.5 65l-17 86q-9 47 -38.5 72.5t-75.5 25.5h-200l-35 73l206 208l20 -45l-183 -186h184q65 0 108.5 -34t55.5 -92l11 -53q4 -17 4 -37
q0 -45 -22.5 -81.5t-65.5 -57.5t-101 -21h-59q1 -6 2 -14.5t1 -13.5q1 -6 1 -18q0 -41 -22.5 -79t-70 -63t-119.5 -25h-57q-93 0 -145.5 48t-52.5 136q0 29 6 62l27 151h43zM160 -292h208v-55h-208v55z" />
    <glyph glyph-name="uniFC44" unicode="&#xfc44;" horiz-adv-x="845" arabic-form="isolated" 
d="M152 163l-24 -107q-9 -37 -9 -70q0 -71 42 -108t122 -37h48q68 0 111 23t61 66l-8 70h-201l6 54h279q61 0 98.5 22t51.5 62l-4 433l44 12v-423q0 -45 -22.5 -81.5t-65 -57.5t-100.5 -21h-41q1 -6 2 -14.5t1 -13.5q1 -6 1 -18q0 -41 -22.5 -79t-70 -63t-119.5 -25h-47
q-100 0 -154.5 50.5t-54.5 140.5q0 41 10 84l24 101h42zM178 -305h208v-55h-208v55z" />
    <glyph glyph-name="uniFC49" unicode="&#xfc49;" horiz-adv-x="1072" arabic-form="isolated" 
d="M114.5 -165q-52.5 48 -52.5 136q0 29 6 62l27 151h43l-28 -160q-5 -28 -5 -48q0 -65 40 -100t115 -35h56q68 0 111 23t61 66l-8 70h-201l6 54h228q40 0 66 20.5t39 65.5l72 240q8 29 27 48l20 19l100 -27q65 -18 103.5 -69t43.5 -122l12 -167q1 -38 -29 -64l-24 -19
l-268 55q-18 4 -27.5 9t-17.5 15q-21 -33 -73 -47q-10 -4 -32 -8l3 -31q1 -6 1 -18q0 -41 -22.5 -79t-70 -63t-119.5 -25h-57q-93 0 -145.5 48zM907.5 317q-28.5 40 -77.5 53l-92 24l-90 -300l305 -63l-13 192q-4 54 -32.5 94z" />
    <glyph glyph-name="uniFC4A" unicode="&#xfc4a;" horiz-adv-x="1072" arabic-form="isolated" 
d="M114.5 -165q-52.5 48 -52.5 136q0 29 6 62l27 151h43l-28 -160q-5 -28 -5 -48q0 -65 40 -100t115 -35h56q68 0 111 23t61 66l-8 70h-201l6 54h228q40 0 66 20.5t39 65.5l72 240q8 29 27 48l20 19l100 -27q65 -18 103.5 -69t43.5 -122l12 -167q1 -38 -29 -64l-24 -19
l-268 55q-18 4 -27.5 9t-17.5 15q-21 -33 -73 -47q-10 -4 -32 -8l3 -31q1 -6 1 -18q0 -41 -22.5 -79t-70 -63t-119.5 -25h-57q-93 0 -145.5 48zM907.5 317q-28.5 40 -77.5 53l-92 24l-90 -300l305 -63l-13 192q-4 54 -32.5 94zM180 -303h208v-55h-208v55z" />
    <glyph glyph-name="uniFC4F" unicode="&#xfc4f;" horiz-adv-x="809" arabic-form="isolated" 
d="M129.5 -165q-52.5 48 -52.5 135q0 30 6 63l26 151h43l-27 -160q-5 -22 -5 -49q0 -64 39.5 -99t115.5 -35h53q67 0 110.5 23t61.5 66l-8 70h-203l6 54h238q60 0 97.5 22t51.5 63l-57 288l45 20l49 -243q5 -25 5 -45q0 -72 -49.5 -115t-137.5 -44q0 -5 0.5 -11.5t2.5 -16.5
l1 -15q0 -42 -22 -81t-70 -64t-121 -25h-53q-93 0 -145.5 48zM485 580h77v-72h-77v72z" />
    <glyph glyph-name="uniFC50" unicode="&#xfc50;" horiz-adv-x="809" arabic-form="isolated" 
d="M129.5 -165q-52.5 48 -52.5 135q0 30 6 63l26 151h43l-27 -160q-5 -22 -5 -49q0 -64 39.5 -99t115.5 -35h53q67 0 110.5 23t61.5 66l-8 70h-203l6 54h238q60 0 97.5 22t51.5 63l-57 288l45 20l49 -243q5 -25 5 -45q0 -72 -49.5 -115t-137.5 -44q0 -5 0.5 -11.5t2.5 -16.5
l1 -15q0 -42 -22 -81t-70 -64t-121 -25h-53q-93 0 -145.5 48zM518 581h77v-72h-77v72zM161 -304h208v-55h-208v55z" />
    <glyph glyph-name="uniFC53" unicode="&#xfc53;" horiz-adv-x="1205" arabic-form="isolated" 
d="M130.5 -162.5q-54.5 50.5 -54.5 140.5q0 41 10 84l24 101h42l-24 -107q-9 -37 -9 -70q0 -71 42 -108t122 -37h48q68 0 111 23t61 66l-8 70h-201l6 54h278l22 248q6 70 48 103t113 27l71 -6l15 39l159 -80q40 -20 62 -54.5t30 -84.5l30 -178q1 -5 1 -14q0 -31 -19 -51
l-26 -30l-262 63q-42 -36 -109 -36h-173q1 -6 2 -14.5t1 -13.5q1 -6 1 -18q0 -41 -22.5 -79t-70 -63t-119.5 -25h-47q-100 0 -154.5 50.5zM1034.5 293.5q-15.5 23.5 -39.5 35.5l-137 70l12 -240q3 -43 -16 -76l237 -58l-36 214q-5 31 -20.5 54.5zM802 82.5q29 28.5 26 83.5
l-11 209l-63 7q-7 1 -20 1q-83 0 -90 -88l-20 -241h93q56 0 85 28.5z" />
    <glyph glyph-name="uniFC54" unicode="&#xfc54;" horiz-adv-x="1205" arabic-form="isolated" 
d="M130.5 -162.5q-54.5 50.5 -54.5 140.5q0 41 10 84l24 101h42l-24 -107q-9 -37 -9 -70q0 -71 42 -108t122 -37h48q68 0 111 23t61 66l-8 70h-201l6 54h278l22 248q6 70 48 103t113 27l71 -6l15 39l159 -80q40 -20 62 -54.5t30 -84.5l30 -178q1 -5 1 -14q0 -31 -19 -51
l-26 -30l-262 63q-42 -36 -109 -36h-173q1 -6 2 -14.5t1 -13.5q1 -6 1 -18q0 -41 -22.5 -79t-70 -63t-119.5 -25h-47q-100 0 -154.5 50.5zM1034.5 293.5q-15.5 23.5 -39.5 35.5l-137 70l12 -240q3 -43 -16 -76l237 -58l-36 214q-5 31 -20.5 54.5zM802 82.5q29 28.5 26 83.5
l-11 209l-63 7q-7 1 -20 1q-83 0 -90 -88l-20 -241h93q56 0 85 28.5zM173 -306h208v-55h-208v55z" />
    <glyph glyph-name="uniFC59" unicode="&#xfc59;" horiz-adv-x="809" arabic-form="isolated" 
d="M129.5 -165q-52.5 48 -52.5 135q0 30 6 63l26 151h43l-27 -160q-5 -22 -5 -49q0 -64 39.5 -99t115.5 -35h53q67 0 110.5 23t61.5 66l-8 70h-203l6 54h238q60 0 97.5 22t51.5 63l-57 288l45 20l49 -243q5 -25 5 -45q0 -72 -49.5 -115t-137.5 -44q0 -5 0.5 -11.5t2.5 -16.5
l1 -15q0 -42 -22 -81t-70 -64t-121 -25h-53q-93 0 -145.5 48zM574 -175h208v-55h-208v55z" />
    <glyph glyph-name="uniFC5A" unicode="&#xfc5a;" horiz-adv-x="809" arabic-form="isolated" 
d="M129.5 -165q-52.5 48 -52.5 135q0 30 6 63l26 151h43l-27 -160q-5 -22 -5 -49q0 -64 39.5 -99t115.5 -35h53q67 0 110.5 23t61.5 66l-8 70h-203l6 54h238q60 0 97.5 22t51.5 63l-57 288l45 20l49 -243q5 -25 5 -45q0 -72 -49.5 -115t-137.5 -44q0 -5 0.5 -11.5t2.5 -16.5
l1 -15q0 -42 -22 -81t-70 -64t-121 -25h-53q-93 0 -145.5 48zM780 -183v-50h-189v50h189zM198 -305h208v-55h-208v55z" />
    <glyph glyph-name="uniFC5C" unicode="&#xfc5c;" horiz-adv-x="295" arabic-form="isolated" 
d="M112 -101q39 16 63 37v419l44 8v-370q0 -52 -20 -86t-68 -53l-128 -52l-17 46zM178 644l33 8l-1 -179h-31z" />
    <glyph glyph-name="uniFC5D" unicode="&#xfc5d;" horiz-adv-x="634" arabic-form="isolated" 
d="M130.5 -142q-54.5 50 -54.5 141q0 41 10 84l24 101h42l-24 -106q-9 -39 -9 -70q0 -72 42 -109t121 -37h64q69 0 113 23.5t63 65.5l-6 49h-188q-35 0 -53.5 24t-13.5 59l30 234q6 44 32.5 78.5t70.5 45.5l59 16l15 -45l-68 -17q-27 -7 -44 -26.5t-21 -46.5l-34 -268h189
q28 0 45.5 -16.5t20.5 -46.5l2 -24q3 -31 -18 -68.5t-69 -64t-121 -26.5h-64q-101 0 -155.5 50zM112 431l33 8l-1 -179h-31z" />
    <glyph glyph-name="uniFC64" unicode="&#xfc64;" horiz-adv-x="624" arabic-form="final" 
d="M81 -110q53 22 84 46v370q0 29 19 53l11 14h156q45 0 81 -20.5t56.5 -57t20.5 -81.5v-160h116q9 0 15.5 -7.5t6.5 -19.5q0 -11 -6.5 -19t-15.5 -8h-107q-23 0 -38.5 15.5t-15.5 38.5v157q0 47 -30.5 78t-77.5 31h-147v-351q0 -35 -21.5 -66t-64.5 -49l-130 -52l-17 46z
M394 514v-40h-216v40h64l-9 47q-2 8 -2 24q0 40 24.5 66t67.5 30l32 5l5 -39l-26 -4q-34 -5 -50 -18.5t-16 -39.5q0 -5 2 -21l9 -50h115z" />
    <glyph glyph-name="uniFC65" unicode="&#xfc65;" horiz-adv-x="624" arabic-form="final" 
d="M81 -110q53 22 84 46v370q0 29 19 53l11 14h156q45 0 81 -20.5t56.5 -57t20.5 -81.5v-160h116q9 0 15.5 -7.5t6.5 -19.5q0 -11 -6.5 -19t-15.5 -8h-107q-23 0 -38.5 15.5t-15.5 38.5v157q0 47 -30.5 78t-77.5 31h-147v-351q0 -35 -21.5 -66t-64.5 -49l-130 -52l-17 46z
M144 557h77v-72h-77v72zM529 513v-40h-216v40h64l-9 47q-2 8 -2 24q0 40 24.5 66t67.5 30l32 5l5 -39l-26 -4q-34 -5 -50 -18.5t-16 -39.5q0 -5 2 -21l9 -50h115z" />
    <glyph glyph-name="uniFC67" unicode="&#xfc67;" horiz-adv-x="967" arabic-form="final" 
d="M267 382h77v-72h-77v72zM137 -144q-53 48 -53 134q0 24 7 64l24 130h42l-24 -137q-5 -30 -5 -49q0 -65 40 -100.5t115 -35.5h110q78 0 118 32v412q0 31 18 53l12 14h150q46 0 82.5 -20.5t57 -57t20.5 -81.5v-160h116q9 0 15.5 -7.5t6.5 -19.5q0 -11 -6.5 -19t-15.5 -8
h-106q-24 0 -39.5 15.5t-15.5 38.5v157q0 47 -31 78t-79 31h-143l-2 -404q0 -47 -41 -77.5t-111 -30.5h-115q-94 0 -147 48zM721 513v-40h-216v40h64l-9 47q-2 8 -2 24q0 40 24.5 66t67.5 30l32 5l5 -39l-26 -4q-34 -5 -50 -18.5t-16 -39.5q0 -5 2 -21l9 -50h115z" />
    <glyph glyph-name="uniFC68" unicode="&#xfc68;" horiz-adv-x="789" arabic-form="final" 
d="M525 531v-40h-216v40h64l-9 47q-2 8 -2 24q0 40 24.5 66t67.5 30l32 5l5 -39l-26 -4q-34 -5 -50 -18.5t-16 -39.5q0 -5 2 -21l9 -50h115zM129.5 -144q-53.5 48 -53.5 134q0 24 7 64l23 130h43l-25 -142q-5 -28 -5 -47q0 -63 40.5 -98t115.5 -35h39q69 0 113 23.5t64 65.5
l-6 49h-175q-30 0 -48 19t-18 49q0 10 1 15l21 145q9 65 56.5 102t117.5 35l95 -2l13 -20q8 -11 11 -18.5t5 -22.5l22 -163q12 -85 103 -85h60q9 0 15.5 -7.5t6.5 -19.5q0 -11 -6.5 -19t-15.5 -8h-59q-63 0 -101.5 35t-47.5 99l-24 175l-92 1q-47 1 -78 -22.5t-37 -64.5
l-25 -169h174q28 0 45.5 -16.5t20.5 -46.5l2 -24q3 -31 -18 -68.5t-69 -64t-121 -26.5h-42q-94 0 -147.5 48z" />
    <glyph glyph-name="uniFC69" unicode="&#xfc69;" horiz-adv-x="749" arabic-form="final" 
d="M129.5 -144q-53.5 48 -53.5 134q0 24 7 64l23 130h43l-25 -142q-5 -28 -5 -47q0 -63 40.5 -98t115.5 -35h39q69 0 113 23.5t64 65.5l-6 49h-175q-30 0 -48 19t-18 49q0 10 1 15l21 145q9 65 56.5 102t117.5 35l95 -2l13 -20q8 -11 11 -18.5t5 -22.5l22 -163
q12 -85 103 -85h60q9 0 15.5 -7.5t6.5 -19.5q0 -11 -6.5 -19t-15.5 -8h-59q-63 0 -101.5 35t-47.5 99l-24 175l-92 1q-47 1 -78 -22.5t-37 -64.5l-25 -169h174q28 0 45.5 -16.5t20.5 -46.5l2 -24q3 -31 -18 -68.5t-69 -64t-121 -26.5h-42q-94 0 -147.5 48zM166 -305h208v-55
h-208v55zM505 513v-40h-216v40h64l-9 47q-2 8 -2 24q0 40 24.5 66t67.5 30l32 5l5 -39l-26 -4q-34 -5 -50 -18.5t-16 -39.5q0 -5 2 -21l9 -50h115z" />
    <glyph glyph-name="uniFC6A" unicode="&#xfc6a;" horiz-adv-x="624" arabic-form="final" 
d="M81 -110q53 22 84 46v370q0 29 19 53l11 14h156q45 0 81 -20.5t56.5 -57t20.5 -81.5v-160h116q9 0 15.5 -7.5t6.5 -19.5q0 -11 -6.5 -19t-15.5 -8h-107q-23 0 -38.5 15.5t-15.5 38.5v157q0 47 -30.5 78t-77.5 31h-147v-351q0 -35 -21.5 -66t-64.5 -49l-130 -52l-17 46z
M347 -105h77v-72h-77v72z" />
    <glyph glyph-name="uniFC6B" unicode="&#xfc6b;" horiz-adv-x="624" arabic-form="final" 
d="M81 -110q53 22 84 46v370q0 29 19 53l11 14h156q45 0 81 -20.5t56.5 -57t20.5 -81.5v-160h116q9 0 15.5 -7.5t6.5 -19.5q0 -11 -6.5 -19t-15.5 -8h-107q-23 0 -38.5 15.5t-15.5 38.5v157q0 47 -30.5 78t-77.5 31h-147v-351q0 -35 -21.5 -66t-64.5 -49l-130 -52l-17 46z
M141 553h77v-72h-77v72zM347 -105h77v-72h-77v72z" />
    <glyph glyph-name="uniFC6D" unicode="&#xfc6d;" horiz-adv-x="967" arabic-form="final" 
d="M267 382h77v-72h-77v72zM137 -144q-53 48 -53 134q0 24 7 64l24 130h42l-24 -137q-5 -30 -5 -49q0 -65 40 -100.5t115 -35.5h110q78 0 118 32v412q0 31 18 53l12 14h150q46 0 82.5 -20.5t57 -57t20.5 -81.5v-160h116q9 0 15.5 -7.5t6.5 -19.5q0 -11 -6.5 -19t-15.5 -8
h-106q-24 0 -39.5 15.5t-15.5 38.5v157q0 47 -31 78t-79 31h-143l-2 -404q0 -47 -41 -77.5t-111 -30.5h-115q-94 0 -147 48zM674 -105h77v-72h-77v72z" />
    <glyph glyph-name="uniFC6E" unicode="&#xfc6e;" horiz-adv-x="749" arabic-form="final" 
d="M129.5 -144q-53.5 48 -53.5 134q0 24 7 64l23 130h43l-25 -142q-5 -28 -5 -47q0 -63 40.5 -98t115.5 -35h39q69 0 113 23.5t64 65.5l-6 49h-175q-30 0 -48 19t-18 49q0 10 1 15l21 145q9 65 56.5 102t117.5 35l95 -2l13 -20q8 -11 11 -18.5t5 -22.5l22 -163
q12 -85 103 -85h60q9 0 15.5 -7.5t6.5 -19.5q0 -11 -6.5 -19t-15.5 -8h-59q-63 0 -101.5 35t-47.5 99l-24 175l-92 1q-47 1 -78 -22.5t-37 -64.5l-25 -169h174q28 0 45.5 -16.5t20.5 -46.5l2 -24q3 -31 -18 -68.5t-69 -64t-121 -26.5h-42q-94 0 -147.5 48zM557 -174h77v-72
h-77v72z" />
    <glyph glyph-name="uniFC6F" unicode="&#xfc6f;" horiz-adv-x="749" arabic-form="final" 
d="M129.5 -144q-53.5 48 -53.5 134q0 24 7 64l23 130h43l-25 -142q-5 -28 -5 -47q0 -63 40.5 -98t115.5 -35h39q69 0 113 23.5t64 65.5l-6 49h-175q-30 0 -48 19t-18 49q0 10 1 15l21 145q9 65 56.5 102t117.5 35l95 -2l13 -20q8 -11 11 -18.5t5 -22.5l22 -163
q12 -85 103 -85h60q9 0 15.5 -7.5t6.5 -19.5q0 -11 -6.5 -19t-15.5 -8h-59q-63 0 -101.5 35t-47.5 99l-24 175l-92 1q-47 1 -78 -22.5t-37 -64.5l-25 -169h174q28 0 45.5 -16.5t20.5 -46.5l2 -24q3 -31 -18 -68.5t-69 -64t-121 -26.5h-42q-94 0 -147.5 48zM557 -174h77v-72
h-77v72zM165 -277h208v-55h-208v55z" />
    <glyph glyph-name="uniFC70" unicode="&#xfc70;" horiz-adv-x="624" arabic-form="final" 
d="M81 -110q53 22 84 46v370q0 29 19 53l11 14h156q45 0 81 -20.5t56.5 -57t20.5 -81.5v-160h116q9 0 15.5 -7.5t6.5 -19.5q0 -11 -6.5 -19t-15.5 -8h-107q-23 0 -38.5 15.5t-15.5 38.5v157q0 47 -30.5 78t-77.5 31h-147v-351q0 -35 -21.5 -66t-64.5 -49l-130 -52l-17 46z
M288 546h208v-55h-208v55z" />
    <glyph glyph-name="uniFC71" unicode="&#xfc71;" horiz-adv-x="624" arabic-form="final" 
d="M81 -110q53 22 84 46v370q0 29 19 53l11 14h156q45 0 81 -20.5t56.5 -57t20.5 -81.5v-160h116q9 0 15.5 -7.5t6.5 -19.5q0 -11 -6.5 -19t-15.5 -8h-107q-23 0 -38.5 15.5t-15.5 38.5v157q0 47 -30.5 78t-77.5 31h-147v-351q0 -35 -21.5 -66t-64.5 -49l-130 -52l-17 46z
M116 552h77v-72h-77v72zM296 546h208v-55h-208v55z" />
    <glyph glyph-name="uniFC73" unicode="&#xfc73;" horiz-adv-x="967" arabic-form="final" 
d="M267 382h77v-72h-77v72zM137 -144q-53 48 -53 134q0 24 7 64l24 130h42l-24 -137q-5 -30 -5 -49q0 -65 40 -100.5t115 -35.5h110q78 0 118 32v412q0 31 18 53l12 14h150q46 0 82.5 -20.5t57 -57t20.5 -81.5v-160h116q9 0 15.5 -7.5t6.5 -19.5q0 -11 -6.5 -19t-15.5 -8
h-106q-24 0 -39.5 15.5t-15.5 38.5v157q0 47 -31 78t-79 31h-143l-2 -404q0 -47 -41 -77.5t-111 -30.5h-115q-94 0 -147 48zM536 558h208v-55h-208v55z" />
    <glyph glyph-name="uniFC74" unicode="&#xfc74;" horiz-adv-x="749" arabic-form="final" 
d="M129.5 -144q-53.5 48 -53.5 134q0 24 7 64l23 130h43l-25 -142q-5 -28 -5 -47q0 -63 40.5 -98t115.5 -35h39q69 0 113 23.5t64 65.5l-6 49h-175q-30 0 -48 19t-18 49q0 10 1 15l21 145q9 65 56.5 102t117.5 35l95 -2l13 -20q8 -11 11 -18.5t5 -22.5l22 -163
q12 -85 103 -85h60q9 0 15.5 -7.5t6.5 -19.5q0 -11 -6.5 -19t-15.5 -8h-59q-63 0 -101.5 35t-47.5 99l-24 175l-92 1q-47 1 -78 -22.5t-37 -64.5l-25 -169h174q28 0 45.5 -16.5t20.5 -46.5l2 -24q3 -31 -18 -68.5t-69 -64t-121 -26.5h-42q-94 0 -147.5 48zM315 542h208v-55
h-208v55z" />
    <glyph glyph-name="uniFC75" unicode="&#xfc75;" horiz-adv-x="749" arabic-form="final" 
d="M129.5 -144q-53.5 48 -53.5 134q0 24 7 64l23 130h43l-25 -142q-5 -28 -5 -47q0 -63 40.5 -98t115.5 -35h39q69 0 113 23.5t64 65.5l-6 49h-175q-30 0 -48 19t-18 49q0 10 1 15l21 145q9 65 56.5 102t117.5 35l95 -2l13 -20q8 -11 11 -18.5t5 -22.5l22 -163
q12 -85 103 -85h60q9 0 15.5 -7.5t6.5 -19.5q0 -11 -6.5 -19t-15.5 -8h-59q-63 0 -101.5 35t-47.5 99l-24 175l-92 1q-47 1 -78 -22.5t-37 -64.5l-25 -169h174q28 0 45.5 -16.5t20.5 -46.5l2 -24q3 -31 -18 -68.5t-69 -64t-121 -26.5h-42q-94 0 -147.5 48zM323 526h208v-55
h-208v55zM161 -290h208v-55h-208v55z" />
    <glyph glyph-name="uniFC76" unicode="&#xfc76;" horiz-adv-x="624" arabic-form="final" 
d="M81 -110q53 22 84 46v370q0 29 19 53l11 14h156q45 0 81 -20.5t56.5 -57t20.5 -81.5v-160h116q9 0 15.5 -7.5t6.5 -19.5q0 -11 -6.5 -19t-15.5 -8h-107q-23 0 -38.5 15.5t-15.5 38.5v157q0 47 -30.5 78t-77.5 31h-147v-351q0 -35 -21.5 -66t-64.5 -49l-130 -52l-17 46z
M335 572v68h71v-68h-71zM266 524h209v-55h-209v55z" />
    <glyph glyph-name="uniFC77" unicode="&#xfc77;" horiz-adv-x="624" arabic-form="final" 
d="M81 -110q53 22 84 46v370q0 29 19 53l11 14h156q45 0 81 -20.5t56.5 -57t20.5 -81.5v-160h116q9 0 15.5 -7.5t6.5 -19.5q0 -11 -6.5 -19t-15.5 -8h-107q-23 0 -38.5 15.5t-15.5 38.5v157q0 47 -30.5 78t-77.5 31h-147v-351q0 -35 -21.5 -66t-64.5 -49l-130 -52l-17 46z
M136 539h77v-72h-77v72zM387 572v68h71v-68h-71zM318 524h209v-55h-209v55z" />
    <glyph glyph-name="uniFC79" unicode="&#xfc79;" horiz-adv-x="967" arabic-form="final" 
d="M267 382h77v-72h-77v72zM137 -144q-53 48 -53 134q0 24 7 64l24 130h42l-24 -137q-5 -30 -5 -49q0 -65 40 -100.5t115 -35.5h110q78 0 118 32v412q0 31 18 53l12 14h150q46 0 82.5 -20.5t57 -57t20.5 -81.5v-160h116q9 0 15.5 -7.5t6.5 -19.5q0 -11 -6.5 -19t-15.5 -8
h-106q-24 0 -39.5 15.5t-15.5 38.5v157q0 47 -31 78t-79 31h-143l-2 -404q0 -47 -41 -77.5t-111 -30.5h-115q-94 0 -147 48zM595 576v68h71v-68h-71zM526 528h209v-55h-209v55z" />
    <glyph glyph-name="uniFC7A" unicode="&#xfc7a;" horiz-adv-x="749" arabic-form="final" 
d="M129.5 -144q-53.5 48 -53.5 134q0 24 7 64l23 130h43l-25 -142q-5 -28 -5 -47q0 -63 40.5 -98t115.5 -35h39q69 0 113 23.5t64 65.5l-6 49h-175q-30 0 -48 19t-18 49q0 10 1 15l21 145q9 65 56.5 102t117.5 35l95 -2l13 -20q8 -11 11 -18.5t5 -22.5l22 -163
q12 -85 103 -85h60q9 0 15.5 -7.5t6.5 -19.5q0 -11 -6.5 -19t-15.5 -8h-59q-63 0 -101.5 35t-47.5 99l-24 175l-92 1q-47 1 -78 -22.5t-37 -64.5l-25 -169h174q28 0 45.5 -16.5t20.5 -46.5l2 -24q3 -31 -18 -68.5t-69 -64t-121 -26.5h-42q-94 0 -147.5 48zM392 577v68h71
v-68h-71zM323 529h209v-55h-209v55z" />
    <glyph glyph-name="uniFC7B" unicode="&#xfc7b;" horiz-adv-x="749" arabic-form="final" 
d="M129.5 -144q-53.5 48 -53.5 134q0 24 7 64l23 130h43l-25 -142q-5 -28 -5 -47q0 -63 40.5 -98t115.5 -35h39q69 0 113 23.5t64 65.5l-6 49h-175q-30 0 -48 19t-18 49q0 10 1 15l21 145q9 65 56.5 102t117.5 35l95 -2l13 -20q8 -11 11 -18.5t5 -22.5l22 -163
q12 -85 103 -85h60q9 0 15.5 -7.5t6.5 -19.5q0 -11 -6.5 -19t-15.5 -8h-59q-63 0 -101.5 35t-47.5 99l-24 175l-92 1q-47 1 -78 -22.5t-37 -64.5l-25 -169h174q28 0 45.5 -16.5t20.5 -46.5l2 -24q3 -31 -18 -68.5t-69 -64t-121 -26.5h-42q-94 0 -147.5 48zM364 584v68h71
v-68h-71zM295 536h209v-55h-209v55zM171 -275h208v-55h-208v55z" />
    <glyph glyph-name="uniFC7C" unicode="&#xfc7c;" horiz-adv-x="1039" arabic-form="final" 
d="M138 163l-24 -107q-9 -37 -9 -70q0 -71 42 -108t121 -37h49q67 0 110.5 23t61.5 66l-8 70h-201l6 54h306q-18 16 -28 39t-10 51q0 20 4 36l43 215q6 32 27 51l26 24l127 -43q69 -24 100 -69t27 -118l-10 -186h141q9 0 15.5 -7.5t6.5 -19.5q0 -11 -6.5 -19t-15.5 -8h-337
q-49 0 -83 25l-8 -8q-9 -9 -18.5 -13t-26.5 -4h-40l3 -28q1 -6 1 -18q0 -41 -22.5 -79t-70.5 -63t-120 -25h-47q-100 0 -154.5 50.5t-54.5 140.5q0 37 11 84l24 101h42zM600 156q0 -45 28.5 -73.5t73.5 -28.5h152l10 180q3 58 -19 89t-76 50l-121 41l-45 -232q-3 -13 -3 -26
zM626 632h77v-72h-77v72z" />
    <glyph glyph-name="uniFC7D" unicode="&#xfc7d;" horiz-adv-x="1039" arabic-form="final" 
d="M138 163l-24 -107q-9 -37 -9 -70q0 -71 42 -108t121 -37h49q67 0 110.5 23t61.5 66l-8 70h-201l6 54h306q-18 16 -28 39t-10 51q0 20 4 36l43 215q6 32 27 51l26 24l127 -43q69 -24 100 -69t27 -118l-10 -186h141q9 0 15.5 -7.5t6.5 -19.5q0 -11 -6.5 -19t-15.5 -8h-337
q-49 0 -83 25l-8 -8q-9 -9 -18.5 -13t-26.5 -4h-40l3 -28q1 -6 1 -18q0 -41 -22.5 -79t-70.5 -63t-120 -25h-47q-100 0 -154.5 50.5t-54.5 140.5q0 37 11 84l24 101h42zM600 156q0 -45 28.5 -73.5t73.5 -28.5h152l10 180q3 58 -19 89t-76 50l-121 41l-45 -232q-3 -13 -3 -26
zM627 630h77v-72h-77v72zM179 -305h208v-55h-208v55z" />
    <glyph glyph-name="uniFC7E" unicode="&#xfc7e;" horiz-adv-x="1039" arabic-form="final" 
d="M138 163l-24 -107q-9 -37 -9 -70q0 -71 42 -108t121 -37h49q67 0 110.5 23t61.5 66l-8 70h-201l6 54h306q-18 16 -28 39t-10 51q0 20 4 36l43 215q6 32 27 51l26 24l127 -43q69 -24 100 -69t27 -118l-10 -186h141q9 0 15.5 -7.5t6.5 -19.5q0 -11 -6.5 -19t-15.5 -8h-337
q-49 0 -83 25l-8 -8q-9 -9 -18.5 -13t-26.5 -4h-40l3 -28q1 -6 1 -18q0 -41 -22.5 -79t-70.5 -63t-120 -25h-47q-100 0 -154.5 50.5t-54.5 140.5q0 37 11 84l24 101h42zM600 156q0 -45 28.5 -73.5t73.5 -28.5h152l10 180q3 58 -19 89t-76 50l-121 41l-45 -232q-3 -13 -3 -26
zM599 603h208v-55h-208v55z" />
    <glyph glyph-name="uniFC7F" unicode="&#xfc7f;" horiz-adv-x="1039" arabic-form="final" 
d="M138 163l-24 -107q-9 -37 -9 -70q0 -71 42 -108t121 -37h49q67 0 110.5 23t61.5 66l-8 70h-201l6 54h306q-18 16 -28 39t-10 51q0 20 4 36l43 215q6 32 27 51l26 24l127 -43q69 -24 100 -69t27 -118l-10 -186h141q9 0 15.5 -7.5t6.5 -19.5q0 -11 -6.5 -19t-15.5 -8h-337
q-49 0 -83 25l-8 -8q-9 -9 -18.5 -13t-26.5 -4h-40l3 -28q1 -6 1 -18q0 -41 -22.5 -79t-70.5 -63t-120 -25h-47q-100 0 -154.5 50.5t-54.5 140.5q0 37 11 84l24 101h42zM600 156q0 -45 28.5 -73.5t73.5 -28.5h152l10 180q3 58 -19 89t-76 50l-121 41l-45 -232q-3 -13 -3 -26
zM602 603h208v-55h-208v55zM184 -298h208v-55h-208v55z" />
    <glyph glyph-name="uniFC83" unicode="&#xfc83;" horiz-adv-x="952" arabic-form="final" 
d="M138 184l-28 -160q-5 -28 -5 -48q0 -65 40 -100t115 -35h56q68 0 111 23t61 66l-8 70h-205l6 54h473l-5 26l-33 148q-9 47 -38.5 72.5t-75.5 25.5h-200l-35 73l206 208l20 -45l-183 -186h184q65 0 108.5 -34t55.5 -92l31 -132q6 -27 27 -45.5t60 -18.5h77q9 0 15 -8
t6 -19t-6 -19t-15 -8h-77q-59 0 -91 37l-11 -14q-13 -13 -23.5 -18t-29.5 -5h-196q1 -6 2 -14.5t1 -13.5q1 -6 1 -18q0 -41 -22.5 -79t-70 -63t-119.5 -25h-57q-93 0 -145.5 48t-52.5 136q0 29 6 62l27 151h43z" />
    <glyph glyph-name="uniFC84" unicode="&#xfc84;" horiz-adv-x="952" arabic-form="final" 
d="M138 184l-28 -160q-5 -28 -5 -48q0 -65 40 -100t115 -35h56q68 0 111 23t61 66l-8 70h-205l6 54h473l-5 26l-33 148q-9 47 -38.5 72.5t-75.5 25.5h-200l-35 73l206 208l20 -45l-183 -186h184q65 0 108.5 -34t55.5 -92l31 -132q6 -27 27 -45.5t60 -18.5h77q9 0 15 -8
t6 -19t-6 -19t-15 -8h-77q-59 0 -91 37l-11 -14q-13 -13 -23.5 -18t-29.5 -5h-196q1 -6 2 -14.5t1 -13.5q1 -6 1 -18q0 -41 -22.5 -79t-70 -63t-119.5 -25h-57q-93 0 -145.5 48t-52.5 136q0 29 6 62l27 151h43zM159 -292h208v-55h-208v55z" />
    <glyph glyph-name="uniFC87" unicode="&#xfc87;" horiz-adv-x="933" arabic-form="final" 
d="M152 163l-24 -107q-9 -37 -9 -70q0 -71 42 -108t122 -37h48q68 0 111 23t61 66l-8 70h-201l6 54h279q61 0 98.5 22t51.5 62l-4 433l44 12v-406q0 -55 32 -89t90 -34h43q9 0 15 -8t6 -19t-6 -19t-15 -8h-42q-53 0 -88.5 26t-48.5 72q-18 -45 -63 -71.5t-111 -26.5h-41
q1 -6 2 -14.5t1 -13.5q1 -6 1 -18q0 -41 -22.5 -79t-70 -63t-119.5 -25h-47q-100 0 -154.5 50.5t-54.5 140.5q0 41 10 84l24 101h42zM170 -305h208v-55h-208v55z" />
    <glyph glyph-name="uniFC8A" unicode="&#xfc8a;" horiz-adv-x="624" arabic-form="final" 
d="M81 -110q53 22 84 46v370q0 29 19 53l11 14h156q45 0 81 -20.5t56.5 -57t20.5 -81.5v-160h116q9 0 15.5 -7.5t6.5 -19.5q0 -11 -6.5 -19t-15.5 -8h-107q-23 0 -38.5 15.5t-15.5 38.5v157q0 47 -30.5 78t-77.5 31h-147v-351q0 -35 -21.5 -66t-64.5 -49l-130 -52l-17 46z
M348 557h77v-72h-77v72z" />
    <glyph glyph-name="uniFC8B" unicode="&#xfc8b;" horiz-adv-x="624" arabic-form="final" 
d="M81 -110q53 22 84 46v370q0 29 19 53l11 14h156q45 0 81 -20.5t56.5 -57t20.5 -81.5v-160h116q9 0 15.5 -7.5t6.5 -19.5q0 -11 -6.5 -19t-15.5 -8h-107q-23 0 -38.5 15.5t-15.5 38.5v157q0 47 -30.5 78t-77.5 31h-147v-351q0 -35 -21.5 -66t-64.5 -49l-130 -52l-17 46z
M136 557h77v-72h-77v72zM368 557h77v-72h-77v72z" />
    <glyph glyph-name="uniFC8D" unicode="&#xfc8d;" horiz-adv-x="967" arabic-form="final" 
d="M267 382h77v-72h-77v72zM137 -144q-53 48 -53 134q0 24 7 64l24 130h42l-24 -137q-5 -30 -5 -49q0 -65 40 -100.5t115 -35.5h110q78 0 118 32v412q0 31 18 53l12 14h150q46 0 82.5 -20.5t57 -57t20.5 -81.5v-160h116q9 0 15.5 -7.5t6.5 -19.5q0 -11 -6.5 -19t-15.5 -8
h-106q-24 0 -39.5 15.5t-15.5 38.5v157q0 47 -31 78t-79 31h-143l-2 -404q0 -47 -41 -77.5t-111 -30.5h-115q-94 0 -147 48zM677 557h77v-72h-77v72z" />
    <glyph glyph-name="uniFC8E" unicode="&#xfc8e;" horiz-adv-x="749" arabic-form="final" 
d="M129.5 -144q-53.5 48 -53.5 134q0 24 7 64l23 130h43l-25 -142q-5 -28 -5 -47q0 -63 40.5 -98t115.5 -35h39q69 0 113 23.5t64 65.5l-6 49h-175q-30 0 -48 19t-18 49q0 10 1 15l21 145q9 65 56.5 102t117.5 35l95 -2l13 -20q8 -11 11 -18.5t5 -22.5l22 -163
q12 -85 103 -85h60q9 0 15.5 -7.5t6.5 -19.5q0 -11 -6.5 -19t-15.5 -8h-59q-63 0 -101.5 35t-47.5 99l-24 175l-92 1q-47 1 -78 -22.5t-37 -64.5l-25 -169h174q28 0 45.5 -16.5t20.5 -46.5l2 -24q3 -31 -18 -68.5t-69 -64t-121 -26.5h-42q-94 0 -147.5 48zM415 566h77v-72
h-77v72z" />
    <glyph glyph-name="uniFC8F" unicode="&#xfc8f;" horiz-adv-x="749" arabic-form="final" 
d="M129.5 -144q-53.5 48 -53.5 134q0 24 7 64l23 130h43l-25 -142q-5 -28 -5 -47q0 -63 40.5 -98t115.5 -35h39q69 0 113 23.5t64 65.5l-6 49h-175q-30 0 -48 19t-18 49q0 10 1 15l21 145q9 65 56.5 102t117.5 35l95 -2l13 -20q8 -11 11 -18.5t5 -22.5l22 -163
q12 -85 103 -85h60q9 0 15.5 -7.5t6.5 -19.5q0 -11 -6.5 -19t-15.5 -8h-59q-63 0 -101.5 35t-47.5 99l-24 175l-92 1q-47 1 -78 -22.5t-37 -64.5l-25 -169h174q28 0 45.5 -16.5t20.5 -46.5l2 -24q3 -31 -18 -68.5t-69 -64t-121 -26.5h-42q-94 0 -147.5 48zM389 563h77v-72
h-77v72zM158 -305h208v-55h-208v55z" />
    <glyph glyph-name="uniFC90" unicode="&#xfc90;" horiz-adv-x="608" arabic-form="final" 
d="M130.5 -162.5q-54.5 50.5 -54.5 140.5q0 41 10 84l28 122h42l-28 -128q-9 -39 -9 -70q0 -71 42 -108t122 -37h56q132 0 172 89l-9 70h-201l6 54h302q9 0 15.5 -7.5t6.5 -19.5q0 -11 -6.5 -19t-15.5 -8h-61l3 -28q1 -5 1 -16q0 -42 -22.5 -80.5t-70 -63.5t-120.5 -25h-54
q-100 0 -154.5 50.5zM142 413l33 8l-1 -179h-31z" />
    <glyph glyph-name="uniFC91" unicode="&#xfc91;" horiz-adv-x="624" arabic-form="final" 
d="M81 -110q53 22 84 46v370q0 29 19 53l11 14h156q45 0 81 -20.5t56.5 -57t20.5 -81.5v-160h116q9 0 15.5 -7.5t6.5 -19.5q0 -11 -6.5 -19t-15.5 -8h-107q-23 0 -38.5 15.5t-15.5 38.5v157q0 47 -30.5 78t-77.5 31h-147v-351q0 -35 -21.5 -66t-64.5 -49l-130 -52l-17 46z
M314 -116h208v-55h-208v55z" />
    <glyph glyph-name="uniFC92" unicode="&#xfc92;" horiz-adv-x="624" arabic-form="final" 
d="M81 -110q53 22 84 46v370q0 29 19 53l11 14h156q45 0 81 -20.5t56.5 -57t20.5 -81.5v-160h116q9 0 15.5 -7.5t6.5 -19.5q0 -11 -6.5 -19t-15.5 -8h-107q-23 0 -38.5 15.5t-15.5 38.5v157q0 47 -30.5 78t-77.5 31h-147v-351q0 -35 -21.5 -66t-64.5 -49l-130 -52l-17 46z
M322 -116h208v-55h-208v55zM116 550h77v-72h-77v72z" />
    <glyph glyph-name="uniFC95" unicode="&#xfc95;" horiz-adv-x="749" arabic-form="final" 
d="M129.5 -144q-53.5 48 -53.5 134q0 24 7 64l23 130h43l-25 -142q-5 -28 -5 -47q0 -63 40.5 -98t115.5 -35h39q69 0 113 23.5t64 65.5l-6 49h-175q-30 0 -48 19t-18 49q0 10 1 15l21 145q9 65 56.5 102t117.5 35l95 -2l13 -20q8 -11 11 -18.5t5 -22.5l22 -163
q12 -85 103 -85h60q9 0 15.5 -7.5t6.5 -19.5q0 -11 -6.5 -19t-15.5 -8h-59q-63 0 -101.5 35t-47.5 99l-24 175l-92 1q-47 1 -78 -22.5t-37 -64.5l-25 -169h174q28 0 45.5 -16.5t20.5 -46.5l2 -24q3 -31 -18 -68.5t-69 -64t-121 -26.5h-42q-94 0 -147.5 48zM506 -188h208v-55
h-208v55z" />
    <glyph glyph-name="uniFC96" unicode="&#xfc96;" horiz-adv-x="749" arabic-form="final" 
d="M129.5 -144q-53.5 48 -53.5 134q0 24 7 64l23 130h43l-25 -142q-5 -28 -5 -47q0 -63 40.5 -98t115.5 -35h39q69 0 113 23.5t64 65.5l-6 49h-175q-30 0 -48 19t-18 49q0 10 1 15l21 145q9 65 56.5 102t117.5 35l95 -2l13 -20q8 -11 11 -18.5t5 -22.5l22 -163
q12 -85 103 -85h60q9 0 15.5 -7.5t6.5 -19.5q0 -11 -6.5 -19t-15.5 -8h-59q-63 0 -101.5 35t-47.5 99l-24 175l-92 1q-47 1 -78 -22.5t-37 -64.5l-25 -169h174q28 0 45.5 -16.5t20.5 -46.5l2 -24q3 -31 -18 -68.5t-69 -64t-121 -26.5h-42q-94 0 -147.5 48zM172 -306h208v-55
h-208v55zM554 -186h208v-55h-208v55z" />
    <glyph glyph-name="uniFCD9" unicode="&#xfcd9;" horiz-adv-x="734" arabic-form="initial" 
d="M243 0h-244q-9 0 -15.5 7.5t-6.5 19.5q0 11 6.5 19t15.5 8h108l22 248q5 64 40 98t95 34q9 0 27 -2l70 -9l16 42l158 -80q40 -20 62 -54.5t31 -84.5l29 -178q1 -5 1 -14q0 -31 -19 -51l-26 -30l-262 63q-42 -36 -108 -36zM563.5 293.5q-15.5 23.5 -39.5 35.5l-136 70
l12 -240q2 -44 -17 -76l237 -58l-36 214q-5 31 -20.5 54.5zM332 82.5q29 28.5 25 83.5l-11 209l-63 7q-7 1 -20 1q-83 0 -90 -88l-20 -241h94q56 0 85 28.5zM346 736l33 8l-1 -179h-31z" />
    <glyph glyph-name="uniFCF5" unicode="&#xfcf5;" horiz-adv-x="1160" arabic-form="isolated" 
d="M114.5 -165q-52.5 48 -52.5 136q0 29 6 62l27 151h43l-28 -160q-5 -28 -5 -48q0 -65 40 -100t115 -35h56q68 0 111 23t61 66l-8 70h-194l6 54h265l-1 533l43 10v-309v-16v-9l114 134q69 81 145 81q34 0 71 -15l52 -21q32 -13 49 -31t23 -48l28 -163q3 -18 3 -34
q0 -47 -23 -84.5t-68 -59.5t-107 -22h-361q1 -6 2 -14.5t1 -13.5q1 -6 1 -18q0 -41 -22.5 -79t-70 -63t-119.5 -25h-57q-93 0 -145.5 48zM995 77.5q39 23.5 53 66.5l-42 238l-84 31q-39 14 -67 14q-32 0 -60 -16t-57 -50l-139 -163l1 -144h296q60 0 99 23.5z" />
    <glyph glyph-name="uniFCF6" unicode="&#xfcf6;" horiz-adv-x="1160" arabic-form="isolated" 
d="M114.5 -165q-52.5 48 -52.5 136q0 29 6 62l27 151h43l-28 -160q-5 -28 -5 -48q0 -65 40 -100t115 -35h56q68 0 111 23t61 66l-8 70h-194l6 54h265l-1 533l43 10v-309v-16v-9l114 134q69 81 145 81q34 0 71 -15l52 -21q32 -13 49 -31t23 -48l28 -163q3 -18 3 -34
q0 -47 -23 -84.5t-68 -59.5t-107 -22h-361q1 -6 2 -14.5t1 -13.5q1 -6 1 -18q0 -41 -22.5 -79t-70 -63t-119.5 -25h-57q-93 0 -145.5 48zM995 77.5q39 23.5 53 66.5l-42 238l-84 31q-39 14 -67 14q-32 0 -60 -16t-57 -50l-139 -163l1 -144h296q60 0 99 23.5zM166 -306h208
v-55h-208v55z" />
    <glyph glyph-name="uniFCF7" unicode="&#xfcf7;" horiz-adv-x="998" arabic-form="isolated" 
d="M114.5 -165q-52.5 48 -52.5 136q0 29 6 62l27 151h43l-28 -160q-5 -28 -5 -48q0 -65 40 -100t115 -35h56q68 0 111 23t61 66l-8 70h-201l6 54h304l-32 141q-8 38 -8 68q0 70 34 120t88 68q17 5 27 5q12 0 41 -9l56 -21l-9 -49l-89 33l-21 -10q-39 -21 -61.5 -55
t-22.5 -81q0 -26 7 -53l35 -157h288l-12 -54h-385q1 -6 2 -14.5t1 -13.5q1 -6 1 -18q0 -41 -22.5 -79t-70 -63t-119.5 -25h-57q-93 0 -145.5 48z" />
    <glyph glyph-name="uniFCF8" unicode="&#xfcf8;" horiz-adv-x="998" arabic-form="isolated" 
d="M114.5 -165q-52.5 48 -52.5 136q0 29 6 62l27 151h43l-28 -160q-5 -28 -5 -48q0 -65 40 -100t115 -35h56q68 0 111 23t61 66l-8 70h-201l6 54h304l-32 141q-8 38 -8 68q0 70 34 120t88 68q17 5 27 5q12 0 41 -9l56 -21l-9 -49l-89 33l-21 -10q-39 -21 -61.5 -55
t-22.5 -81q0 -26 7 -53l35 -157h288l-12 -54h-385q1 -6 2 -14.5t1 -13.5q1 -6 1 -18q0 -41 -22.5 -79t-70 -63t-119.5 -25h-57q-93 0 -145.5 48zM180 -303h208v-55h-208v55z" />
    <glyph glyph-name="uniFCF9" unicode="&#xfcf9;" horiz-adv-x="998" arabic-form="isolated" 
d="M114.5 -165q-52.5 48 -52.5 136q0 29 6 62l27 151h43l-28 -160q-5 -28 -5 -48q0 -65 40 -100t115 -35h56q68 0 111 23t61 66l-8 70h-201l6 54h304l-32 141q-8 38 -8 68q0 70 34 120t88 68q17 5 27 5q12 0 41 -9l56 -21l-9 -49l-89 33l-21 -10q-39 -21 -61.5 -55
t-22.5 -81q0 -26 7 -53l35 -157h288l-12 -54h-385q1 -6 2 -14.5t1 -13.5q1 -6 1 -18q0 -41 -22.5 -79t-70 -63t-119.5 -25h-57q-93 0 -145.5 48zM640 619h77v-72h-77v72z" />
    <glyph glyph-name="uniFCFA" unicode="&#xfcfa;" horiz-adv-x="998" arabic-form="isolated" 
d="M114.5 -165q-52.5 48 -52.5 136q0 29 6 62l27 151h43l-28 -160q-5 -28 -5 -48q0 -65 40 -100t115 -35h56q68 0 111 23t61 66l-8 70h-201l6 54h304l-32 141q-8 38 -8 68q0 70 34 120t88 68q17 5 27 5q12 0 41 -9l56 -21l-9 -49l-89 33l-21 -10q-39 -21 -61.5 -55
t-22.5 -81q0 -26 7 -53l35 -157h288l-12 -54h-385q1 -6 2 -14.5t1 -13.5q1 -6 1 -18q0 -41 -22.5 -79t-70 -63t-119.5 -25h-57q-93 0 -145.5 48zM647 619h77v-72h-77v72zM183 -302h208v-55h-208v55z" />
    <glyph glyph-name="uniFCFB" unicode="&#xfcfb;" horiz-adv-x="1202" arabic-form="isolated" 
d="M115.5 -142q-54.5 50 -54.5 140q0 38 11 85l24 101h42l-24 -106q-9 -39 -9 -71q0 -71 42 -108t120 -37h54q69 0 113.5 23.5t63.5 65.5l-6 49h-189q-31 0 -48.5 19t-17.5 49q0 10 1 15l21 145q9 65 56.5 102t117.5 35l109 -2l14 -20q7 -11 10 -18.5t5 -22.5l22 -163
q12 -85 104 -85h57q38 0 61 24.5t23 63.5v125h45v-133q0 -27 -10 -47l204 -53l-68 367l44 23l63 -349q2 -12 2 -16q0 -23 -19 -45l-28 -33l-222 58q-39 -39 -103 -39h-49q-63 0 -101.5 35t-47.5 99l-24 175l-106 1q-48 1 -78.5 -22.5t-36.5 -64.5l-26 -169h189
q28 0 45.5 -16.5t20.5 -46.5l2 -24q3 -31 -18 -68.5t-69 -64t-121 -26.5h-56q-100 0 -154.5 50z" />
    <glyph glyph-name="uniFCFC" unicode="&#xfcfc;" horiz-adv-x="1202" arabic-form="isolated" 
d="M115.5 -142q-54.5 50 -54.5 140q0 38 11 85l24 101h42l-24 -106q-9 -39 -9 -71q0 -71 42 -108t120 -37h54q69 0 113.5 23.5t63.5 65.5l-6 49h-189q-31 0 -48.5 19t-17.5 49q0 10 1 15l21 145q9 65 56.5 102t117.5 35l109 -2l14 -20q7 -11 10 -18.5t5 -22.5l22 -163
q12 -85 104 -85h57q38 0 61 24.5t23 63.5v125h45v-133q0 -27 -10 -47l204 -53l-68 367l44 23l63 -349q2 -12 2 -16q0 -23 -19 -45l-28 -33l-222 58q-39 -39 -103 -39h-49q-63 0 -101.5 35t-47.5 99l-24 175l-106 1q-48 1 -78.5 -22.5t-36.5 -64.5l-26 -169h189
q28 0 45.5 -16.5t20.5 -46.5l2 -24q3 -31 -18 -68.5t-69 -64t-121 -26.5h-56q-100 0 -154.5 50zM177 -283h208v-55h-208v55z" />
    <glyph glyph-name="uniFCFD" unicode="&#xfcfd;" horiz-adv-x="1202" arabic-form="isolated" 
d="M115.5 -142q-54.5 50 -54.5 140q0 38 11 85l24 101h42l-24 -106q-9 -39 -9 -71q0 -71 42 -108t120 -37h54q69 0 113.5 23.5t63.5 65.5l-6 49h-189q-31 0 -48.5 19t-17.5 49q0 10 1 15l21 145q9 65 56.5 102t117.5 35l109 -2l14 -20q7 -11 10 -18.5t5 -22.5l22 -163
q12 -85 104 -85h57q38 0 61 24.5t23 63.5v125h45v-133q0 -27 -10 -47l204 -53l-68 367l44 23l63 -349q2 -12 2 -16q0 -23 -19 -45l-28 -33l-222 58q-39 -39 -103 -39h-49q-63 0 -101.5 35t-47.5 99l-24 175l-106 1q-48 1 -78.5 -22.5t-36.5 -64.5l-26 -169h189
q28 0 45.5 -16.5t20.5 -46.5l2 -24q3 -31 -18 -68.5t-69 -64t-121 -26.5h-56q-100 0 -154.5 50zM802 504v68h71v-68h-71zM733 456h209v-55h-209v55z" />
    <glyph glyph-name="uniFCFE" unicode="&#xfcfe;" horiz-adv-x="1202" arabic-form="isolated" 
d="M115.5 -142q-54.5 50 -54.5 140q0 38 11 85l24 101h42l-24 -106q-9 -39 -9 -71q0 -71 42 -108t120 -37h54q69 0 113.5 23.5t63.5 65.5l-6 49h-189q-31 0 -48.5 19t-17.5 49q0 10 1 15l21 145q9 65 56.5 102t117.5 35l109 -2l14 -20q7 -11 10 -18.5t5 -22.5l22 -163
q12 -85 104 -85h57q38 0 61 24.5t23 63.5v125h45v-133q0 -27 -10 -47l204 -53l-68 367l44 23l63 -349q2 -12 2 -16q0 -23 -19 -45l-28 -33l-222 58q-39 -39 -103 -39h-49q-63 0 -101.5 35t-47.5 99l-24 175l-106 1q-48 1 -78.5 -22.5t-36.5 -64.5l-26 -169h189
q28 0 45.5 -16.5t20.5 -46.5l2 -24q3 -31 -18 -68.5t-69 -64t-121 -26.5h-56q-100 0 -154.5 50zM167 -281h208v-55h-208v55zM802 504v68h71v-68h-71zM733 456h209v-55h-209v55z" />
    <glyph glyph-name="uniFCFF" unicode="&#xfcff;" horiz-adv-x="986" arabic-form="isolated" 
d="M114.5 -165q-52.5 48 -52.5 136q0 29 6 62l27 151h43l-28 -160q-5 -28 -5 -48q0 -65 40 -100t115 -35h56q133 0 173 89l-8 70h-202l6 54h495l-28 205q-9 68 -44 101t-91 33q-18 0 -37 -3l-123 -21l5 54l116 20q21 3 40 3q72 0 120 -43.5t59 -122.5l31 -226h83l-16 -54
h-370q1 -6 2 -14.5t1 -13.5q1 -5 1 -16q0 -42 -22 -80.5t-70 -63.5t-120 -25h-57q-93 0 -145.5 48z" />
    <glyph glyph-name="uniFD00" unicode="&#xfd00;" horiz-adv-x="872" arabic-form="isolated" 
d="M166 -297h208v-55h-208v55zM114.5 -165q-52.5 48 -52.5 136q0 29 6 62l27 151h43l-28 -160q-5 -28 -5 -48q0 -65 40 -100t115 -35h56q133 0 173 89l-8 70h-202l6 54h495l-28 205q-9 68 -44 101t-91 33q-18 0 -37 -3l-123 -21l5 54l116 20q21 3 40 3q72 0 120 -43.5
t59 -122.5l31 -226h83l-16 -54h-370q1 -6 2 -14.5t1 -13.5q1 -5 1 -16q0 -42 -22 -80.5t-70 -63.5t-120 -25h-57q-93 0 -145.5 48z" />
    <glyph glyph-name="uniFD01" unicode="&#xfd01;" horiz-adv-x="986" arabic-form="isolated" 
d="M114.5 -165q-52.5 48 -52.5 136q0 29 6 62l27 151h43l-28 -160q-5 -28 -5 -48q0 -65 40 -100t115 -35h56q133 0 173 89l-8 70h-202l6 54h495l-28 205q-9 68 -44 101t-91 33q-18 0 -37 -3l-123 -21l5 54l116 20q21 3 40 3q72 0 120 -43.5t59 -122.5l31 -226h83l-16 -54
h-370q1 -6 2 -14.5t1 -13.5q1 -5 1 -16q0 -42 -22 -80.5t-70 -63.5t-120 -25h-57q-93 0 -145.5 48zM665 -114h77v-72h-77v72z" />
    <glyph glyph-name="uniFD02" unicode="&#xfd02;" horiz-adv-x="986" arabic-form="isolated" 
d="M114.5 -165q-52.5 48 -52.5 136q0 29 6 62l27 151h43l-28 -160q-5 -28 -5 -48q0 -65 40 -100t115 -35h56q133 0 173 89l-8 70h-202l6 54h495l-28 205q-9 68 -44 101t-91 33q-18 0 -37 -3l-123 -21l5 54l116 20q21 3 40 3q72 0 120 -43.5t59 -122.5l31 -226h83l-16 -54
h-370q1 -6 2 -14.5t1 -13.5q1 -5 1 -16q0 -42 -22 -80.5t-70 -63.5t-120 -25h-57q-93 0 -145.5 48zM176 -302h208v-55h-208v55zM665 -114h77v-72h-77v72z" />
    <glyph glyph-name="uniFD03" unicode="&#xfd03;" horiz-adv-x="986" arabic-form="isolated" 
d="M114.5 -165q-52.5 48 -52.5 136q0 29 6 62l27 151h43l-28 -160q-5 -28 -5 -48q0 -65 40 -100t115 -35h56q133 0 173 89l-8 70h-202l6 54h495l-28 205q-9 68 -44 101t-91 33q-18 0 -37 -3l-123 -21l5 54l116 20q21 3 40 3q72 0 120 -43.5t59 -122.5l31 -226h83l-16 -54
h-370q1 -6 2 -14.5t1 -13.5q1 -5 1 -16q0 -42 -22 -80.5t-70 -63.5t-120 -25h-57q-93 0 -145.5 48zM566 611h77v-72h-77v72z" />
    <glyph glyph-name="uniFD04" unicode="&#xfd04;" horiz-adv-x="986" arabic-form="isolated" 
d="M114.5 -165q-52.5 48 -52.5 136q0 29 6 62l27 151h43l-28 -160q-5 -28 -5 -48q0 -65 40 -100t115 -35h56q133 0 173 89l-8 70h-202l6 54h495l-28 205q-9 68 -44 101t-91 33q-18 0 -37 -3l-123 -21l5 54l116 20q21 3 40 3q72 0 120 -43.5t59 -122.5l31 -226h83l-16 -54
h-370q1 -6 2 -14.5t1 -13.5q1 -5 1 -16q0 -42 -22 -80.5t-70 -63.5t-120 -25h-57q-93 0 -145.5 48zM169 -303h208v-55h-208v55zM566 611h77v-72h-77v72z" />
    <glyph glyph-name="uniFD05" unicode="&#xfd05;" horiz-adv-x="1152" arabic-form="isolated" 
d="M115.5 -142q-54.5 50 -54.5 140q0 38 11 85l24 101h42l-24 -106q-9 -39 -9 -71q0 -71 42 -108t120 -37h54q69 0 113.5 23.5t63.5 65.5l-6 49h-189q-31 0 -48.5 19t-17.5 49q0 10 1 15l21 145q9 65 56.5 102t117.5 35l109 -2l14 -20q7 -11 10 -18.5t5 -22.5l7 -53l127 148
q69 81 145 81q34 0 71 -15l51 -20q32 -13 49.5 -31t23.5 -49l28 -162q3 -18 3 -34q0 -48 -24 -86t-69 -59.5t-106 -21.5h-180q-63 0 -101.5 35.5t-47.5 98.5l-24 175l-106 1q-48 1 -78.5 -22.5t-36.5 -64.5l-26 -169h189q28 0 45.5 -16.5t20.5 -46.5l2 -24q3 -31 -18 -68.5
t-69 -64t-121 -26.5h-56q-100 0 -154.5 50zM986 77.5q39 23.5 53 66.5l-42 238l-83 31q-39 14 -67 14q-32 0 -60 -16t-57 -50l-144 -167l7 -55q12 -85 106 -85h188q60 0 99 23.5z" />
    <glyph glyph-name="uniFD06" unicode="&#xfd06;" horiz-adv-x="1152" arabic-form="isolated" 
d="M115.5 -142q-54.5 50 -54.5 140q0 38 11 85l24 101h42l-24 -106q-9 -39 -9 -71q0 -71 42 -108t120 -37h54q69 0 113.5 23.5t63.5 65.5l-6 49h-189q-31 0 -48.5 19t-17.5 49q0 10 1 15l21 145q9 65 56.5 102t117.5 35l109 -2l14 -20q7 -11 10 -18.5t5 -22.5l7 -53l127 148
q69 81 145 81q34 0 71 -15l51 -20q32 -13 49.5 -31t23.5 -49l28 -162q3 -18 3 -34q0 -48 -24 -86t-69 -59.5t-106 -21.5h-180q-63 0 -101.5 35.5t-47.5 98.5l-24 175l-106 1q-48 1 -78.5 -22.5t-36.5 -64.5l-26 -169h189q28 0 45.5 -16.5t20.5 -46.5l2 -24q3 -31 -18 -68.5
t-69 -64t-121 -26.5h-56q-100 0 -154.5 50zM986 77.5q39 23.5 53 66.5l-42 238l-83 31q-39 14 -67 14q-32 0 -60 -16t-57 -50l-144 -167l7 -55q12 -85 106 -85h188q60 0 99 23.5zM177 -283h208v-55h-208v55z" />
    <glyph glyph-name="uniFD07" unicode="&#xfd07;" horiz-adv-x="1152" arabic-form="isolated" 
d="M115.5 -142q-54.5 50 -54.5 140q0 38 11 85l24 101h42l-24 -106q-9 -39 -9 -71q0 -71 42 -108t120 -37h54q69 0 113.5 23.5t63.5 65.5l-6 49h-189q-31 0 -48.5 19t-17.5 49q0 10 1 15l21 145q9 65 56.5 102t117.5 35l109 -2l14 -20q7 -11 10 -18.5t5 -22.5l7 -53l127 148
q69 81 145 81q34 0 71 -15l51 -20q32 -13 49.5 -31t23.5 -49l28 -162q3 -18 3 -34q0 -48 -24 -86t-69 -59.5t-106 -21.5h-180q-63 0 -101.5 35.5t-47.5 98.5l-24 175l-106 1q-48 1 -78.5 -22.5t-36.5 -64.5l-26 -169h189q28 0 45.5 -16.5t20.5 -46.5l2 -24q3 -31 -18 -68.5
t-69 -64t-121 -26.5h-56q-100 0 -154.5 50zM986 77.5q39 23.5 53 66.5l-42 238l-83 31q-39 14 -67 14q-32 0 -60 -16t-57 -50l-144 -167l7 -55q12 -85 106 -85h188q60 0 99 23.5zM806 638h77v-72h-77v72z" />
    <glyph glyph-name="uniFD08" unicode="&#xfd08;" horiz-adv-x="1152" arabic-form="isolated" 
d="M115.5 -142q-54.5 50 -54.5 140q0 38 11 85l24 101h42l-24 -106q-9 -39 -9 -71q0 -71 42 -108t120 -37h54q69 0 113.5 23.5t63.5 65.5l-6 49h-189q-31 0 -48.5 19t-17.5 49q0 10 1 15l21 145q9 65 56.5 102t117.5 35l109 -2l14 -20q7 -11 10 -18.5t5 -22.5l7 -53l127 148
q69 81 145 81q34 0 71 -15l51 -20q32 -13 49.5 -31t23.5 -49l28 -162q3 -18 3 -34q0 -48 -24 -86t-69 -59.5t-106 -21.5h-180q-63 0 -101.5 35.5t-47.5 98.5l-24 175l-106 1q-48 1 -78.5 -22.5t-36.5 -64.5l-26 -169h189q28 0 45.5 -16.5t20.5 -46.5l2 -24q3 -31 -18 -68.5
t-69 -64t-121 -26.5h-56q-100 0 -154.5 50zM986 77.5q39 23.5 53 66.5l-42 238l-83 31q-39 14 -67 14q-32 0 -60 -16t-57 -50l-144 -167l7 -55q12 -85 106 -85h188q60 0 99 23.5zM177 -282h208v-55h-208v55zM806 638h77v-72h-77v72z" />
    <glyph glyph-name="uniFD0D" unicode="&#xfd0d;" horiz-adv-x="1116" arabic-form="isolated" 
d="M99 -103q47 19 69 39v370q0 31 19 53l11 14h156q45 0 81 -20.5t56.5 -57t20.5 -81.5v-160h165q38 0 61 25t23 64v125h45v-134q0 -24 -10 -47l204 -52l-68 367l44 22l63 -349q2 -10 2 -16q0 -23 -19 -45l-28 -33l-222 59q-40 -40 -102 -40h-149q-23 0 -38.5 15.5
t-15.5 38.5v157q0 47 -30.5 78t-77.5 31h-147v-351q0 -35 -21.5 -66t-64.5 -49l-130 -52l-17 46zM725 505v68h71v-68h-71zM656 457h209v-55h-209v55z" />
    <glyph glyph-name="uniFD0E" unicode="&#xfd0e;" horiz-adv-x="1116" arabic-form="isolated" 
d="M99 -103q47 19 69 39v370q0 31 19 53l11 14h156q45 0 81 -20.5t56.5 -57t20.5 -81.5v-160h165q38 0 61 25t23 64v125h45v-134q0 -24 -10 -47l204 -52l-68 367l44 22l63 -349q2 -10 2 -16q0 -23 -19 -45l-28 -33l-222 59q-40 -40 -102 -40h-149q-23 0 -38.5 15.5
t-15.5 38.5v157q0 47 -30.5 78t-77.5 31h-147v-351q0 -35 -21.5 -66t-64.5 -49l-130 -52l-17 46z" />
    <glyph glyph-name="uniFD0F" unicode="&#xfd0f;" horiz-adv-x="1061" arabic-form="isolated" 
d="M98 -100q43 17 63 36v378q0 30 19 52l11 15h233q42 0 63 -32q14 -44 15 -83l112 131q37 42 72.5 61.5t73.5 19.5q34 0 71 -15l51 -20q32 -13 49.5 -31t22.5 -49l29 -162q3 -16 3 -34q0 -47 -23.5 -85t-68 -60t-107.5 -22h-188q-61 0 -100.5 36.5t-40.5 96.5v195h-253
v-359q0 -35 -21.5 -66t-65.5 -49l-129 -52l-18 46zM896 77.5q39 23.5 53 66.5l-42 238l-83 31q-39 14 -68 14q-31 0 -59 -16t-58 -50l-139 -163l1 -52q0 -45 26.5 -68.5t70.5 -23.5h199q60 0 99 23.5z" />
    <glyph glyph-name="uniFD10" unicode="&#xfd10;" horiz-adv-x="1061" arabic-form="isolated" 
d="M98 -100q43 17 63 36v378q0 30 19 52l11 15h233q42 0 63 -32q14 -44 15 -83l112 131q37 42 72.5 61.5t73.5 19.5q34 0 71 -15l51 -20q32 -13 49.5 -31t22.5 -49l29 -162q3 -16 3 -34q0 -47 -23.5 -85t-68 -60t-107.5 -22h-188q-61 0 -100.5 36.5t-40.5 96.5v195h-253
v-359q0 -35 -21.5 -66t-65.5 -49l-129 -52l-18 46zM896 77.5q39 23.5 53 66.5l-42 238l-83 31q-39 14 -68 14q-31 0 -59 -16t-58 -50l-139 -163l1 -52q0 -45 26.5 -68.5t70.5 -23.5h199q60 0 99 23.5zM699 638h77v-72h-77v72z" />
    <glyph glyph-name="uniFD11" unicode="&#xfd11;" horiz-adv-x="1244" arabic-form="final" 
d="M114.5 -165q-52.5 48 -52.5 136q0 29 6 62l27 151h43l-28 -160q-5 -28 -5 -48q0 -65 40 -100t115 -35h56q68 0 111 23t61 66l-8 70h-194l6 54h265l-1 533l43 10v-309v-16v-9l114 134q69 81 145 81q34 0 71 -15l52 -21q32 -13 49 -31t23 -48l38 -214q7 -42 35 -68.5
t83 -26.5h35q9 0 15.5 -7.5t6.5 -19.5q0 -11 -6.5 -19t-15.5 -8h-31q-60 0 -94 26.5t-51 72.5q-19 -45 -66 -72t-116 -27h-361q1 -6 2 -14.5t1 -13.5q1 -6 1 -18q0 -41 -22.5 -79t-70 -63t-119.5 -25h-57q-93 0 -145.5 48zM995 77q39 23 53 67l-42 238l-84 31q-39 14 -67 14
q-32 0 -60 -16t-57 -50l-139 -163l1 -144h296q60 0 99 23z" />
    <glyph glyph-name="uniFD12" unicode="&#xfd12;" horiz-adv-x="1244" arabic-form="final" 
d="M114.5 -165q-52.5 48 -52.5 136q0 29 6 62l27 151h43l-28 -160q-5 -28 -5 -48q0 -65 40 -100t115 -35h56q68 0 111 23t61 66l-8 70h-194l6 54h265l-1 533l43 10v-309v-16v-9l114 134q69 81 145 81q34 0 71 -15l52 -21q32 -13 49 -31t23 -48l38 -214q7 -42 35 -68.5
t83 -26.5h35q9 0 15.5 -7.5t6.5 -19.5q0 -11 -6.5 -19t-15.5 -8h-31q-60 0 -94 26.5t-51 72.5q-19 -45 -66 -72t-116 -27h-361q1 -6 2 -14.5t1 -13.5q1 -6 1 -18q0 -41 -22.5 -79t-70 -63t-119.5 -25h-57q-93 0 -145.5 48zM995 77q39 23 53 67l-42 238l-84 31q-39 14 -67 14
q-32 0 -60 -16t-57 -50l-139 -163l1 -144h296q60 0 99 23zM170 -307h208v-55h-208v55z" />
    <glyph glyph-name="uniFD13" unicode="&#xfd13;" horiz-adv-x="968" arabic-form="final" 
d="M114.5 -165q-52.5 48 -52.5 136q0 29 6 62l27 151h43l-28 -160q-5 -28 -5 -48q0 -65 40 -100t115 -35h56q68 0 111 23t61 66l-8 70h-201l6 54h305q-26 21 -35 61l-54 243l14 30l16 31l203 24q8 1 24 1q65 0 105.5 -40t40.5 -100q0 -29 -11 -62l-64 -188h140q9 0 15.5 -8
t6.5 -19t-6.5 -19t-15.5 -8h-278q-44 0 -77 25l-6 -7q-9 -11 -22 -15q-27 -3 -61 -3q1 -6 2 -14.5t1 -13.5q1 -6 1 -18q0 -41 -22.5 -79t-70 -63t-119.5 -25h-57q-93 0 -145.5 48zM848 247q9 27 9 50q0 43 -28 69.5t-76 26.5q-13 0 -20 -1l-190 -23l52 -233q8 -38 33.5 -60
t61.5 -22h91z" />
    <glyph glyph-name="uniFD14" unicode="&#xfd14;" horiz-adv-x="968" arabic-form="final" 
d="M114.5 -165q-52.5 48 -52.5 136q0 29 6 62l27 151h43l-28 -160q-5 -28 -5 -48q0 -65 40 -100t115 -35h56q68 0 111 23t61 66l-8 70h-201l6 54h305q-26 21 -35 61l-54 243l14 30l16 31l203 24q8 1 24 1q65 0 105.5 -40t40.5 -100q0 -29 -11 -62l-64 -188h140q9 0 15.5 -8
t6.5 -19t-6.5 -19t-15.5 -8h-278q-44 0 -77 25l-6 -7q-9 -11 -22 -15q-27 -3 -61 -3q1 -6 2 -14.5t1 -13.5q1 -6 1 -18q0 -41 -22.5 -79t-70 -63t-119.5 -25h-57q-93 0 -145.5 48zM848 247q9 27 9 50q0 43 -28 69.5t-76 26.5q-13 0 -20 -1l-190 -23l52 -233q8 -38 33.5 -60
t61.5 -22h91zM175 -303h208v-55h-208v55z" />
    <glyph glyph-name="uniFD15" unicode="&#xfd15;" horiz-adv-x="968" arabic-form="final" 
d="M114.5 -165q-52.5 48 -52.5 136q0 29 6 62l27 151h43l-28 -160q-5 -28 -5 -48q0 -65 40 -100t115 -35h56q68 0 111 23t61 66l-8 70h-201l6 54h305q-26 21 -35 61l-54 243l14 30l16 31l203 24q8 1 24 1q65 0 105.5 -40t40.5 -100q0 -29 -11 -62l-64 -188h140q9 0 15.5 -8
t6.5 -19t-6.5 -19t-15.5 -8h-278q-44 0 -77 25l-6 -7q-9 -11 -22 -15q-27 -3 -61 -3q1 -6 2 -14.5t1 -13.5q1 -6 1 -18q0 -41 -22.5 -79t-70 -63t-119.5 -25h-57q-93 0 -145.5 48zM848 247q9 27 9 50q0 43 -28 69.5t-76 26.5q-13 0 -20 -1l-190 -23l52 -233q8 -38 33.5 -60
t61.5 -22h91zM648 613h77v-72h-77v72z" />
    <glyph glyph-name="uniFD16" unicode="&#xfd16;" horiz-adv-x="968" arabic-form="final" 
d="M114.5 -165q-52.5 48 -52.5 136q0 29 6 62l27 151h43l-28 -160q-5 -28 -5 -48q0 -65 40 -100t115 -35h56q68 0 111 23t61 66l-8 70h-201l6 54h305q-26 21 -35 61l-54 243l14 30l16 31l203 24q8 1 24 1q65 0 105.5 -40t40.5 -100q0 -29 -11 -62l-64 -188h140q9 0 15.5 -8
t6.5 -19t-6.5 -19t-15.5 -8h-278q-44 0 -77 25l-6 -7q-9 -11 -22 -15q-27 -3 -61 -3q1 -6 2 -14.5t1 -13.5q1 -6 1 -18q0 -41 -22.5 -79t-70 -63t-119.5 -25h-57q-93 0 -145.5 48zM848 247q9 27 9 50q0 43 -28 69.5t-76 26.5q-13 0 -20 -1l-190 -23l52 -233q8 -38 33.5 -60
t61.5 -22h91zM177 -302h208v-55h-208v55zM654 613h77v-72h-77v72z" />
    <glyph glyph-name="uniFD17" unicode="&#xfd17;" horiz-adv-x="1262" arabic-form="final" 
d="M115.5 -142q-54.5 50 -54.5 140q0 38 11 85l24 101h42l-24 -106q-9 -39 -9 -71q0 -71 42 -108t120 -37h54q69 0 113.5 23.5t63.5 65.5l-6 49h-189q-31 0 -48.5 19t-17.5 49q0 10 1 15l21 145q9 65 56.5 102t117.5 35l109 -2l14 -20q7 -11 10 -18.5t5 -22.5l22 -163
q12 -85 104 -85h57q38 0 61 24.5t23 63.5v125h45v-133q0 -27 -10 -47l204 -53l-68 367l44 23l50 -273q9 -45 38 -71t72 -26h50q9 0 15.5 -8t6.5 -19q0 -12 -6.5 -19.5t-15.5 -7.5h-46q-40 0 -69.5 16t-44.5 45l5 -32l-4 -8l-33 -40l-222 58q-39 -39 -103 -39h-49
q-63 0 -101.5 35t-47.5 99l-24 175l-106 1q-48 1 -78.5 -22.5t-36.5 -64.5l-26 -169h189q28 0 45.5 -16.5t20.5 -46.5l2 -24q3 -31 -18 -68.5t-69 -64t-121 -26.5h-56q-100 0 -154.5 50z" />
    <glyph glyph-name="uniFD18" unicode="&#xfd18;" horiz-adv-x="1262" arabic-form="final" 
d="M115.5 -142q-54.5 50 -54.5 140q0 38 11 85l24 101h42l-24 -106q-9 -39 -9 -71q0 -71 42 -108t120 -37h54q69 0 113.5 23.5t63.5 65.5l-6 49h-189q-31 0 -48.5 19t-17.5 49q0 10 1 15l21 145q9 65 56.5 102t117.5 35l109 -2l14 -20q7 -11 10 -18.5t5 -22.5l22 -163
q12 -85 104 -85h57q38 0 61 24.5t23 63.5v125h45v-133q0 -27 -10 -47l204 -53l-68 367l44 23l50 -273q9 -45 38 -71t72 -26h50q9 0 15.5 -8t6.5 -19q0 -12 -6.5 -19.5t-15.5 -7.5h-46q-40 0 -69.5 16t-44.5 45l5 -32l-4 -8l-33 -40l-222 58q-39 -39 -103 -39h-49
q-63 0 -101.5 35t-47.5 99l-24 175l-106 1q-48 1 -78.5 -22.5t-36.5 -64.5l-26 -169h189q28 0 45.5 -16.5t20.5 -46.5l2 -24q3 -31 -18 -68.5t-69 -64t-121 -26.5h-56q-100 0 -154.5 50zM177 -283h208v-55h-208v55z" />
    <glyph glyph-name="uniFD19" unicode="&#xfd19;" horiz-adv-x="1262" arabic-form="final" 
d="M115.5 -142q-54.5 50 -54.5 140q0 38 11 85l24 101h42l-24 -106q-9 -39 -9 -71q0 -71 42 -108t120 -37h54q69 0 113.5 23.5t63.5 65.5l-6 49h-189q-31 0 -48.5 19t-17.5 49q0 10 1 15l21 145q9 65 56.5 102t117.5 35l109 -2l14 -20q7 -11 10 -18.5t5 -22.5l22 -163
q12 -85 104 -85h57q38 0 61 24.5t23 63.5v125h45v-133q0 -27 -10 -47l204 -53l-68 367l44 23l50 -273q9 -45 38 -71t72 -26h50q9 0 15.5 -8t6.5 -19q0 -12 -6.5 -19.5t-15.5 -7.5h-46q-40 0 -69.5 16t-44.5 45l5 -32l-4 -8l-33 -40l-222 58q-39 -39 -103 -39h-49
q-63 0 -101.5 35t-47.5 99l-24 175l-106 1q-48 1 -78.5 -22.5t-36.5 -64.5l-26 -169h189q28 0 45.5 -16.5t20.5 -46.5l2 -24q3 -31 -18 -68.5t-69 -64t-121 -26.5h-56q-100 0 -154.5 50zM802 504v68h71v-68h-71zM733 456h209v-55h-209v55z" />
    <glyph glyph-name="uniFD1A" unicode="&#xfd1a;" horiz-adv-x="1262" arabic-form="final" 
d="M115.5 -142q-54.5 50 -54.5 140q0 38 11 85l24 101h42l-24 -106q-9 -39 -9 -71q0 -71 42 -108t120 -37h54q69 0 113.5 23.5t63.5 65.5l-6 49h-189q-31 0 -48.5 19t-17.5 49q0 10 1 15l21 145q9 65 56.5 102t117.5 35l109 -2l14 -20q7 -11 10 -18.5t5 -22.5l22 -163
q12 -85 104 -85h57q38 0 61 24.5t23 63.5v125h45v-133q0 -27 -10 -47l204 -53l-68 367l44 23l50 -273q9 -45 38 -71t72 -26h50q9 0 15.5 -8t6.5 -19q0 -12 -6.5 -19.5t-15.5 -7.5h-46q-40 0 -69.5 16t-44.5 45l5 -32l-4 -8l-33 -40l-222 58q-39 -39 -103 -39h-49
q-63 0 -101.5 35t-47.5 99l-24 175l-106 1q-48 1 -78.5 -22.5t-36.5 -64.5l-26 -169h189q28 0 45.5 -16.5t20.5 -46.5l2 -24q3 -31 -18 -68.5t-69 -64t-121 -26.5h-56q-100 0 -154.5 50zM167 -281h208v-55h-208v55zM802 504v68h71v-68h-71zM733 456h209v-55h-209v55z" />
    <glyph glyph-name="uniFD1B" unicode="&#xfd1b;" horiz-adv-x="908" arabic-form="final" 
d="M114.5 -165q-52.5 48 -52.5 136q0 29 6 62l27 151h43l-28 -160q-5 -28 -5 -48q0 -65 40 -100t115 -35h56q133 0 173 89l-8 70h-202l6 54h495l-28 205q-9 68 -44 101t-91 33q-18 0 -37 -3l-123 -21l5 54l116 20q21 3 40 3q72 0 120 -43.5t59 -122.5l31 -226h81
q9 0 15.5 -7.5t6.5 -19.5q0 -11 -6.5 -19t-15.5 -8h-384q1 -6 2 -14.5t1 -13.5q1 -5 1 -16q0 -42 -22 -80.5t-70 -63.5t-120 -25h-57q-93 0 -145.5 48z" />
    <glyph glyph-name="uniFD1C" unicode="&#xfd1c;" horiz-adv-x="908" arabic-form="final" 
d="M114.5 -165q-52.5 48 -52.5 136q0 29 6 62l27 151h43l-28 -160q-5 -28 -5 -48q0 -65 40 -100t115 -35h56q133 0 173 89l-8 70h-202l6 54h495l-28 205q-9 68 -44 101t-91 33q-18 0 -37 -3l-123 -21l5 54l116 20q21 3 40 3q72 0 120 -43.5t59 -122.5l31 -226h81
q9 0 15.5 -7.5t6.5 -19.5q0 -11 -6.5 -19t-15.5 -8h-384q1 -6 2 -14.5t1 -13.5q1 -5 1 -16q0 -42 -22 -80.5t-70 -63.5t-120 -25h-57q-93 0 -145.5 48zM192 -297h208v-55h-208v55z" />
    <glyph glyph-name="uniFD1D" unicode="&#xfd1d;" horiz-adv-x="908" arabic-form="final" 
d="M114.5 -165q-52.5 48 -52.5 136q0 29 6 62l27 151h43l-28 -160q-5 -28 -5 -48q0 -65 40 -100t115 -35h56q133 0 173 89l-8 70h-202l6 54h495l-28 205q-9 68 -44 101t-91 33q-18 0 -37 -3l-123 -21l5 54l116 20q21 3 40 3q72 0 120 -43.5t59 -122.5l31 -226h81
q9 0 15.5 -7.5t6.5 -19.5q0 -11 -6.5 -19t-15.5 -8h-384q1 -6 2 -14.5t1 -13.5q1 -5 1 -16q0 -42 -22 -80.5t-70 -63.5t-120 -25h-57q-93 0 -145.5 48zM665 -114h77v-72h-77v72z" />
    <glyph glyph-name="uniFD1E" unicode="&#xfd1e;" horiz-adv-x="908" arabic-form="final" 
d="M114.5 -165q-52.5 48 -52.5 136q0 29 6 62l27 151h43l-28 -160q-5 -28 -5 -48q0 -65 40 -100t115 -35h56q133 0 173 89l-8 70h-202l6 54h495l-28 205q-9 68 -44 101t-91 33q-18 0 -37 -3l-123 -21l5 54l116 20q21 3 40 3q72 0 120 -43.5t59 -122.5l31 -226h81
q9 0 15.5 -7.5t6.5 -19.5q0 -11 -6.5 -19t-15.5 -8h-384q1 -6 2 -14.5t1 -13.5q1 -5 1 -16q0 -42 -22 -80.5t-70 -63.5t-120 -25h-57q-93 0 -145.5 48zM176 -302h208v-55h-208v55zM665 -114h77v-72h-77v72z" />
    <glyph glyph-name="uniFD1F" unicode="&#xfd1f;" horiz-adv-x="908" arabic-form="final" 
d="M114.5 -165q-52.5 48 -52.5 136q0 29 6 62l27 151h43l-28 -160q-5 -28 -5 -48q0 -65 40 -100t115 -35h56q133 0 173 89l-8 70h-202l6 54h495l-28 205q-9 68 -44 101t-91 33q-18 0 -37 -3l-123 -21l5 54l116 20q21 3 40 3q72 0 120 -43.5t59 -122.5l31 -226h81
q9 0 15.5 -7.5t6.5 -19.5q0 -11 -6.5 -19t-15.5 -8h-384q1 -6 2 -14.5t1 -13.5q1 -5 1 -16q0 -42 -22 -80.5t-70 -63.5t-120 -25h-57q-93 0 -145.5 48zM566 611h77v-72h-77v72z" />
    <glyph glyph-name="uniFD20" unicode="&#xfd20;" horiz-adv-x="908" arabic-form="final" 
d="M114.5 -165q-52.5 48 -52.5 136q0 29 6 62l27 151h43l-28 -160q-5 -28 -5 -48q0 -65 40 -100t115 -35h56q133 0 173 89l-8 70h-202l6 54h495l-28 205q-9 68 -44 101t-91 33q-18 0 -37 -3l-123 -21l5 54l116 20q21 3 40 3q72 0 120 -43.5t59 -122.5l31 -226h81
q9 0 15.5 -7.5t6.5 -19.5q0 -11 -6.5 -19t-15.5 -8h-384q1 -6 2 -14.5t1 -13.5q1 -5 1 -16q0 -42 -22 -80.5t-70 -63.5t-120 -25h-57q-93 0 -145.5 48zM169 -303h208v-55h-208v55zM566 611h77v-72h-77v72z" />
    <glyph glyph-name="uniFD21" unicode="&#xfd21;" horiz-adv-x="1235" arabic-form="final" 
d="M115.5 -142q-54.5 50 -54.5 140q0 38 11 85l24 101h42l-24 -106q-9 -39 -9 -71q0 -71 42 -108t120 -37h54q69 0 113.5 23.5t63.5 65.5l-6 49h-189q-31 0 -48.5 19t-17.5 49q0 10 1 15l21 145q9 65 56.5 102t117.5 35l109 -2l14 -20q7 -11 10 -18.5t5 -22.5l7 -53l127 148
q69 81 145 81q34 0 71 -15l51 -20q32 -13 49.5 -31t23.5 -49l38 -213q7 -42 35 -68.5t83 -26.5h35q9 0 15.5 -7.5t6.5 -19.5q0 -11 -6.5 -19t-15.5 -8h-31q-60 0 -94 26.5t-51 72.5q-20 -45 -67 -72.5t-116 -27.5h-180q-63 0 -101.5 35.5t-47.5 98.5l-24 175l-106 1
q-48 1 -78.5 -22.5t-36.5 -64.5l-26 -169h189q28 0 45.5 -16.5t20.5 -46.5l2 -24q3 -31 -18 -68.5t-69 -64t-121 -26.5h-56q-100 0 -154.5 50zM986 77.5q39 23.5 53 66.5l-42 238l-83 31q-39 14 -67 14q-32 0 -60 -16t-57 -50l-144 -168l7 -54q12 -85 106 -85h188
q60 0 99 23.5z" />
    <glyph glyph-name="uniFD22" unicode="&#xfd22;" horiz-adv-x="1235" arabic-form="final" 
d="M115.5 -142q-54.5 50 -54.5 140q0 38 11 85l24 101h42l-24 -106q-9 -39 -9 -71q0 -71 42 -108t120 -37h54q69 0 113.5 23.5t63.5 65.5l-6 49h-189q-31 0 -48.5 19t-17.5 49q0 10 1 15l21 145q9 65 56.5 102t117.5 35l109 -2l14 -20q7 -11 10 -18.5t5 -22.5l7 -53l127 148
q69 81 145 81q34 0 71 -15l51 -20q32 -13 49.5 -31t23.5 -49l38 -213q7 -42 35 -68.5t83 -26.5h35q9 0 15.5 -7.5t6.5 -19.5q0 -11 -6.5 -19t-15.5 -8h-31q-60 0 -94 26.5t-51 72.5q-20 -45 -67 -72.5t-116 -27.5h-180q-63 0 -101.5 35.5t-47.5 98.5l-24 175l-106 1
q-48 1 -78.5 -22.5t-36.5 -64.5l-26 -169h189q28 0 45.5 -16.5t20.5 -46.5l2 -24q3 -31 -18 -68.5t-69 -64t-121 -26.5h-56q-100 0 -154.5 50zM986 77.5q39 23.5 53 66.5l-42 238l-83 31q-39 14 -67 14q-32 0 -60 -16t-57 -50l-144 -168l7 -54q12 -85 106 -85h188
q60 0 99 23.5zM177 -283h208v-55h-208v55z" />
    <glyph glyph-name="uniFD23" unicode="&#xfd23;" horiz-adv-x="1235" arabic-form="final" 
d="M115.5 -142q-54.5 50 -54.5 140q0 38 11 85l24 101h42l-24 -106q-9 -39 -9 -71q0 -71 42 -108t120 -37h54q69 0 113.5 23.5t63.5 65.5l-6 49h-189q-31 0 -48.5 19t-17.5 49q0 10 1 15l21 145q9 65 56.5 102t117.5 35l109 -2l14 -20q7 -11 10 -18.5t5 -22.5l7 -53l127 148
q69 81 145 81q34 0 71 -15l51 -20q32 -13 49.5 -31t23.5 -49l38 -213q7 -42 35 -68.5t83 -26.5h35q9 0 15.5 -7.5t6.5 -19.5q0 -11 -6.5 -19t-15.5 -8h-31q-60 0 -94 26.5t-51 72.5q-20 -45 -67 -72.5t-116 -27.5h-180q-63 0 -101.5 35.5t-47.5 98.5l-24 175l-106 1
q-48 1 -78.5 -22.5t-36.5 -64.5l-26 -169h189q28 0 45.5 -16.5t20.5 -46.5l2 -24q3 -31 -18 -68.5t-69 -64t-121 -26.5h-56q-100 0 -154.5 50zM986 77.5q39 23.5 53 66.5l-42 238l-83 31q-39 14 -67 14q-32 0 -60 -16t-57 -50l-144 -168l7 -54q12 -85 106 -85h188
q60 0 99 23.5zM806 638h77v-72h-77v72z" />
    <glyph glyph-name="uniFD24" unicode="&#xfd24;" horiz-adv-x="1235" arabic-form="final" 
d="M115.5 -142q-54.5 50 -54.5 140q0 38 11 85l24 101h42l-24 -106q-9 -39 -9 -71q0 -71 42 -108t120 -37h54q69 0 113.5 23.5t63.5 65.5l-6 49h-189q-31 0 -48.5 19t-17.5 49q0 10 1 15l21 145q9 65 56.5 102t117.5 35l109 -2l14 -20q7 -11 10 -18.5t5 -22.5l7 -53l127 148
q69 81 145 81q34 0 71 -15l51 -20q32 -13 49.5 -31t23.5 -49l38 -213q7 -42 35 -68.5t83 -26.5h35q9 0 15.5 -7.5t6.5 -19.5q0 -11 -6.5 -19t-15.5 -8h-31q-60 0 -94 26.5t-51 72.5q-20 -45 -67 -72.5t-116 -27.5h-180q-63 0 -101.5 35.5t-47.5 98.5l-24 175l-106 1
q-48 1 -78.5 -22.5t-36.5 -64.5l-26 -169h189q28 0 45.5 -16.5t20.5 -46.5l2 -24q3 -31 -18 -68.5t-69 -64t-121 -26.5h-56q-100 0 -154.5 50zM986 77.5q39 23.5 53 66.5l-42 238l-83 31q-39 14 -67 14q-32 0 -60 -16t-57 -50l-144 -168l7 -54q12 -85 106 -85h188
q60 0 99 23.5zM177 -282h208v-55h-208v55zM806 638h77v-72h-77v72z" />
    <glyph glyph-name="uniFD29" unicode="&#xfd29;" horiz-adv-x="1194" arabic-form="final" 
d="M110 -99q35 14 58 35v370q0 31 19 53l11 14h156q45 0 81 -20.5t56.5 -57t20.5 -81.5v-160h165q38 0 61 25t23 64v125h45v-134q0 -24 -10 -47l204 -52l-68 367l44 22l49 -273q9 -45 38 -71t73 -26h59q9 0 15.5 -7.5t6.5 -19.5q0 -11 -6.5 -19t-15.5 -8h-55q-41 0 -70 16
t-44 46l5 -32q-4 -9 -9 -16l-28 -33l-222 59q-40 -40 -102 -40h-149q-23 0 -38.5 15.5t-15.5 38.5v157q0 47 -30.5 78t-77.5 31h-147v-351q0 -35 -21.5 -66t-64.5 -49l-130 -52l-17 46zM721 505v68h71v-68h-71zM652 457h209v-55h-209v55z" />
    <glyph glyph-name="uniFD2A" unicode="&#xfd2a;" horiz-adv-x="1194" arabic-form="final" 
d="M110 -99q35 14 58 35v370q0 31 19 53l11 14h156q45 0 81 -20.5t56.5 -57t20.5 -81.5v-160h165q38 0 61 25t23 64v125h45v-134q0 -24 -10 -47l204 -52l-68 367l44 22l49 -273q9 -45 38 -71t73 -26h59q9 0 15.5 -7.5t6.5 -19.5q0 -11 -6.5 -19t-15.5 -8h-55q-41 0 -70 16
t-44 46l5 -32q-4 -9 -9 -16l-28 -33l-222 59q-40 -40 -102 -40h-149q-23 0 -38.5 15.5t-15.5 38.5v157q0 47 -30.5 78t-77.5 31h-147v-351q0 -35 -21.5 -66t-64.5 -49l-130 -52l-17 46z" />
    <glyph glyph-name="uniFD2B" unicode="&#xfd2b;" horiz-adv-x="1145" arabic-form="final" 
d="M97 -101q41 16 64 37v378q0 30 19 52l11 15h233q25 0 44 -12t27 -33q7 -40 7 -70l112 131q37 42 72.5 61.5t73.5 19.5q34 0 71 -15l51 -20q32 -13 49.5 -31t22.5 -49l38 -213q17 -95 119 -95h35q9 0 15.5 -7.5t6.5 -19.5q0 -11 -6.5 -19t-15.5 -8h-31q-60 0 -94 26.5
t-51 72.5q-20 -46 -67 -73t-116 -27h-188q-61 0 -100.5 36.5t-40.5 96.5v195h-253v-359q0 -35 -21.5 -66t-65.5 -49l-129 -52l-18 46zM896 77.5q39 23.5 53 66.5l-42 238l-83 31q-39 14 -68 14q-31 0 -59 -16t-58 -50l-139 -163l1 -52q0 -45 26.5 -68.5t70.5 -23.5h199
q60 0 99 23.5z" />
    <glyph glyph-name="uniFD2C" unicode="&#xfd2c;" horiz-adv-x="1145" arabic-form="final" 
d="M97 -101q41 16 64 37v378q0 30 19 52l11 15h233q25 0 44 -12t27 -33q7 -40 7 -70l112 131q37 42 72.5 61.5t73.5 19.5q34 0 71 -15l51 -20q32 -13 49.5 -31t22.5 -49l38 -213q17 -95 119 -95h35q9 0 15.5 -7.5t6.5 -19.5q0 -11 -6.5 -19t-15.5 -8h-31q-60 0 -94 26.5
t-51 72.5q-20 -46 -67 -73t-116 -27h-188q-61 0 -100.5 36.5t-40.5 96.5v195h-253v-359q0 -35 -21.5 -66t-65.5 -49l-129 -52l-18 46zM896 77.5q39 23.5 53 66.5l-42 238l-83 31q-39 14 -68 14q-31 0 -59 -16t-58 -50l-139 -163l1 -52q0 -45 26.5 -68.5t70.5 -23.5h199
q60 0 99 23.5zM699 638h77v-72h-77v72z" />
    <glyph glyph-name="uniFDF0" unicode="&#xfdf0;" horiz-adv-x="1207" arabic-form="isolated" 
d="M106.5 -153q-44.5 45 -44.5 116q0 15 1 22l17 141q3 35 27.5 56.5t60.5 21.5h118l-2 367l44 12v-418q0 -52 30.5 -81.5t81.5 -29.5h65q45 0 74 21t31 51l-2 272l44 10v-145l114 134q69 81 145 81q35 0 72 -15l51 -20q32 -13 49.5 -31t22.5 -49l29 -162q3 -16 3 -32
q0 -47 -23.5 -85.5t-68.5 -61t-108 -22.5h-184q-38 0 -72 16.5t-53 44.5q-18 -29 -49.5 -45t-75.5 -16h-63q-68 0 -111 41t-43 110h-159l-20 -165q-1 -6 -1 -18q0 -50 31.5 -81.5t80.5 -31.5h657l-7 -53h-648q-70 0 -114.5 45zM1047.5 77.5q39.5 23.5 53.5 66.5l-42 238
l-84 31q-39 14 -67 14q-32 0 -60 -16t-57 -50l-145 -169l4 -56q3 -39 33 -60.5t71 -21.5h194q60 0 99.5 23.5z" />
    <glyph glyph-name="uniFDF1" unicode="&#xfdf1;" horiz-adv-x="986" arabic-form="isolated" 
d="M823 682v-55h-208v55h208zM129.5 -153q-44.5 45 -44.5 116q0 15 1 22l17 141q3 35 27 56.5t60 21.5h119l-2 367l43 12v-418q0 -52 31 -81.5t82 -29.5h274q36 0 63 11.5t40 31.5v51h-218q-27 0 -47 17t-24 44l-16 105q-3 21 -3 41q0 67 37 112t106 59l163 34l26 -22
q19 -17 19 -42v-345q0 -151 -162 -151h-257q-69 0 -111.5 41t-42.5 110h-159l-20 -165q-1 -6 -1 -18q0 -50 31.5 -81.5t80.5 -31.5h657l-7 -53h-648q-70 0 -114.5 45zM840 509l-155 -33q-54 -11 -80.5 -40t-26.5 -78q0 -17 3 -37l18 -119h241v307z" />
    <glyph glyph-name="uniFDFC" unicode="&#xfdfc;" horiz-adv-x="881" arabic-form="isolated" 
d="M112 67q-35 33 -35 91q0 23 6 50l17 72h27l-17 -74q-5 -20 -5 -43q0 -46 27 -70t78 -24h16q36 0 62 12t39 32l-1 308q0 28 14.5 49t40.5 29l37 13l25 -16v-231q0 -81 79 -81h60q39 0 64.5 15t34.5 42l-37 179l29 14l31 -152q3 -15 3 -28q0 -47 -33 -76t-90 -29h-62
q-49 0 -78 28t-29 79v226l-30 -10q-15 -5 -23.5 -17t-8.5 -28v-299q0 -20 -13.5 -42t-42.5 -37t-71 -15h-16q-63 0 -98 33zM733 93q27 11 43 25v263l28 5v-231q0 -34 -13 -56t-45 -34l-83 -34l-12 29zM426 66h158v-34h-158v34z" />
    <glyph glyph-name="uniFE82" unicode="&#x622;" horiz-adv-x="262" arabic-form="final" 
d="M120 42q-44 42 -44 121v305l43 12v-301q0 -125 121 -125h23q9 0 15.5 -8t6.5 -19t-6.5 -19t-15.5 -8h-23q-76 0 -120 42zM-27 549q0 26 15.5 41.5t41.5 15.5h194l-14 -44h-194v-47l-43 16v18z" />
    <glyph glyph-name="uniFE84" unicode="&#x623;" horiz-adv-x="262" arabic-form="final" 
d="M120 42q-44 42 -44 121v305l43 12v-301q0 -125 121 -125h23q9 0 15.5 -8t6.5 -19t-6.5 -19t-15.5 -8h-23q-76 0 -120 42zM223 633v-40h-216v40h64l-9 47q-2 8 -2 24q0 40 24.5 66t67.5 30l32 5l5 -39l-26 -4q-34 -5 -50 -18.5t-16 -39.5q0 -5 2 -21l9 -50h115z" />
    <glyph glyph-name="uniFE85" unicode="&#x624;" horiz-adv-x="503" arabic-form="isolated" 
d="M427 389v-407q0 -40 -22 -71.5t-61 -44.5l-177 -62l-18 47l177 61q43 16 58 45v43h-12h-29h-170q-28 0 -48 16.5t-24 44.5l-22 144q-3 21 -3 39q0 69 37 114.5t107 60.5l161 33l27 -23q19 -16 19 -40zM384 54v347l-155 -32q-107 -22 -107 -121q0 -16 3 -34l24 -160h235z
M365 569v-40h-216v40h64l-9 47q-2 8 -2 24q0 40 24.5 66t67.5 30l32 5l5 -39l-26 -4q-34 -5 -50 -18.5t-16 -39.5q0 -5 2 -21l9 -50h115z" />
    <glyph glyph-name="uniFE86" unicode="&#x624;" horiz-adv-x="535" arabic-form="final" 
d="M550.5 46.5q6.5 -7.5 6.5 -19.5q0 -11 -6.5 -19t-15.5 -8h-108v-18q0 -40 -22 -71.5t-61 -44.5l-177 -62l-18 47l177 61q43 16 58 45v43h-12h-29h-170q-28 0 -48 16.5t-24 44.5l-22 144q-3 21 -3 39q0 69 37 114.5t107 60.5l161 33l27 -23q19 -16 19 -40v-335h108
q9 0 15.5 -7.5zM384 54v347l-155 -32q-107 -22 -107 -121q0 -16 3 -34l24 -160h235zM365 569v-40h-216v40h64l-9 47q-2 8 -2 24q0 40 24.5 66t67.5 30l32 5l5 -39l-26 -4q-34 -5 -50 -18.5t-16 -39.5q0 -5 2 -21l9 -50h115z" />
    <glyph glyph-name="uniFE88" unicode="&#x625;" horiz-adv-x="262" arabic-form="final" 
d="M120 42q-44 42 -44 121v408l43 12v-404q0 -125 121 -125h23q9 0 15.5 -8t6.5 -19t-6.5 -19t-15.5 -8h-23q-76 0 -120 42zM249 -247v-40h-216v40h64l-9 47q-2 8 -2 24q0 40 24.5 66t67.5 30l32 5l5 -39l-26 -4q-34 -5 -50 -18.5t-16 -39.5q0 -5 2 -21l9 -50h115z" />
    <glyph glyph-name="uniFE89" unicode="&#x626;" horiz-adv-x="634" arabic-form="isolated" 
d="M130.5 -142q-54.5 50 -54.5 141q0 41 10 84l24 101h42l-24 -106q-9 -39 -9 -70q0 -72 42 -109t121 -37h64q69 0 113 23.5t63 65.5l-6 49h-188q-35 0 -53.5 24t-13.5 59l30 234q6 44 32.5 78.5t70.5 45.5l59 16l15 -45l-68 -17q-27 -7 -44 -26.5t-21 -46.5l-34 -268h189
q28 0 45.5 -16.5t20.5 -46.5l2 -24q3 -31 -18 -68.5t-69 -64t-121 -26.5h-64q-101 0 -155.5 50zM216 300v-40h-216v40h64l-9 47q-2 8 -2 24q0 40 24.5 66t67.5 30l32 5l5 -39l-26 -4q-34 -5 -50 -18.5t-16 -39.5q0 -5 2 -21l9 -50h115z" />
    <glyph glyph-name="uniFE8A" unicode="&#x626;" horiz-adv-x="608" arabic-form="final" 
d="M130.5 -162.5q-54.5 50.5 -54.5 140.5q0 41 10 84l28 122h42l-28 -128q-9 -39 -9 -70q0 -71 42 -108t122 -37h56q132 0 172 89l-9 70h-201l6 54h302q9 0 15.5 -7.5t6.5 -19.5q0 -11 -6.5 -19t-15.5 -8h-61l3 -28q1 -5 1 -16q0 -42 -22.5 -80.5t-70 -63.5t-120.5 -25h-54
q-100 0 -154.5 50.5zM237 296v-40h-216v40h64l-9 47q-2 8 -2 24q0 40 24.5 66t67.5 30l32 5l5 -39l-26 -4q-34 -5 -50 -18.5t-16 -39.5q0 -5 2 -21l9 -50h115z" />
    <glyph glyph-name="uniFE8B" unicode="&#x626;" horiz-adv-x="346" arabic-form="initial" 
d="M-16.5 8q-6.5 8 -6.5 19q0 12 6.5 19.5t15.5 7.5h81q60 0 97.5 22t51.5 63l-57 288l45 20l49 -243q4 -20 4 -44q0 -73 -49.5 -116.5t-138.5 -43.5h-83q-9 0 -15.5 8zM285 571v-40h-216v40h64l-9 47q-2 8 -2 24q0 40 24.5 66t67.5 30l32 5l5 -39l-26 -4q-34 -5 -50 -18.5
t-16 -39.5q0 -5 2 -21l9 -50h115z" />
    <glyph glyph-name="uniFE8C" unicode="&#x626;" horiz-adv-x="408" arabic-form="medial" 
d="M-16.5 46.5q6.5 7.5 15.5 7.5h209q-20 18 -31 45t-11 60v213l43 9v-214q0 -50 30 -81.5t76 -31.5h94q9 0 15.5 -7.5t6.5 -19.5q0 -11 -6.5 -19t-15.5 -8h-91q-53 0 -91 32l-13 -16q-10 -9 -19.5 -12.5t-25.5 -3.5h-170q-9 0 -15.5 8t-6.5 19q0 12 6.5 19.5zM309 526v-40
h-216v40h64l-9 47q-2 8 -2 24q0 40 24.5 66t67.5 30l32 5l5 -39l-26 -4q-34 -5 -50 -18.5t-16 -39.5q0 -5 2 -21l9 -50h115z" />
    <glyph glyph-name="uniFE8E" unicode="&#x627;" horiz-adv-x="262" arabic-form="final" 
d="M120 42q-44 42 -44 121v408l43 12v-404q0 -125 121 -125h23q9 0 15.5 -8t6.5 -19t-6.5 -19t-15.5 -8h-23q-76 0 -120 42z" />
    <glyph glyph-name="uniFE90" unicode="&#x628;" horiz-adv-x="804" arabic-form="final" 
d="M128 47q-52 47 -52 130q0 32 7 64l25 112h43l-24 -111q-7 -31 -7 -60q0 -63 39 -95.5t114 -32.5h321v319l45 9v-328h166q9 0 15 -8t6 -19t-6 -19t-15 -8h-531q-94 0 -146 47zM313 -135h77v-72h-77v72z" />
    <glyph glyph-name="uniFE91" unicode="&#x628;" horiz-adv-x="346" arabic-form="initial" 
d="M-16.5 8q-6.5 8 -6.5 19q0 12 6.5 19.5t15.5 7.5h81q60 0 97.5 22t51.5 63l-57 288l45 20l49 -243q4 -20 4 -44q0 -73 -49.5 -116.5t-138.5 -43.5h-83q-9 0 -15.5 8zM79 -135h77v-72h-77v72z" />
    <glyph glyph-name="uniFE92" unicode="&#x628;" horiz-adv-x="408" arabic-form="medial" 
d="M-16.5 46.5q6.5 7.5 15.5 7.5h209q-20 18 -31 45t-11 60v213l43 9v-214q0 -50 30 -81.5t76 -31.5h94q9 0 15.5 -7.5t6.5 -19.5q0 -11 -6.5 -19t-15.5 -8h-91q-53 0 -91 32l-13 -16q-10 -9 -19.5 -12.5t-25.5 -3.5h-170q-9 0 -15.5 8t-6.5 19q0 12 6.5 19.5zM167 -135h77
v-72h-77v72z" />
    <glyph glyph-name="uniFE93" unicode="&#x629;" horiz-adv-x="491" arabic-form="isolated" 
d="M93 387l9 48l182 -48q54 -14 81.5 -45.5t36.5 -89.5l11 -72q2 -18 2 -27q0 -64 -45 -108.5t-136 -44.5h-31q-59 0 -93.5 35t-34.5 96q0 30 9 64l45 183zM114 142q0 -42 25.5 -65t69.5 -23h26q112 0 140 76l-18 113q-6 41 -27 65t-58 34l-105 26l-47 -186q-6 -22 -6 -40z
M131 582h208v-55h-208v55z" />
    <glyph glyph-name="uniFE94" unicode="&#x629;" horiz-adv-x="556" arabic-form="final" 
d="M76 207q0 152 159 192l132 32v62l45 12v-337q0 -56 30 -85t82 -29h33q9 0 15.5 -7.5t6.5 -19.5q0 -11 -6.5 -19t-15.5 -8h-33q-70 0 -115 43l-17 -31h-225q-29 0 -48 22l-26 29l-13 93q-4 24 -4 51zM391 66q-23 38 -23 88v223l-127 -31q-58 -15 -89.5 -48.5t-31.5 -96.5
q0 -18 3 -39l13 -96h255zM149 597h208v-55h-208v55z" />
    <glyph glyph-name="uniFE96" unicode="&#x62a;" horiz-adv-x="804" arabic-form="final" 
d="M128 47q-52 47 -52 130q0 32 7 64l25 112h43l-24 -111q-7 -31 -7 -60q0 -63 39 -95.5t114 -32.5h321v319l45 9v-328h166q9 0 15 -8t6 -19t-6 -19t-15 -8h-531q-94 0 -146 47zM267 471h208v-55h-208v55z" />
    <glyph glyph-name="uniFE97" unicode="&#x62a;" horiz-adv-x="346" arabic-form="initial" 
d="M-16.5 8q-6.5 8 -6.5 19q0 12 6.5 19.5t15.5 7.5h81q60 0 97.5 22t51.5 63l-57 288l45 20l49 -243q4 -20 4 -44q0 -73 -49.5 -116.5t-138.5 -43.5h-83q-9 0 -15.5 8zM30 592h208v-55h-208v55z" />
    <glyph glyph-name="uniFE98" unicode="&#x62a;" horiz-adv-x="408" arabic-form="medial" 
d="M-16.5 46.5q6.5 7.5 15.5 7.5h209q-20 18 -31 45t-11 60v213l43 9v-214q0 -50 30 -81.5t76 -31.5h94q9 0 15.5 -7.5t6.5 -19.5q0 -11 -6.5 -19t-15.5 -8h-91q-53 0 -91 32l-13 -16q-10 -9 -19.5 -12.5t-25.5 -3.5h-170q-9 0 -15.5 8t-6.5 19q0 12 6.5 19.5zM86 549h208
v-55h-208v55z" />
    <glyph glyph-name="uniFE9A" unicode="&#x62b;" horiz-adv-x="804" arabic-form="final" 
d="M128 47q-52 47 -52 130q0 32 7 64l25 112h43l-24 -111q-7 -31 -7 -60q0 -63 39 -95.5t114 -32.5h321v319l45 9v-328h166q9 0 15 -8t6 -19t-6 -19t-15 -8h-531q-94 0 -146 47zM336 519v68h71v-68h-71zM267 471h209v-55h-209v55z" />
    <glyph glyph-name="uniFE9B" unicode="&#x62b;" horiz-adv-x="346" arabic-form="initial" 
d="M-16.5 8q-6.5 8 -6.5 19q0 12 6.5 19.5t15.5 7.5h81q60 0 97.5 22t51.5 63l-57 288l45 20l49 -243q4 -20 4 -44q0 -73 -49.5 -116.5t-138.5 -43.5h-83q-9 0 -15.5 8zM106 635v68h71v-68h-71zM37 587h209v-55h-209v55z" />
    <glyph glyph-name="uniFE9C" unicode="&#x62b;" horiz-adv-x="408" arabic-form="medial" 
d="M-16.5 46.5q6.5 7.5 15.5 7.5h209q-20 18 -31 45t-11 60v213l43 9v-214q0 -50 30 -81.5t76 -31.5h94q9 0 15.5 -7.5t6.5 -19.5q0 -11 -6.5 -19t-15.5 -8h-91q-53 0 -91 32l-13 -16q-10 -9 -19.5 -12.5t-25.5 -3.5h-170q-9 0 -15.5 8t-6.5 19q0 12 6.5 19.5zM108 591v68
h71v-68h-71zM39 543h209v-55h-209v55z" />
    <glyph glyph-name="uniFE9E" unicode="&#x62c;" horiz-adv-x="625" arabic-form="final" 
d="M116 -222q-18 15 -23 39l-14 74q-3 16 -3 31q0 57 39 94.5t100 37.5h272l-28 206q-9 67 -44 100t-90 33q-17 0 -37 -3l-129 -21l5 54l122 20q21 3 40 3q72 0 120 -43.5t58 -122.5l31 -226h91q9 0 15.5 -8t6.5 -19q0 -12 -6.5 -19.5t-15.5 -7.5h-415q-38 0 -62 -23
t-24 -58q0 -6 2 -20l17 -82h258l-15 -54h-228q-25 0 -43 15zM448 -101h77v-72h-77v72z" />
    <glyph glyph-name="uniFE9F" unicode="&#x62c;" horiz-adv-x="605" arabic-form="initial" 
d="M-16.5 8q-6.5 8 -6.5 19q0 12 6.5 19.5t15.5 7.5h398l-28 206q-10 67 -44.5 100.5t-89.5 33.5q-12 0 -38 -4l-123 -20l5 54l117 19q21 3 40 3q72 0 119.5 -43.5t58.5 -122.5l31 -226h84l-15 -54h-515q-9 0 -15.5 8zM271 -112h77v-72h-77v72z" />
    <glyph glyph-name="uniFEA0" unicode="&#x62c;" horiz-adv-x="527" arabic-form="medial" 
d="M-16.5 8q-6.5 8 -6.5 19q0 12 6.5 19.5t15.5 7.5h398l-28 206q-10 67 -44.5 100.5t-89.5 33.5q-12 0 -38 -4l-123 -20l5 54l117 19q21 3 40 3q72 0 119.5 -43.5t58.5 -122.5l31 -226h83q9 0 15 -7.5t6 -19.5q0 -11 -6 -19t-15 -8h-529q-9 0 -15.5 8zM280 -113h77v-72h-77
v72z" />
    <glyph glyph-name="uniFEA2" unicode="&#x62d;" horiz-adv-x="628" arabic-form="final" 
d="M116 -222q-18 15 -23 39l-14 74q-3 16 -3 31q0 57 39 94.5t100 37.5h275l-28 206q-10 67 -44.5 100.5t-89.5 33.5q-12 0 -38 -4l-123 -20l5 54l117 19q21 3 40 3q72 0 119.5 -43.5t58.5 -122.5l31 -226h90q9 0 15.5 -8t6.5 -19q0 -12 -6.5 -19.5t-15.5 -7.5h-417
q-38 0 -62 -23t-24 -58q0 -6 2 -20l17 -82h261l-15 -54h-231q-25 0 -43 15z" />
    <glyph glyph-name="uniFEA3" unicode="&#x62d;" horiz-adv-x="605" arabic-form="initial" 
d="M-16.5 8q-6.5 8 -6.5 19q0 12 6.5 19.5t15.5 7.5h398l-28 206q-10 67 -44.5 100.5t-89.5 33.5q-12 0 -38 -4l-123 -20l5 54l117 19q21 3 40 3q72 0 119.5 -43.5t58.5 -122.5l31 -226h84l-15 -54h-515q-9 0 -15.5 8z" />
    <glyph glyph-name="uniFEA4" unicode="&#x62d;" horiz-adv-x="527" arabic-form="medial" 
d="M-16.5 8q-6.5 8 -6.5 19q0 12 6.5 19.5t15.5 7.5h398l-28 206q-10 67 -44.5 100.5t-89.5 33.5q-12 0 -38 -4l-123 -20l5 54l117 19q21 3 40 3q72 0 119.5 -43.5t58.5 -122.5l31 -226h83q9 0 15 -7.5t6 -19.5q0 -11 -6 -19t-15 -8h-529q-9 0 -15.5 8z" />
    <glyph glyph-name="uniFEA6" unicode="&#x62e;" horiz-adv-x="628" arabic-form="final" 
d="M116 -222q-18 15 -23 39l-14 74q-3 16 -3 31q0 57 39 94.5t100 37.5h275l-28 206q-10 67 -44.5 100.5t-89.5 33.5q-12 0 -38 -4l-123 -20l5 54l117 19q21 3 40 3q72 0 119.5 -43.5t58.5 -122.5l31 -226h90q9 0 15.5 -8t6.5 -19q0 -12 -6.5 -19.5t-15.5 -7.5h-417
q-38 0 -62 -23t-24 -58q0 -6 2 -20l17 -82h261l-15 -54h-231q-25 0 -43 15zM275 639h77v-72h-77v72z" />
    <glyph glyph-name="uniFEA7" unicode="&#x62e;" horiz-adv-x="605" arabic-form="initial" 
d="M-16.5 8q-6.5 8 -6.5 19q0 12 6.5 19.5t15.5 7.5h398l-28 206q-10 67 -44.5 100.5t-89.5 33.5q-12 0 -38 -4l-123 -20l5 54l117 19q21 3 40 3q72 0 119.5 -43.5t58.5 -122.5l31 -226h84l-15 -54h-515q-9 0 -15.5 8zM188 639h77v-72h-77v72z" />
    <glyph glyph-name="uniFEA8" unicode="&#x62e;" horiz-adv-x="527" arabic-form="medial" 
d="M-16.5 8q-6.5 8 -6.5 19q0 12 6.5 19.5t15.5 7.5h398l-28 206q-10 67 -44.5 100.5t-89.5 33.5q-12 0 -38 -4l-123 -20l5 54l117 19q21 3 40 3q72 0 119.5 -43.5t58.5 -122.5l31 -226h83q9 0 15 -7.5t6 -19.5q0 -11 -6 -19t-15 -8h-529q-9 0 -15.5 8zM188 639h77v-72h-77
v72z" />
    <glyph glyph-name="uniFEAA" unicode="&#x62f;" horiz-adv-x="576" arabic-form="final" 
d="M316.5 74q38.5 20 55.5 60l-56 321l41 21l57 -329q7 -38 38.5 -65.5t82.5 -27.5h42q9 0 15.5 -8t6.5 -19t-6.5 -19t-15.5 -8h-33q-57 0 -96 24.5t-54 66.5q-21 -43 -66 -67t-113 -24h-134l-5 54h135q67 0 105.5 20z" />
    <glyph glyph-name="uniFEAC" unicode="&#x630;" horiz-adv-x="576" arabic-form="final" 
d="M316.5 74q38.5 20 55.5 60l-56 321l41 21l57 -329q7 -38 38.5 -65.5t82.5 -27.5h42q9 0 15.5 -8t6.5 -19t-6.5 -19t-15.5 -8h-33q-57 0 -96 24.5t-54 66.5q-21 -43 -66 -67t-113 -24h-134l-5 54h135q67 0 105.5 20zM267 664h77v-72h-77v72z" />
    <glyph glyph-name="uniFEAE" unicode="&#x631;" horiz-adv-x="371" arabic-form="final" 
d="M116 -100q39 16 59 36v429l44 8v-203q0 -55 29 -85.5t76 -30.5h48q9 0 15.5 -7.5t6.5 -19.5q0 -11 -6.5 -19t-15.5 -8h-47q-35 0 -62.5 14t-43.5 40v-85q0 -35 -21.5 -66.5t-64.5 -48.5l-130 -52l-17 46z" />
    <glyph glyph-name="uniFEB0" unicode="&#x632;" horiz-adv-x="371" arabic-form="final" 
d="M116 -100q39 16 59 36v429l44 8v-203q0 -55 29 -85.5t76 -30.5h48q9 0 15.5 -7.5t6.5 -19.5q0 -11 -6.5 -19t-15.5 -8h-47q-35 0 -62.5 14t-43.5 40v-85q0 -35 -21.5 -66.5t-64.5 -48.5l-130 -52l-17 46zM154 571h77v-72h-77v72z" />
    <glyph glyph-name="uniFEB2" unicode="&#x633;" horiz-adv-x="1206" arabic-form="final" 
d="M152 184l-24 -106q-9 -39 -9 -71q0 -72 42 -108.5t121 -36.5h48q63 0 105 22.5t62 61.5l-51 366l44 16l38 -274h162q38 0 61.5 25t23.5 64v125h44v-133q0 -26 -9 -47l203 -53l-64 352l44 22l46 -251q8 -46 40.5 -75t90.5 -29h37q9 0 15.5 -7.5t6.5 -19.5q0 -11 -6.5 -19
t-15.5 -8h-34q-45 0 -78.5 17t-53.5 48l5 -33l-3 -7l-35 -44l-222 59q-40 -40 -102 -40h-150l5 -32q4 -32 -17 -69.5t-69 -64t-122 -26.5h-47q-100 0 -154.5 50t-54.5 140q0 38 11 85l24 101h42z" />
    <glyph glyph-name="uniFEB3" unicode="&#x633;" horiz-adv-x="793" arabic-form="initial" 
d="M346 0h-347q-9 0 -15.5 8t-6.5 19q0 12 6.5 19.5t15.5 7.5h145v279l44 10v-289h165q38 0 61.5 25t23.5 64v125h44v-134q0 -22 -9 -47l203 -52l-68 367l45 22l62 -349q2 -10 2 -16q0 -23 -19 -45l-28 -33l-222 59q-38 -40 -102 -40z" />
    <glyph glyph-name="uniFEB4" unicode="&#x633;" horiz-adv-x="869" arabic-form="medial" 
d="M347 0h-347q-10 0 -16.5 8t-6.5 19q0 12 6.5 19.5t16.5 7.5h145v280l44 10v-290h165q38 0 61.5 25t23.5 64v125h44v-133q0 -28 -10 -48l204 -52l-64 351l44 23l47 -261q11 -42 42.5 -68t86.5 -26h37q9 0 15.5 -7.5t6.5 -19.5q0 -11 -6.5 -19t-15.5 -8h-34q-90 0 -131 63
l5 -31q0 -1 -1 -3t-3 -5l-35 -43l-222 59q-38 -40 -102 -40z" />
    <glyph glyph-name="uniFEB6" unicode="&#x634;" horiz-adv-x="1206" arabic-form="final" 
d="M152 184l-24 -106q-9 -39 -9 -71q0 -72 42 -108.5t121 -36.5h48q63 0 105 22.5t62 61.5l-51 366l44 16l38 -274h162q38 0 61.5 25t23.5 64v125h44v-133q0 -26 -9 -47l203 -53l-64 352l44 22l46 -251q8 -46 40.5 -75t90.5 -29h37q9 0 15.5 -7.5t6.5 -19.5q0 -11 -6.5 -19
t-15.5 -8h-34q-45 0 -78.5 17t-53.5 48l5 -33l-3 -7l-35 -44l-222 59q-40 -40 -102 -40h-150l5 -32q4 -32 -17 -69.5t-69 -64t-122 -26.5h-47q-100 0 -154.5 50t-54.5 140q0 38 11 85l24 101h42zM725 510v68h71v-68h-71zM656 462h209v-55h-209v55z" />
    <glyph glyph-name="uniFEB7" unicode="&#x634;" horiz-adv-x="793" arabic-form="initial" 
d="M346 0h-347q-9 0 -15.5 8t-6.5 19q0 12 6.5 19.5t15.5 7.5h145v279l44 10v-289h165q38 0 61.5 25t23.5 64v125h44v-134q0 -22 -9 -47l203 -52l-68 367l45 22l62 -349q2 -10 2 -16q0 -23 -19 -45l-28 -33l-222 59q-38 -40 -102 -40zM403 510v68h71v-68h-71zM334 462h209
v-55h-209v55z" />
    <glyph glyph-name="uniFEB8" unicode="&#x634;" horiz-adv-x="869" arabic-form="medial" 
d="M347 0h-347q-10 0 -16.5 8t-6.5 19q0 12 6.5 19.5t16.5 7.5h145v280l44 10v-290h165q38 0 61.5 25t23.5 64v125h44v-133q0 -28 -10 -48l204 -52l-64 351l44 23l47 -261q11 -42 42.5 -68t86.5 -26h37q9 0 15.5 -7.5t6.5 -19.5q0 -11 -6.5 -19t-15.5 -8h-34q-90 0 -131 63
l5 -31q0 -1 -1 -3t-3 -5l-35 -43l-222 59q-38 -40 -102 -40zM404 510v68h71v-68h-71zM335 462h209v-55h-209v55z" />
    <glyph glyph-name="uniFEBA" unicode="&#x635;" horiz-adv-x="1168" arabic-form="final" 
d="M152 184l-24 -106q-9 -39 -9 -71q0 -72 42 -108.5t122 -36.5h47q63 0 106 23t63 63l-56 385l44 17l16 -112l136 159q69 81 145 81q34 0 71 -15l51 -20q32 -13 49.5 -31t22.5 -49l39 -220q6 -36 33.5 -62.5t83.5 -26.5h35q9 0 15.5 -7.5t6.5 -19.5q0 -11 -6.5 -19
t-15.5 -8h-31q-109 0 -145 100q-19 -45 -66 -72.5t-116 -27.5h-185q-28 0 -54 8.5t-42 25.5l9 -66q4 -32 -16.5 -69.5t-69 -64t-122.5 -26.5h-46q-100 0 -154.5 50.5t-54.5 140.5q0 41 10 84l24 101h42zM549 74q29 -20 70 -20h202q60 0 99 23.5t53 66.5l-42 238l-83 31
q-39 14 -67 14q-32 0 -60 -16t-57 -50l-156 -182l8 -53q4 -32 33 -52z" />
    <glyph glyph-name="uniFEBB" unicode="&#x635;" horiz-adv-x="738" arabic-form="initial" 
d="M-16.5 8q-6.5 8 -6.5 19t6.5 19t15.5 8h31q45 0 74 21t31 51l-2 272l44 10v-145l114 134q69 81 145 81q33 0 71 -15l51 -20q32 -13 49.5 -31t23.5 -49l28 -162q3 -16 3 -34q0 -47 -23.5 -85t-68 -60t-107.5 -22h-184q-39 0 -73 16.5t-53 44.5q-37 -61 -124 -61h-30
q-9 0 -15.5 8zM572.5 77.5q39.5 23.5 53.5 66.5l-43 238l-83 31q-39 14 -67 14q-32 0 -60 -16t-57 -50l-145 -169l3 -56q4 -39 34 -60.5t71 -21.5h194q60 0 99.5 23.5z" />
    <glyph glyph-name="uniFEBC" unicode="&#x635;" horiz-adv-x="821" arabic-form="medial" 
d="M-16.5 8q-6.5 8 -6.5 19t6.5 19t15.5 8h31q45 0 74 21t31 51l-2 272l44 10v-145l114 134q69 81 145 81q33 0 71 -15l51 -20q32 -13 49.5 -31t23.5 -49l38 -214q7 -42 35 -68.5t83 -26.5h35q9 0 15.5 -7.5t6.5 -19.5q0 -11 -6.5 -19t-15.5 -8h-31q-111 0 -145 100
q-20 -45 -67 -72.5t-116 -27.5h-184q-39 0 -73 16.5t-53 44.5q-37 -61 -124 -61h-30q-9 0 -15.5 8zM572.5 77.5q39.5 23.5 53.5 66.5l-43 238l-83 31q-39 14 -67 14q-32 0 -60 -16t-57 -50l-145 -169l3 -56q4 -39 34 -60.5t71 -21.5h194q60 0 99.5 23.5z" />
    <glyph glyph-name="uniFEBE" unicode="&#x636;" horiz-adv-x="1168" arabic-form="final" 
d="M152 184l-24 -106q-9 -39 -9 -71q0 -72 42 -108.5t122 -36.5h47q63 0 106 23t63 63l-56 385l44 17l16 -112l136 159q69 81 145 81q34 0 71 -15l51 -20q32 -13 49.5 -31t22.5 -49l39 -220q6 -36 33.5 -62.5t83.5 -26.5h35q9 0 15.5 -7.5t6.5 -19.5q0 -11 -6.5 -19
t-15.5 -8h-31q-109 0 -145 100q-19 -45 -66 -72.5t-116 -27.5h-185q-28 0 -54 8.5t-42 25.5l9 -66q4 -32 -16.5 -69.5t-69 -64t-122.5 -26.5h-46q-100 0 -154.5 50.5t-54.5 140.5q0 41 10 84l24 101h42zM549 74q29 -20 70 -20h202q60 0 99 23.5t53 66.5l-42 238l-83 31
q-39 14 -67 14q-32 0 -60 -16t-57 -50l-156 -182l8 -53q4 -32 33 -52zM726 645h77v-72h-77v72z" />
    <glyph glyph-name="uniFEBF" unicode="&#x636;" horiz-adv-x="738" arabic-form="initial" 
d="M-16.5 8q-6.5 8 -6.5 19t6.5 19t15.5 8h31q45 0 74 21t31 51l-2 272l44 10v-145l114 134q69 81 145 81q33 0 71 -15l51 -20q32 -13 49.5 -31t23.5 -49l28 -162q3 -16 3 -34q0 -47 -23.5 -85t-68 -60t-107.5 -22h-184q-39 0 -73 16.5t-53 44.5q-37 -61 -124 -61h-30
q-9 0 -15.5 8zM572.5 77.5q39.5 23.5 53.5 66.5l-43 238l-83 31q-39 14 -67 14q-32 0 -60 -16t-57 -50l-145 -169l3 -56q4 -39 34 -60.5t71 -21.5h194q60 0 99.5 23.5zM370 645h77v-72h-77v72z" />
    <glyph glyph-name="uniFEC0" unicode="&#x636;" horiz-adv-x="821" arabic-form="medial" 
d="M-16.5 8q-6.5 8 -6.5 19t6.5 19t15.5 8h31q45 0 74 21t31 51l-2 272l44 10v-145l114 134q69 81 145 81q33 0 71 -15l51 -20q32 -13 49.5 -31t23.5 -49l38 -214q7 -42 35 -68.5t83 -26.5h35q9 0 15.5 -7.5t6.5 -19.5q0 -11 -6.5 -19t-15.5 -8h-31q-111 0 -145 100
q-20 -45 -67 -72.5t-116 -27.5h-184q-39 0 -73 16.5t-53 44.5q-37 -61 -124 -61h-30q-9 0 -15.5 8zM572.5 77.5q39.5 23.5 53.5 66.5l-43 238l-83 31q-39 14 -67 14q-32 0 -60 -16t-57 -50l-145 -169l3 -56q4 -39 34 -60.5t71 -21.5h194q60 0 99.5 23.5zM370 645h77v-72h-77
v72z" />
    <glyph glyph-name="uniFEC2" unicode="&#x637;" horiz-adv-x="860" arabic-form="final" 
d="M173 54l-1 533l43 10v-307v-17v-10l114 134q69 81 146 81q33 0 71 -15l51 -21q32 -13 49.5 -31t22.5 -48l38 -214q17 -95 118 -95h35q9 0 15.5 -7.5t6.5 -19.5q0 -11 -6.5 -19t-15.5 -8h-31q-60 0 -94 26.5t-51 72.5q-19 -45 -66 -72t-116 -27h-418l-8 54h97zM611 77
q39 23 53 67l-42 238l-84 31q-39 14 -67 14q-32 0 -60 -16t-57 -50l-139 -163l1 -144h296q60 0 99 23z" />
    <glyph glyph-name="uniFEC3" unicode="&#x637;" horiz-adv-x="713" arabic-form="initial" 
d="M-16.5 8q-6.5 8 -6.5 19t6.5 19t15.5 8h111l-1 533l43 10v-309v-16v-9l114 134q69 81 145 81q33 0 71 -15l52 -21q32 -13 49 -31t23 -48l28 -163q3 -18 3 -34q0 -47 -23 -84.5t-68 -59.5t-107 -22h-440q-9 0 -15.5 8zM548 77.5q39 23.5 53 66.5l-42 238l-84 31
q-39 14 -67 14q-32 0 -60 -16t-57 -50l-139 -163v-144h297q60 0 99 23.5z" />
    <glyph glyph-name="uniFEC4" unicode="&#x637;" horiz-adv-x="796" arabic-form="medial" 
d="M-16.5 8q-6.5 8 -6.5 19t6.5 19t15.5 8h111l-1 533l43 10v-307v-17v-10l114 134q69 81 145 81q33 0 71 -15l52 -21q32 -13 49 -31t23 -48l38 -214q7 -42 35 -68.5t83 -26.5h35q9 0 15.5 -7.5t6.5 -19.5q0 -11 -6.5 -19t-15.5 -8h-31q-60 0 -94 26.5t-51 72.5
q-19 -45 -66 -72t-116 -27h-440q-9 0 -15.5 8zM548 77q39 23 53 67l-42 238l-84 31q-39 14 -67 14q-32 0 -60 -16t-57 -50l-139 -163v-144h297q60 0 99 23z" />
    <glyph glyph-name="uniFEC6" unicode="&#x638;" horiz-adv-x="860" arabic-form="final" 
d="M173 54l-1 533l43 10v-307v-17v-10l114 134q69 81 146 81q33 0 71 -15l51 -21q32 -13 49.5 -31t22.5 -48l38 -214q17 -95 118 -95h35q9 0 15.5 -7.5t6.5 -19.5q0 -11 -6.5 -19t-15.5 -8h-31q-60 0 -94 26.5t-51 72.5q-19 -45 -66 -72t-116 -27h-418l-8 54h97zM611 77
q39 23 53 67l-42 238l-84 31q-39 14 -67 14q-32 0 -60 -16t-57 -50l-139 -163l1 -144h296q60 0 99 23zM418 645h77v-72h-77v72z" />
    <glyph glyph-name="uniFEC7" unicode="&#x638;" horiz-adv-x="713" arabic-form="initial" 
d="M-16.5 8q-6.5 8 -6.5 19t6.5 19t15.5 8h111l-1 533l43 10v-309v-16v-9l114 134q69 81 145 81q33 0 71 -15l52 -21q32 -13 49 -31t23 -48l28 -163q3 -18 3 -34q0 -47 -23 -84.5t-68 -59.5t-107 -22h-440q-9 0 -15.5 8zM548 77.5q39 23.5 53 66.5l-42 238l-84 31
q-39 14 -67 14q-32 0 -60 -16t-57 -50l-139 -163v-144h297q60 0 99 23.5zM346 645h77v-72h-77v72z" />
    <glyph glyph-name="uniFEC8" unicode="&#x638;" horiz-adv-x="796" arabic-form="medial" 
d="M-16.5 8q-6.5 8 -6.5 19t6.5 19t15.5 8h111l-1 533l43 10v-307v-17v-10l114 134q69 81 145 81q33 0 71 -15l52 -21q32 -13 49 -31t23 -48l38 -214q7 -42 35 -68.5t83 -26.5h35q9 0 15.5 -7.5t6.5 -19.5q0 -11 -6.5 -19t-15.5 -8h-31q-60 0 -94 26.5t-51 72.5
q-19 -45 -66 -72t-116 -27h-440q-9 0 -15.5 8zM548 77q39 23 53 67l-42 238l-84 31q-39 14 -67 14q-32 0 -60 -16t-57 -50l-139 -163v-144h297q60 0 99 23zM346 645h77v-72h-77v72z" />
    <glyph glyph-name="uniFECA" unicode="&#x639;" horiz-adv-x="542" arabic-form="final" 
d="M106 419l202 24q16 2 24 2q65 0 105.5 -40.5t40.5 -102.5q0 -30 -10 -60l-65 -188h140q9 0 15.5 -8t6.5 -19t-6.5 -19t-15.5 -8h-326q-38 0 -62.5 -22.5t-24.5 -56.5q0 -12 3 -22l17 -81h250l-15 -54h-219q-25 0 -43.5 14.5t-23.5 39.5l-14 74q-3 15 -3 29q0 45 24 78
t65 45q-31 25 -42 71l-53 243l14 31zM203.5 76q25.5 -22 61.5 -22h90l68 193q9 27 9 50q0 43 -28 69.5t-76 26.5q-13 0 -20 -1l-190 -23l51 -233q9 -38 34.5 -60z" />
    <glyph glyph-name="uniFECB" unicode="&#x639;" horiz-adv-x="522" arabic-form="initial" 
d="M-16.5 46q6.5 8 15.5 8h129l-33 141q-7 31 -7 62q0 72 36.5 124t92.5 70q17 5 27 5q14 0 41 -9l56 -21l-9 -49l-93 35l-23 -12q-40 -21 -63 -55t-23 -81q0 -26 7 -53l36 -157h288l-12 -54h-450q-9 0 -15.5 8t-6.5 19t6.5 19z" />
    <glyph glyph-name="uniFECC" unicode="&#x639;" horiz-adv-x="555" arabic-form="medial" 
d="M-16.5 8q-6.5 8 -6.5 19t6.5 19t15.5 8h178q-28 23 -35 61l-55 243l17 35l13 26l203 24q8 1 24 1q66 0 106.5 -40t40.5 -101q0 -28 -11 -61l-65 -188h140q9 0 15.5 -8t6.5 -19t-6.5 -19t-15.5 -8h-277q-44 0 -77 25q-4 -3 -6 -7q-10 -11 -19.5 -14.5t-28.5 -3.5h-148
q-9 0 -15.5 8zM434 247q9 27 9 51q0 43 -28 69t-75 26q-14 0 -21 -1l-189 -23l52 -233q8 -38 33.5 -60t61.5 -22h90z" />
    <glyph glyph-name="uniFECE" unicode="&#x63a;" horiz-adv-x="542" arabic-form="final" 
d="M106 419l202 24q16 2 24 2q65 0 105.5 -40.5t40.5 -102.5q0 -30 -10 -60l-65 -188h140q9 0 15.5 -8t6.5 -19t-6.5 -19t-15.5 -8h-326q-38 0 -62.5 -22.5t-24.5 -56.5q0 -12 3 -22l17 -81h250l-15 -54h-219q-25 0 -43.5 14.5t-23.5 39.5l-14 74q-3 15 -3 29q0 45 24 78
t65 45q-31 25 -42 71l-53 243l14 31zM203.5 76q25.5 -22 61.5 -22h90l68 193q9 27 9 50q0 43 -28 69.5t-76 26.5q-13 0 -20 -1l-190 -23l51 -233q9 -38 34.5 -60zM223 615h77v-72h-77v72z" />
    <glyph glyph-name="uniFECF" unicode="&#x63a;" horiz-adv-x="522" arabic-form="initial" 
d="M-16.5 46q6.5 8 15.5 8h129l-33 141q-7 31 -7 62q0 72 36.5 124t92.5 70q17 5 27 5q14 0 41 -9l56 -21l-9 -49l-93 35l-23 -12q-40 -21 -63 -55t-23 -81q0 -26 7 -53l36 -157h288l-12 -54h-450q-9 0 -15.5 8t-6.5 19t6.5 19zM179 621h77v-72h-77v72z" />
    <glyph glyph-name="uniFED0" unicode="&#x63a;" horiz-adv-x="555" arabic-form="medial" 
d="M-16.5 8q-6.5 8 -6.5 19t6.5 19t15.5 8h178q-28 23 -35 61l-55 243l17 35l13 26l203 24q8 1 24 1q66 0 106.5 -40t40.5 -101q0 -28 -11 -61l-65 -188h140q9 0 15.5 -8t6.5 -19t-6.5 -19t-15.5 -8h-277q-44 0 -77 25q-4 -3 -6 -7q-10 -11 -19.5 -14.5t-28.5 -3.5h-148
q-9 0 -15.5 8zM434 247q9 27 9 51q0 43 -28 69t-75 26q-14 0 -21 -1l-189 -23l52 -233q8 -38 33.5 -60t61.5 -22h90zM251 615h77v-72h-77v72z" />
    <glyph glyph-name="uniFED2" unicode="&#x641;" horiz-adv-x="914" arabic-form="final" 
d="M127.5 47q-51.5 47 -51.5 130q0 32 7 64l25 112h43l-24 -111q-7 -31 -7 -60q0 -63 39 -95.5t114 -32.5h194q-38 36 -38 91q0 19 4 35l43 215q6 31 28 51l25 24l128 -43q69 -24 99.5 -69t26.5 -118l-10 -186h142q9 0 15.5 -7.5t6.5 -19.5q0 -11 -6.5 -19t-15.5 -8h-337
q-47 0 -84 24l-5 -5q-10 -11 -19.5 -15t-28.5 -4h-168q-94 0 -145.5 47zM740 234q3 58 -19 89t-76 50l-121 41l-45 -232q-3 -13 -3 -27q0 -44 28 -72.5t74 -28.5h152zM515 637h77v-72h-77v72z" />
    <glyph glyph-name="uniFED3" unicode="&#x641;" horiz-adv-x="486" arabic-form="initial" 
d="M-16.5 8q-6.5 8 -6.5 19q0 12 6.5 19.5t15.5 7.5h289q30 0 51 11.5t28 31.5v65h-11h-16h-190q-28 0 -48.5 17t-24.5 44l-14 91q-4 30 -4 42q0 67 37.5 111.5t106.5 58.5l162 34l27 -22q18 -16 18 -42v-377q0 -51 -34.5 -85t-93.5 -34h-283q-9 0 -15.5 8zM367 509
l-154 -33q-54 -11 -80.5 -39.5t-26.5 -77.5q0 -17 3 -38l16 -104h242v292zM200 715h77v-72h-77v72z" />
    <glyph glyph-name="uniFED4" unicode="&#x641;" horiz-adv-x="602" arabic-form="medial" 
d="M-16.5 46.5q6.5 7.5 15.5 7.5h157q-39 36 -39 92q0 10 4 34l44 215q7 33 27 51l26 24l127 -43q69 -24 99.5 -69t26.5 -118l-10 -186h142q9 0 15.5 -7.5t6.5 -19.5q0 -11 -6.5 -19t-15.5 -8h-337q-48 0 -84 25l-7 -8q-10 -10 -19 -13.5t-27 -3.5h-130q-9 0 -15.5 8
t-6.5 19q0 12 6.5 19.5zM164 157q0 -45 28 -74t74 -29h151l11 180q3 58 -19 89t-77 50l-121 41l-45 -232q-2 -9 -2 -25zM198 637h77v-72h-77v72z" />
    <glyph glyph-name="uniFED6" unicode="&#x642;" horiz-adv-x="731" arabic-form="final" 
d="M138 -141.5q-54 50.5 -54 140.5q0 41 10 84l24 101h42l-23 -106q-9 -39 -9 -71q0 -71 41.5 -108t120.5 -37h118q61 0 103 20t63 57v61h-211q-28 0 -48 16.5t-24 44.5l-22 145q-3 20 -3 39q0 68 37.5 113.5t107.5 60.5l160 33l27 -23q19 -16 19 -40v-335h115
q9 0 15.5 -7.5t6.5 -19.5q0 -11 -6.5 -19t-15.5 -8h-115q0 -19 -1 -29q-4 -69 -56 -116t-150 -47h-117q-101 0 -155 50.5zM574 401l-155 -32q-54 -11 -80 -41.5t-26 -80.5q0 -21 2 -33l24 -160h235v347zM350 610h208v-55h-208v55z" />
    <glyph glyph-name="uniFED7" unicode="&#x642;" horiz-adv-x="486" arabic-form="initial" 
d="M-16.5 8q-6.5 8 -6.5 19q0 12 6.5 19.5t15.5 7.5h289q30 0 51 11.5t28 31.5v65h-11h-16h-190q-28 0 -48.5 17t-24.5 44l-14 91q-4 30 -4 42q0 67 37.5 111.5t106.5 58.5l162 34l27 -22q18 -16 18 -42v-377q0 -51 -34.5 -85t-93.5 -34h-283q-9 0 -15.5 8zM367 509
l-154 -33q-54 -11 -80.5 -39.5t-26.5 -77.5q0 -17 3 -38l16 -104h242v292zM153 705h208v-55h-208v55z" />
    <glyph glyph-name="uniFED8" unicode="&#x642;" horiz-adv-x="602" arabic-form="medial" 
d="M-16.5 46.5q6.5 7.5 15.5 7.5h157q-39 36 -39 92q0 10 4 34l44 215q7 33 27 51l26 24l127 -43q69 -24 99.5 -69t26.5 -118l-10 -186h142q9 0 15.5 -7.5t6.5 -19.5q0 -11 -6.5 -19t-15.5 -8h-337q-48 0 -84 25l-7 -8q-10 -10 -19 -13.5t-27 -3.5h-130q-9 0 -15.5 8
t-6.5 19q0 12 6.5 19.5zM164 157q0 -45 28 -74t74 -29h151l11 180q3 58 -19 89t-77 50l-121 41l-45 -232q-2 -9 -2 -25zM171 620h208v-55h-208v55z" />
    <glyph glyph-name="uniFEDA" unicode="&#x643;" horiz-adv-x="689" arabic-form="final" 
d="M488 139l-4 436l44 12v-415q0 -54 30.5 -86t89.5 -32h42q9 0 15.5 -8t6.5 -19t-6.5 -19t-15.5 -8h-42q-54 0 -88.5 25t-46.5 69q-19 -43 -63 -68.5t-109 -25.5h-258l-7 54h263q121 0 149 85zM331 260l-13 48q-5 17 -15.5 25t-28.5 8h-79l-14 44l76 82l14 -26l-66 -69h71
q51 0 63 -47l15 -50q2 -6 2 -16q0 -30 -35 -30h-136v31h146z" />
    <glyph glyph-name="uniFEDB" unicode="&#x643;" horiz-adv-x="529" arabic-form="initial" 
d="M-16.5 8q-6.5 8 -6.5 19t6.5 19t15.5 8h260q61 0 99.5 23t51.5 65l-18 88q-11 53 -44.5 81.5t-89.5 28.5h-179l-35 74l206 207l20 -44l-183 -187h165q74 0 121 -37t61 -101l12 -55q4 -17 4 -38q0 -45 -23 -81.5t-65.5 -57t-100.5 -20.5h-262q-9 0 -15.5 8z" />
    <glyph glyph-name="uniFEDC" unicode="&#x643;" horiz-adv-x="613" arabic-form="medial" 
d="M-16.5 8q-6.5 8 -6.5 19t6.5 19t15.5 8h430q-2 4 -2 8l-29 162q-10 56 -46.5 86t-91.5 30h-173l-34 74l205 207l21 -44l-183 -187h158q74 0 123.5 -39t61.5 -105l24 -128q7 -28 28 -46t60 -18h63q9 0 15.5 -8t6.5 -19t-6.5 -19t-15.5 -8h-63q-59 0 -91 37l-8 -10
q-14 -16 -24 -21.5t-32 -5.5h-397q-9 0 -15.5 8z" />
    <glyph glyph-name="uniFEDE" unicode="&#x644;" horiz-adv-x="675" arabic-form="final" 
d="M152 184l-24 -105q-9 -39 -9 -71q0 -72 42 -109t122 -37h33q55 0 95 18.5t61 49.5l-4 641l44 12v-406q0 -55 32 -89t90 -34h42q9 0 15.5 -8t6.5 -19t-6.5 -19t-15.5 -8h-42q-42 0 -73.5 17.5t-48.5 48.5v-114q0 -31 -21 -64.5t-65 -56.5t-109 -23h-34q-99 0 -153.5 50.5
t-54.5 140.5q0 37 11 84l24 101h42z" />
    <glyph glyph-name="uniFEDF" unicode="&#x644;" horiz-adv-x="308" arabic-form="initial" 
d="M-16.5 8q-6.5 8 -6.5 19q0 12 6.5 19.5t15.5 7.5h43q61 0 98.5 22t51.5 62l-4 433l44 12v-423q0 -45 -22.5 -81.5t-65 -57.5t-100.5 -21h-45q-9 0 -15.5 8z" />
    <glyph glyph-name="uniFEE0" unicode="&#x644;" horiz-adv-x="394" arabic-form="medial" 
d="M-16.5 46.5q6.5 7.5 15.5 7.5h42q61 0 98 22t51 62l-3 433l44 12v-406q0 -55 32 -89t90 -34h42q9 0 15.5 -8t6.5 -19t-6.5 -19t-15.5 -8h-42q-53 0 -88.5 26t-47.5 70q-19 -44 -64 -70t-110 -26h-44q-9 0 -15.5 8t-6.5 19q0 12 6.5 19.5z" />
    <glyph glyph-name="uniFEE2" unicode="&#x645;" horiz-adv-x="566" arabic-form="final" 
d="M86.5 6.5q10.5 18.5 29.5 27.5q11 10 28 15q-22 20 -32.5 50.5t-10.5 64.5q0 9 2 27l23 166q3 23 15 42l29 47h106q83 0 127 -46t53 -127l17 -166l3 -28l2 -25h89q9 0 15.5 -8t6.5 -19t-6.5 -19t-15.5 -8h-393q-38 0 -55 -20v-160l-43 -13v156q0 25 10.5 43.5zM413 267
q-13 129 -137 129h-103l-26 -206q-2 -16 -2 -24q0 -49 27 -80.5t76 -31.5h186z" />
    <glyph glyph-name="uniFEE3" unicode="&#x645;" horiz-adv-x="576" arabic-form="initial" 
d="M151.5 43q-9.5 5 -16.5 15q-20 -28 -53.5 -43t-71.5 -15h-11q-9 0 -15.5 8t-6.5 19t6.5 19t15.5 8h18q40 0 66 20.5t39 65.5l72 240q6 17 11.5 28t15.5 20l20 19l100 -27q65 -18 103.5 -69t43.5 -122l12 -167q3 -38 -29 -64l-23 -19l-269 55q-18 4 -27.5 9zM412 316.5
q-28 39.5 -78 52.5l-92 25l-89 -300l305 -63l-14 192q-4 54 -32 93.5z" />
    <glyph glyph-name="uniFEE4" unicode="&#x645;" horiz-adv-x="564" arabic-form="medial" 
d="M-16.5 8q-6.5 8 -6.5 19q0 12 6.5 19.5t16.5 7.5h24q48 0 79.5 23t33.5 66l-2 223q0 23 12 45l21 35l162 -15q76 -7 117.5 -54t41.5 -121q0 -26 -4 -47l-26 -155h106q9 0 15.5 -8t6.5 -19t-6.5 -19t-15.5 -8h-292q-42 0 -72.5 18.5t-46.5 50.5q-8 -17 -22 -32
q-39 -37 -108 -37h-24q-10 0 -16.5 8zM441 209q4 30 4 42q0 118 -137 131l-129 12v-247q0 -45 26 -69t68 -24h142z" />
    <glyph glyph-name="uniFEE6" unicode="&#x646;" horiz-adv-x="716" arabic-form="final" 
d="M152 184l-24 -106q-9 -39 -9 -71q0 -71 42 -108t120 -37h97q77 0 117 32v471l44 9v-207q2 -51 34 -82t87 -31h57q9 0 15 -8t6 -19t-6 -19t-15 -8h-56q-43 0 -74.5 17.5t-48.5 48.5l-1 -150q0 -47 -41 -77.5t-111 -30.5h-101q-100 0 -154.5 50t-54.5 140q0 38 11 85
l24 101h42zM255 366h77v-72h-77v72z" />
    <glyph glyph-name="uniFEE7" unicode="&#x646;" horiz-adv-x="346" arabic-form="initial" 
d="M-16.5 8q-6.5 8 -6.5 19q0 12 6.5 19.5t15.5 7.5h81q60 0 97.5 22t51.5 63l-57 288l45 20l49 -243q4 -20 4 -44q0 -73 -49.5 -116.5t-138.5 -43.5h-83q-9 0 -15.5 8zM143 611h77v-72h-77v72z" />
    <glyph glyph-name="uniFEE8" unicode="&#x646;" horiz-adv-x="408" arabic-form="medial" 
d="M-16.5 46.5q6.5 7.5 15.5 7.5h209q-20 18 -31 45t-11 60v213l43 9v-214q0 -50 30 -81.5t76 -31.5h94q9 0 15.5 -7.5t6.5 -19.5q0 -11 -6.5 -19t-15.5 -8h-91q-53 0 -91 32l-13 -16q-10 -9 -19.5 -12.5t-25.5 -3.5h-170q-9 0 -15.5 8t-6.5 19q0 12 6.5 19.5zM158 567h77
v-72h-77v72z" />
    <glyph glyph-name="uniFEE9" unicode="&#x647;" horiz-adv-x="491" arabic-form="isolated" 
d="M93 387l9 48l182 -48q54 -14 81.5 -45.5t36.5 -89.5l11 -72q2 -18 2 -27q0 -64 -45 -108.5t-136 -44.5h-31q-59 0 -93.5 35t-34.5 96q0 30 9 64l45 183zM114 142q0 -42 25.5 -65t69.5 -23h26q112 0 140 76l-18 113q-6 41 -27 65t-58 34l-105 26l-47 -186q-6 -22 -6 -40z
" />
    <glyph glyph-name="uniFEEA" unicode="&#x647;" horiz-adv-x="556" arabic-form="final" 
d="M76 207q0 152 159 192l132 32v62l45 12v-337q0 -56 30 -85t82 -29h33q9 0 15.5 -7.5t6.5 -19.5q0 -11 -6.5 -19t-15.5 -8h-33q-70 0 -115 43l-17 -31h-225q-29 0 -48 22l-26 29l-13 93q-4 24 -4 51zM391 66q-23 38 -23 88v223l-127 -31q-58 -15 -89.5 -48.5t-31.5 -96.5
q0 -18 3 -39l13 -96h255z" />
    <glyph glyph-name="uniFEEB" unicode="&#x647;" horiz-adv-x="734" arabic-form="initial" 
d="M243 0h-244q-9 0 -15.5 7.5t-6.5 19.5q0 11 6.5 19t15.5 8h108l22 248q5 64 40 98t95 34q9 0 27 -2l70 -9l16 42l158 -80q40 -20 62 -54.5t31 -84.5l29 -178q1 -5 1 -14q0 -31 -19 -51l-26 -30l-262 63q-42 -36 -108 -36zM563.5 293.5q-15.5 23.5 -39.5 35.5l-136 70
l12 -240q2 -44 -17 -76l237 -58l-36 214q-5 31 -20.5 54.5zM332 82.5q29 28.5 25 83.5l-11 209l-63 7q-7 1 -20 1q-83 0 -90 -88l-20 -241h94q56 0 85 28.5z" />
    <glyph glyph-name="uniFEEC" unicode="&#x647;" horiz-adv-x="550" arabic-form="medial" 
d="M159 -165q-33 38 -33 95v71l-127 -1q-9 0 -15.5 8t-6.5 19t6.5 19t15.5 8h127v259q0 26 20 48l33 32h148q37 0 71.5 -14.5t57.5 -45t23 -75.5q0 -17 -5 -42l-36 -162h112q9 0 15.5 -8t6.5 -19t-6.5 -19t-15.5 -8h-117l-1 -183q0 -20 -15 -38l-27 -32l-140 35
q-58 15 -91 53zM427 206q4 17 4 36q0 49 -30.5 76t-74.5 27h-157v-291h225zM169 0v-64q0 -40 22.5 -67t62.5 -37l134 -33l1 201h-220z" />
    <glyph glyph-name="uniFEEE" unicode="&#x648;" horiz-adv-x="535" arabic-form="final" 
d="M550.5 46.5q6.5 -7.5 6.5 -19.5q0 -11 -6.5 -19t-15.5 -8h-108v-18q0 -40 -22 -71.5t-61 -44.5l-177 -62l-18 47l177 61q43 16 58 45v43h-12h-29h-170q-28 0 -48 16.5t-24 44.5l-22 144q-3 21 -3 39q0 69 37 114.5t107 60.5l161 33l27 -23q19 -16 19 -40v-335h108
q9 0 15.5 -7.5zM384 54v347l-155 -32q-107 -22 -107 -121q0 -16 3 -34l24 -160h235z" />
    <glyph glyph-name="uniFEF0" unicode="&#x649;" horiz-adv-x="608" arabic-form="final" 
d="M130.5 -162.5q-54.5 50.5 -54.5 140.5q0 41 10 84l28 122h42l-28 -128q-9 -39 -9 -70q0 -71 42 -108t122 -37h56q132 0 172 89l-9 70h-201l6 54h302q9 0 15.5 -7.5t6.5 -19.5q0 -11 -6.5 -19t-15.5 -8h-61l3 -28q1 -5 1 -16q0 -42 -22.5 -80.5t-70 -63.5t-120.5 -25h-54
q-100 0 -154.5 50.5z" />
    <glyph glyph-name="uniFEF1" unicode="&#x64a;" horiz-adv-x="634" arabic-form="isolated" 
d="M130.5 -142q-54.5 50 -54.5 141q0 41 10 84l24 101h42l-24 -106q-9 -39 -9 -70q0 -72 42 -109t121 -37h64q69 0 113 23.5t63 65.5l-6 49h-188q-35 0 -53.5 24t-13.5 59l30 234q6 44 32.5 78.5t70.5 45.5l59 16l15 -45l-68 -17q-27 -7 -44 -26.5t-21 -46.5l-34 -268h189
q28 0 45.5 -16.5t20.5 -46.5l2 -24q3 -31 -18 -68.5t-69 -64t-121 -26.5h-64q-101 0 -155.5 50zM205 -270h208v-55h-208v55z" />
    <glyph glyph-name="uniFEF2" unicode="&#x64a;" horiz-adv-x="608" arabic-form="final" 
d="M130.5 -162.5q-54.5 50.5 -54.5 140.5q0 41 10 84l28 122h42l-28 -128q-9 -39 -9 -70q0 -71 42 -108t122 -37h56q132 0 172 89l-9 70h-201l6 54h302q9 0 15.5 -7.5t6.5 -19.5q0 -11 -6.5 -19t-15.5 -8h-61l3 -28q1 -5 1 -16q0 -42 -22.5 -80.5t-70 -63.5t-120.5 -25h-54
q-100 0 -154.5 50.5zM196 -287h208v-55h-208v55z" />
    <glyph glyph-name="uniFEF3" unicode="&#x64a;" horiz-adv-x="346" arabic-form="initial" 
d="M-16.5 8q-6.5 8 -6.5 19q0 12 6.5 19.5t15.5 7.5h81q60 0 97.5 22t51.5 63l-57 288l45 20l49 -243q4 -20 4 -44q0 -73 -49.5 -116.5t-138.5 -43.5h-83q-9 0 -15.5 8zM6 -135h208v-55h-208v55z" />
    <glyph glyph-name="uniFEF4" unicode="&#x64a;" horiz-adv-x="408" arabic-form="medial" 
d="M-16.5 46.5q6.5 7.5 15.5 7.5h209q-20 18 -31 45t-11 60v213l43 9v-214q0 -50 30 -81.5t76 -31.5h94q9 0 15.5 -7.5t6.5 -19.5q0 -11 -6.5 -19t-15.5 -8h-91q-53 0 -91 32l-13 -16q-10 -9 -19.5 -12.5t-25.5 -3.5h-170q-9 0 -15.5 8t-6.5 19q0 12 6.5 19.5zM84 -135h208
v-55h-208v55z" />
    <glyph glyph-name=".notdef" horiz-adv-x="290" 
 />
    <glyph glyph-name=".null" 
 />
    <glyph glyph-name="nonmarkingreturn" horiz-adv-x="262" 
 />
    <glyph glyph-name="space" unicode=" " horiz-adv-x="100" 
 />
    <glyph glyph-name="exclam" unicode="!" horiz-adv-x="252" 
d="M103 587h46v-419h-45zM168 78v-78h-84v78h84z" />
    <glyph glyph-name="quotedbl" unicode="&#x22;" horiz-adv-x="194" 
d="M32 573h45v-52l-5 -129h-34l-6 129v52zM117 573h45v-52l-5 -129h-34l-6 129v52z" />
    <glyph glyph-name="numbersign" unicode="#" horiz-adv-x="519" 
d="M23 213h132l22 137h-133l6 31h133l31 183h31l-31 -183h125l30 183h31l-30 -183h133l-4 -31h-135l-21 -137h133l-4 -31h-135l-30 -182h-31l30 182h-126l-29 -182h-31l30 182h-131zM333 350h-125l-22 -137h126z" />
    <glyph glyph-name="dollar" unicode="$" horiz-adv-x="469" 
d="M125 0q-51 4 -74 8v35q104 -6 167 -6q66 0 99 21.5t33 71.5v43q0 44 -22.5 66t-70.5 22h-63q-71 0 -108 31t-37 101v34q0 75 40 108.5t121 34.5v63h29v-64q93 -6 130 -14v-34q-105 7 -157 7q-63 0 -90.5 -24t-27.5 -80v-29q0 -49 25 -69t75 -20h68q64 0 98 -34t34 -94
v-47q0 -68 -40.5 -100.5t-114.5 -34.5v-65h-29v64q-34 1 -85 5z" />
    <glyph glyph-name="percent" unicode="%" horiz-adv-x="737" 
d="M60.5 540.5q22.5 23.5 79.5 23.5h78q55 0 77 -23.5t22 -74.5v-100q0 -51 -22 -74t-79 -23h-78q-55 0 -77.5 23.5t-22.5 73.5v100q0 51 22.5 74.5zM518 564h33l-338 -564h-35zM85 315q17 -16 57 -16h69q41 0 58.5 15.5t17.5 57.5v88q0 41 -16 57t-58 16h-69
q-41 0 -58.5 -15t-17.5 -58v-88q0 -41 17 -57zM444 274q22 23 78 23h78q55 0 77 -23t22 -74v-100q0 -51 -22 -74.5t-79 -23.5h-77q-55 0 -77 23.5t-22 74.5v100q0 51 22 74zM468 49q17 -16 56 -16h70q41 0 58 15.5t17 57.5v88q0 41 -15.5 57t-57.5 16h-70q-41 0 -58 -15
t-17 -58v-88q0 -41 17 -57z" />
    <glyph glyph-name="ampersand" unicode="&#x26;" horiz-adv-x="513" 
d="M74 37q-42 42 -42 108q0 82 74 146l52 44l-15 22q-40 55 -40 109q0 52 34.5 75.5t92.5 23.5q32 0 69.5 -3t57.5 -6v-32h-119q-90 0 -90 -65q0 -21 9 -42t31 -50l166 -226l116 109l17 -20l-53 -68l-55 -53l80 -109h-51l-60 81l-25 -22q-38 -34 -71 -49t-70 -15
q-66 0 -108 42zM241 50q25 11 54 39l26 25l-139 189l-44 -38q-62 -51 -62 -116q0 -50 30.5 -80t81.5 -30q28 0 53 11z" />
    <glyph glyph-name="quotesingle" unicode="'" horiz-adv-x="109" 
d="M32 573h45v-52l-5 -129h-34l-6 129v52z" />
    <glyph glyph-name="parenleft" unicode="(" horiz-adv-x="278" 
d="M96 418q31 128 111 260h43q-34 -62 -63 -129q-62 -140 -62 -282q0 -73 16 -147q16 -66 43 -130t67 -136h-44q-35 58 -67 126q-61 136 -61 287q0 84 17 151z" />
    <glyph glyph-name="parenright" unicode=")" horiz-adv-x="278" 
d="M138 -20q-32 -68 -67 -126h-44q40 72 67 136t43 130q16 74 16 147q0 142 -62 282q-29 68 -63 129h43q80 -132 111 -260q17 -67 17 -151q0 -151 -61 -287z" />
    <glyph glyph-name="asterisk" unicode="*" horiz-adv-x="352" 
d="M170 563l50 -95l-28 -13l-41 102zM297 492l11 -16l-78 -71l-20 23zM45 471l110 6v-30l-110 5v19zM126 420l31 -6l-36 -103l-19 5zM189 402l91 -64l-12 -16l-94 53z" />
    </font>
</defs>
</svg>
